<svg width="360" height="534" viewBox="0 0 360 534" fill="none" xmlns="http://www.w3.org/2000/svg">
<g id="Fifth Floor">
<rect x="0.5" y="0.5" width="359" height="533" rx="7.5" fill="#2B2B2B"/>
<rect x="0.5" y="0.5" width="359" height="533" rx="7.5" stroke="white"/>
<g id="Frame 45">
<g id="Frame 40">
<rect x="6.5" y="7.5" width="119" height="68" rx="3.5" stroke="white"/>
<text id="Faculty Area 502" fill="white" xml:space="preserve" style="white-space: pre" font-family="Urbanist" font-size="8" letter-spacing="0em"><tspan x="37.1523" y="44.8">Faculty Area 502</tspan></text>
</g>
<g id="Frame 42">
<rect x="132" y="7" width="45" height="69" rx="4" fill="#4B4B4B"/>
<path id="Vector" d="M151.676 43.875V50.5H148.912V43.875V43.375H148.412H147.5V38.65C147.5 37.8767 148.128 37.25 148.882 37.25H151.706C152.461 37.25 153.088 37.8767 153.088 38.65V43.375H152.176H151.676V43.875ZM162.309 44.8H160.176H159.676V45.3V50.5H157.853V45.3V44.8H157.353H155.221L157.395 38.2081L157.395 38.2066C157.582 37.6332 158.115 37.25 158.708 37.25H158.821C159.41 37.25 159.938 37.6293 160.135 38.21L162.309 44.8ZM151.676 33.9C151.676 34.6828 151.058 35.3 150.294 35.3C149.53 35.3 148.912 34.6828 148.912 33.9C148.912 33.1172 149.53 32.5 150.294 32.5C151.058 32.5 151.676 33.1172 151.676 33.9ZM160.147 33.9C160.147 34.6828 159.529 35.3 158.765 35.3C158.001 35.3 157.382 34.6828 157.382 33.9C157.382 33.1172 158.001 32.5 158.765 32.5C159.529 32.5 160.147 33.1172 160.147 33.9Z" stroke="white"/>
</g>
<g id="Frame 43">
<rect x="183" y="7" width="45" height="69" rx="4" fill="#4B4B4B"/>
<g id="Exit-icons">
<g id="streamline:interface-logout-arrow-exit-frame-leave-logout-rectangle-right" clip-path="url(#clip0_659_1226)">
<path id="Vector_2" d="M212.786 44.5V45.9286C212.786 46.118 212.71 46.2997 212.576 46.4337C212.442 46.5676 212.261 46.6429 212.071 46.6429H207.071C206.882 46.6429 206.7 46.5676 206.566 46.4337C206.432 46.2997 206.357 46.118 206.357 45.9286L206.5 38C206.5 37.8106 206.432 37.7003 206.566 37.5664C206.7 37.4324 206.882 37.3572 207.071 37.3572H212.071C212.261 37.3572 212.442 37.4324 212.576 37.5664C212.71 37.7003 212.786 37.882 212.786 38.0715V39.5M210.643 42H215.643M215.643 42L214.214 40.5715M215.643 42L214.214 43.4286" stroke="white" stroke-width="0.7" stroke-linecap="round" stroke-linejoin="round"/>
</g>
<g id="Frame 50">
<rect width="5.16129" height="3.87097" transform="translate(204.032 39.5161)" fill="#4B4B4B"/>
</g>
<g id="Fire Run Away" clip-path="url(#clip1_659_1226)">
<path id="Vector_3" d="M204.663 38.4808C205.385 38.4808 205.973 37.8931 205.973 37.1703C205.973 36.4476 205.385 35.8599 204.663 35.8599C203.94 35.8599 203.352 36.4476 203.352 37.1703C203.352 37.8931 203.94 38.4808 204.663 38.4808ZM204.663 36.4647C205.052 36.4647 205.368 36.7812 205.368 37.1703C205.368 37.5595 205.052 37.876 204.663 37.876C204.273 37.876 203.957 37.5595 203.957 37.1703C203.957 36.7812 204.273 36.4647 204.663 36.4647ZM203.069 47.8024C203.465 47.8024 203.812 47.5484 203.933 47.1714C204.424 45.6361 204.693 44.3326 204.704 44.2782C204.756 44.0212 204.696 43.754 204.537 43.5453C204.518 43.5212 204.111 42.9929 203.443 42.4647C203.593 42.129 203.817 41.6643 204.083 41.2087C204.089 41.2218 204.096 41.2349 204.102 41.248L204.394 41.8699C204.544 42.1865 204.865 42.3911 205.216 42.3911C205.343 42.3911 205.467 42.3649 205.584 42.3125L207.263 41.5665C207.489 41.4657 207.662 41.2822 207.746 41.0504C207.832 40.8185 207.82 40.5675 207.712 40.3437C207.501 39.9062 206.959 39.7157 206.503 39.9183L205.654 40.2964C205.252 39.5524 204.607 38.9758 203.817 38.6593C203.062 38.3568 202.217 38.3195 201.438 38.5534C200.622 38.8044 199.903 39.3246 199.411 40.0191L198.876 40.7732C198.736 40.9718 198.682 41.2117 198.723 41.4506C198.764 41.6895 198.896 41.8982 199.094 42.0373C199.275 42.1653 199.496 42.2218 199.716 42.1976C199.882 42.1794 200.002 42.0302 199.984 41.8639C199.966 41.6976 199.816 41.5786 199.65 41.5958C199.577 41.6038 199.503 41.5847 199.443 41.5423C199.377 41.496 199.333 41.4264 199.319 41.3468C199.305 41.2671 199.323 41.1875 199.37 41.121L199.904 40.3669C200.319 39.7833 200.926 39.3437 201.612 39.133C202.258 38.9395 202.962 38.9708 203.591 39.2218C204.3 39.505 204.869 40.0423 205.195 40.7328L205.236 40.8195C205.307 40.9687 205.482 41.0333 205.632 40.9667L206.747 40.4708C206.908 40.3992 207.096 40.4597 207.166 40.6058C207.202 40.6804 207.206 40.7641 207.177 40.8417C207.148 40.9193 207.091 40.9808 207.015 41.0141L205.336 41.7601C205.189 41.8256 205.007 41.756 204.94 41.6129L204.647 40.9909C204.558 40.8004 204.441 40.6199 204.301 40.4556C204.239 40.383 204.146 40.3447 204.052 40.3498C203.957 40.3558 203.87 40.4062 203.818 40.4859C203.374 41.1603 203.014 41.9224 202.791 42.4425C202.735 42.5726 202.776 42.7228 202.89 42.8064C203.604 43.3276 204.037 43.8901 204.055 43.9133C204.108 43.9828 204.128 44.0716 204.11 44.1572C204.099 44.2107 203.837 45.4828 203.355 46.9879C203.315 47.1139 203.199 47.1986 203.067 47.1986C203.023 47.1986 202.98 47.1885 202.939 47.1703C202.804 47.1078 202.737 46.9365 202.787 46.7792C203.118 45.7369 203.346 44.7964 203.453 44.3286C203.475 44.2318 203.448 44.131 203.381 44.0574C203.124 43.7772 202.705 43.375 202.166 43.0504C202.022 42.9647 201.837 43.0111 201.75 43.1542C201.666 43.2964 201.712 43.4818 201.855 43.5685C202.275 43.8205 202.618 44.1351 202.828 44.3508C202.713 44.8447 202.503 45.6794 202.211 46.5947C202.068 47.0453 202.272 47.5292 202.687 47.7187C202.81 47.7742 202.938 47.8024 203.069 47.8024Z" fill="white"/>
<path id="Vector_4" d="M199.337 47.8023C199.574 47.8023 199.812 47.7096 199.989 47.5261C200.24 47.266 201.512 45.9223 201.867 44.9687C201.913 44.8467 201.951 44.6924 201.983 44.4969C202.01 44.3326 201.9 44.1763 201.735 44.1481C201.571 44.1209 201.415 44.2318 201.386 44.3961C201.354 44.5896 201.321 44.6995 201.3 44.758C201.041 45.4555 200.081 46.5614 199.555 47.1057C199.439 47.2257 199.247 47.2287 199.127 47.1128C199.007 46.9969 199.004 46.8053 199.12 46.6854C199.49 46.3023 200.501 45.1723 200.733 44.5473C200.839 44.264 200.892 43.3164 200.901 42.7852C200.901 42.767 200.903 42.7489 200.907 42.7307C200.917 42.6783 201.169 41.4404 201.822 40.2418C201.902 40.0957 201.848 39.9112 201.701 39.8316C201.555 39.7519 201.37 39.8053 201.291 39.9525C200.594 41.2318 200.325 42.5574 200.314 42.6138C200.304 42.6672 200.298 42.7217 200.297 42.7761C200.285 43.4787 200.216 44.2055 200.167 44.3376C200.019 44.7348 199.283 45.6481 198.686 46.266C198.338 46.6259 198.348 47.2005 198.707 47.5483C198.881 47.7176 199.109 47.8023 199.337 47.8023Z" fill="white"/>
</g>
</g>
</g>
<g id="Frame 41">
<rect x="234.5" y="7.5" width="119" height="68" rx="3.5" stroke="white"/>
<text id="Faculty Area 501" fill="white" xml:space="preserve" style="white-space: pre" font-family="Urbanist" font-size="8" letter-spacing="0em"><tspan x="266.273" y="44.8">Faculty Area 501</tspan></text>
</g>
</g>
<g id="Frame 49">
<g id="Frame 45_2">
<g clip-path="url(#clip2_659_1226)">
<rect width="22" height="120" rx="4" transform="matrix(0 -1 -1 0 240 412)" fill="#2B2B2B"/>
<text id="Lift" fill="white" xml:space="preserve" style="white-space: pre" font-family="Poppins" font-size="11" letter-spacing="0em"><tspan x="172.459" y="404.85">Lift</tspan></text>
</g>
<rect x="-0.5" y="-0.5" width="21" height="119" rx="3.5" transform="matrix(0 -1 -1 0 239 411)" stroke="white"/>
</g>
<g id="Frame 53">
<g id="Frame 45_3">
<rect x="183.5" y="318.5" width="56" height="65" rx="3.5" stroke="white"/>
<text id="E. CR 506" transform="translate(194 345)" fill="white" xml:space="preserve" style="white-space: pre" font-family="Poppins" font-size="8" letter-spacing="0em"><tspan x="0.390625" y="8.8">E. CR 506</tspan></text>
</g>
<g id="Frame 44">
<rect x="120.5" y="318.5" width="56" height="65" rx="3.5" stroke="white"/>
<text id="E. CR 507" transform="translate(131 345)" fill="white" xml:space="preserve" style="white-space: pre" font-family="Poppins" font-size="8" letter-spacing="0em"><tspan x="0.246094" y="8.8">E. CR 507</tspan></text>
</g>
</g>
<g id="Frame 49_2">
<g clip-path="url(#clip3_659_1226)">
<rect width="91" height="120" rx="4" transform="matrix(0 -1 -1 0 240 312)" fill="#23A6F0"/>
<text id="Floor 5" fill="white" xml:space="preserve" style="white-space: pre" font-family="Poppins" font-size="20" letter-spacing="0em"><tspan x="147.031" y="273.5">Floor 5</tspan></text>
</g>
</g>
<g id="Frame 54">
<g id="Frame 45_4">
<rect x="183.5" y="146.5" width="56" height="68" rx="3.5" stroke="white"/>
<text id="E. CR 509" transform="translate(194 175)" fill="white" xml:space="preserve" style="white-space: pre" font-family="Poppins" font-size="8" letter-spacing="0em"><tspan x="0.414062" y="8.8">E. CR 509</tspan></text>
</g>
<g id="Frame 44_2">
<rect x="120.5" y="146.5" width="56" height="68" rx="3.5" stroke="white"/>
<text id="E. CR 508" transform="translate(131 175)" fill="white" xml:space="preserve" style="white-space: pre" font-family="Poppins" font-size="8" letter-spacing="0em"><tspan x="0.40625" y="8.8">E. CR 508</tspan></text>
</g>
</g>
<g id="Frame 48">
<g clip-path="url(#clip4_659_1226)">
<rect width="22" height="120" rx="4" transform="matrix(0 -1 -1 0 240 140)" fill="#2B2B2B"/>
<text id="Lift_2" fill="white" xml:space="preserve" style="white-space: pre" font-family="Poppins" font-size="11" letter-spacing="0em"><tspan x="172.459" y="132.85">Lift</tspan></text>
</g>
<rect x="-0.5" y="-0.5" width="21" height="119" rx="3.5" transform="matrix(0 -1 -1 0 239 139)" stroke="white"/>
</g>
</g>
<path id="Arrow 5" d="M179.646 114.354C179.842 114.549 180.158 114.549 180.354 114.354L183.536 111.172C183.731 110.976 183.731 110.66 183.536 110.464C183.34 110.269 183.024 110.269 182.828 110.464L180 113.293L177.172 110.464C176.976 110.269 176.66 110.269 176.464 110.464C176.269 110.66 176.269 110.976 176.464 111.172L179.646 114.354ZM179.5 105L179.5 114L180.5 114L180.5 105L179.5 105Z" fill="white"/>
<text id="Bhagubhai Lift Entrance" fill="white" xml:space="preserve" style="white-space: pre" font-family="Inter" font-size="8" letter-spacing="0em"><tspan x="134.297" y="99.4091">Bhagubhai Lift Entrance</tspan></text>
<text id="Cooper Lift Entrance" fill="white" xml:space="preserve" style="white-space: pre" font-family="Inter" font-size="8" letter-spacing="0em"><tspan x="140.391" y="441.409">Cooper Lift Entrance</tspan></text>
<path id="Arrow 6" d="M180.354 420.646C180.158 420.451 179.842 420.451 179.646 420.646L176.464 423.828C176.269 424.024 176.269 424.34 176.464 424.536C176.66 424.731 176.976 424.731 177.172 424.536L180 421.707L182.828 424.536C183.024 424.731 183.34 424.731 183.536 424.536C183.731 424.34 183.731 424.024 183.536 423.828L180.354 420.646ZM180.5 430L180.5 421L179.5 421L179.5 430L180.5 430Z" fill="white"/>
<g id="Frame 52">
<g id="Group 1261153515">
<g id="Frame 50_2">
<rect x="6" y="411" width="19" height="69" rx="4" transform="rotate(-90 6 411)" fill="#4B4B4B"/>
</g>
<g id="Exit-icons_2">
<g id="streamline:interface-logout-arrow-exit-frame-leave-logout-rectangle-right_2" clip-path="url(#clip5_659_1226)">
<path id="Vector_5" d="M33.2145 404.718V406.226C33.2145 406.426 33.2898 406.618 33.4237 406.759C33.5577 406.9 33.7393 406.98 33.9288 406.98H38.9288C39.1182 406.98 39.2999 406.9 39.4339 406.759C39.5678 406.618 39.6431 406.426 39.6431 406.226L39.5 397.857C39.5 397.657 39.5678 397.54 39.4339 397.399C39.2999 397.258 39.1182 397.178 38.9288 397.178H33.9288C33.7393 397.178 33.5577 397.258 33.4237 397.399C33.2898 397.54 33.2145 397.732 33.2145 397.932V399.44M35.3574 402.079H30.3574M30.3574 402.079L31.7859 400.571M30.3574 402.079L31.7859 403.587" stroke="white" stroke-width="0.7" stroke-linecap="round" stroke-linejoin="round"/>
</g>
<g id="Frame 50_3">
<rect width="5.16129" height="4.08602" transform="matrix(-1 0 0 1 41.9678 399.457)" fill="#4B4B4B"/>
</g>
<g id="Fire Run Away_2" clip-path="url(#clip6_659_1226)">
<path id="Vector_6" d="M41.3374 398.364C40.6146 398.364 40.0269 397.744 40.0269 396.981C40.0269 396.218 40.6146 395.598 41.3374 395.598C42.0602 395.598 42.6479 396.218 42.6479 396.981C42.6479 397.744 42.0602 398.364 41.3374 398.364ZM41.3374 396.236C40.9483 396.236 40.6318 396.57 40.6318 396.981C40.6318 397.392 40.9483 397.726 41.3374 397.726C41.7265 397.726 42.0431 397.392 42.0431 396.981C42.0431 396.57 41.7265 396.236 41.3374 396.236ZM42.9312 408.204C42.535 408.204 42.1882 407.936 42.0673 407.538C41.5763 405.917 41.3072 404.541 41.2961 404.484C41.2437 404.212 41.3042 403.93 41.4634 403.71C41.4816 403.685 41.8888 403.127 42.5572 402.569C42.407 402.215 42.1832 401.725 41.9171 401.244C41.911 401.257 41.904 401.271 41.8979 401.285L41.6056 401.942C41.4564 402.276 41.1348 402.492 40.784 402.492C40.657 402.492 40.533 402.464 40.416 402.409L38.7366 401.621C38.5108 401.515 38.3384 401.321 38.2538 401.077C38.1681 400.832 38.1802 400.567 38.288 400.331C38.4987 399.869 39.041 399.668 39.4967 399.882L40.3465 400.281C40.7477 399.495 41.3929 398.887 42.1832 398.553C42.9382 398.233 43.783 398.194 44.5622 398.441C45.3777 398.706 46.0975 399.255 46.5894 399.988L47.1237 400.784C47.2638 400.994 47.3183 401.247 47.2769 401.499C47.2356 401.751 47.1035 401.971 46.906 402.118C46.7245 402.253 46.5037 402.313 46.284 402.287C46.1177 402.268 45.9977 402.111 46.0158 401.935C46.034 401.76 46.1842 401.634 46.3495 401.652C46.4231 401.661 46.4967 401.64 46.5572 401.596C46.6227 401.547 46.6671 401.473 46.6812 401.389C46.6953 401.305 46.6771 401.221 46.6298 401.151L46.0965 400.355C45.6812 399.739 45.0743 399.275 44.3878 399.053C43.7417 398.848 43.038 398.881 42.409 399.146C41.7003 399.445 41.1308 400.012 40.8052 400.741L40.7638 400.833C40.6933 400.99 40.5179 401.058 40.3677 400.988L39.2527 400.465C39.0925 400.389 38.904 400.453 38.8344 400.607C38.7981 400.686 38.7941 400.774 38.8233 400.856C38.8515 400.938 38.909 401.003 38.9846 401.038L40.664 401.826C40.8112 401.895 40.9927 401.821 41.0602 401.67L41.3525 401.014C41.4423 400.813 41.5592 400.622 41.6993 400.449C41.7608 400.372 41.8535 400.332 41.9483 400.337C42.0431 400.343 42.1298 400.397 42.1822 400.481C42.6257 401.193 42.9856 401.997 43.2094 402.546C43.2648 402.683 43.2235 402.842 43.1096 402.93C42.3959 403.48 41.9634 404.074 41.9453 404.098C41.8919 404.172 41.8717 404.266 41.8898 404.356C41.9009 404.412 42.163 405.755 42.6449 407.344C42.6852 407.477 42.8011 407.566 42.9332 407.566C42.9765 407.566 43.0199 407.556 43.0612 407.537C43.1963 407.471 43.2628 407.29 43.2134 407.124C42.8818 406.023 42.654 405.031 42.5471 404.537C42.5249 404.435 42.5521 404.328 42.6187 404.251C42.8757 403.955 43.2951 403.53 43.8344 403.188C43.9775 403.097 44.163 403.146 44.2497 403.297C44.3344 403.447 44.288 403.643 44.1449 403.735C43.7245 404.001 43.3818 404.333 43.1721 404.56C43.287 405.082 43.4967 405.963 43.789 406.929C43.9322 407.405 43.7275 407.915 43.3132 408.115C43.1902 408.174 43.0622 408.204 42.9312 408.204Z" fill="white"/>
<path id="Vector_7" d="M46.663 408.203C46.4261 408.203 46.1882 408.106 46.0108 407.912C45.7597 407.637 44.4876 406.219 44.1327 405.212C44.0874 405.084 44.0491 404.921 44.0168 404.714C43.9896 404.541 44.1005 404.376 44.2648 404.346C44.4291 404.318 44.5854 404.435 44.6136 404.608C44.6458 404.812 44.6791 404.928 44.7003 404.99C44.9593 405.726 45.919 406.894 46.4452 407.468C46.5612 407.595 46.7527 407.598 46.8726 407.476C46.9926 407.353 46.9956 407.151 46.8797 407.024C46.5097 406.62 45.4987 405.427 45.2668 404.768C45.161 404.469 45.1075 403.468 45.0995 402.908C45.0995 402.888 45.0974 402.869 45.0934 402.85C45.0833 402.795 44.8313 401.488 44.1781 400.223C44.0985 400.069 44.1519 399.874 44.2991 399.79C44.4452 399.706 44.6297 399.762 44.7093 399.918C45.4059 401.268 45.6751 402.667 45.6862 402.727C45.6962 402.783 45.7023 402.841 45.7033 402.898C45.7154 403.64 45.7839 404.407 45.8333 404.546C45.9805 404.966 46.7174 405.93 47.3142 406.582C47.662 406.962 47.6519 407.568 47.293 407.935C47.1186 408.114 46.8908 408.203 46.663 408.203Z" fill="white"/>
</g>
</g>
</g>
<g id="Frame 51">
<g clip-path="url(#clip7_659_1226)">
<rect x="6" y="384" width="35" height="69" rx="4" transform="rotate(-90 6 384)" fill="#4B4B4B"/>
<path id="Vector_8" d="M37.6765 368.875V375.5H34.9118V368.875V368.375H34.4118H33.5V363.65C33.5 362.877 34.1276 362.25 34.8824 362.25H37.7059C38.4606 362.25 39.0882 362.877 39.0882 363.65V368.375H38.1765H37.6765V368.875ZM48.3086 369.8H46.1765H45.6765V370.3V375.5H43.8529V370.3V369.8H43.3529H41.2208L43.3948 363.208L43.3953 363.207C43.5824 362.633 44.1153 362.25 44.7082 362.25H44.8212C45.4096 362.25 45.938 362.629 46.1352 363.21L48.3086 369.8ZM37.6765 358.9C37.6765 359.683 37.0583 360.3 36.2941 360.3C35.5299 360.3 34.9118 359.683 34.9118 358.9C34.9118 358.117 35.5299 357.5 36.2941 357.5C37.0583 357.5 37.6765 358.117 37.6765 358.9ZM46.1471 358.9C46.1471 359.683 45.5289 360.3 44.7647 360.3C44.0005 360.3 43.3824 359.683 43.3824 358.9C43.3824 358.117 44.0005 357.5 44.7647 357.5C45.5289 357.5 46.1471 358.117 46.1471 358.9Z" stroke="white"/>
</g>
</g>
<g id="Frame 54_2">
<g clip-path="url(#clip8_659_1226)">
<rect x="-0.5" y="-0.5" width="54" height="68" rx="3.5" transform="matrix(0 -1 -1 0 74 340)" stroke="white"/>
<text id="Boys Common Room" transform="translate(6 283)" fill="white" xml:space="preserve" style="white-space: pre" font-family="Poppins" font-size="8" letter-spacing="0em"><tspan x="5.07031" y="26.8">Boys Common&#10;</tspan><tspan x="22.8281" y="38.8">Room</tspan></text>
</g>
</g>
<g id="Frame 49_3">
<g clip-path="url(#clip9_659_1226)">
<rect x="-0.5" y="-0.5" width="40" height="68" rx="3.5" transform="matrix(0 -1 -1 0 74 277)" stroke="white"/>
<text id="E. TR 501" transform="translate(25 251.5)" fill="white" xml:space="preserve" style="white-space: pre" font-family="Poppins" font-size="8" letter-spacing="0em"><tspan x="0.0742188" y="8.8">E. TR 501</tspan></text>
</g>
</g>
<g id="Frame 55">
<g clip-path="url(#clip10_659_1226)">
<rect x="-0.5" y="-0.5" width="40" height="68" rx="3.5" transform="matrix(0 -1 -1 0 74 228)" stroke="white"/>
<text id="E. CL 501" transform="translate(25 202.5)" fill="white" xml:space="preserve" style="white-space: pre" font-family="Poppins" font-size="8" letter-spacing="0em"><tspan x="0.355469" y="8.8">E. CL 501</tspan></text>
</g>
</g>
<g id="Frame 56">
<rect x="-0.5" y="-0.5" width="58" height="68" rx="3.5" transform="matrix(0 -1 -1 0 74 179)" stroke="white"/>
<text id="E. CR 503" transform="translate(23 144.5)" fill="white" xml:space="preserve" style="white-space: pre" font-family="Poppins" font-size="8" letter-spacing="0em"><tspan x="0.0742188" y="8.8">E. CR 503</tspan></text>
</g>
</g>
<g id="Frame 46">
<g id="Frame 55_2">
<g id="Frame 43_2">
<rect x="6.5" y="458.5" width="67" height="68" rx="3.5" stroke="white"/>
<text id="E. CR 502" fill="white" xml:space="preserve" style="white-space: pre" font-family="Poppins" font-size="8" letter-spacing="0em"><tspan x="22.1289" y="495.8">E. CR 502</tspan></text>
</g>
<g id="Frame 44_3">
<rect x="80.5" y="458.5" width="67" height="68" rx="3.5" stroke="white"/>
<text id="E. CR 501" fill="white" xml:space="preserve" style="white-space: pre" font-family="Poppins" font-size="8" letter-spacing="0em"><tspan x="97.1484" y="495.8">E. CR 501</tspan></text>
</g>
</g>
<g id="Frame 56_2">
<g id="Frame 46_2">
<rect x="215.5" y="458.5" width="41" height="68" rx="3.5" stroke="white"/>
<text id="E. CL 506" fill="white" xml:space="preserve" style="white-space: pre" font-family="Poppins" font-size="8" letter-spacing="0em"><tspan x="219.098" y="495.8">E. CL 506</tspan></text>
</g>
<g id="Frame 47">
<rect x="263.5" y="458.5" width="41" height="68" rx="3.5" stroke="white"/>
<text id="E. CL 505" fill="white" xml:space="preserve" style="white-space: pre" font-family="Poppins" font-size="8" letter-spacing="0em"><tspan x="267.125" y="495.8">E. CL 505</tspan></text>
</g>
<g id="Frame 45_5">
<rect x="311.5" y="458.5" width="41" height="68" rx="3.5" stroke="white"/>
<text id="E. CL 504" fill="white" xml:space="preserve" style="white-space: pre" font-family="Poppins" font-size="8" letter-spacing="0em"><tspan x="315.121" y="495.8">E. CL 504</tspan></text>
</g>
</g>
</g>
<g id="Frame 51_2">
<g id="Frame 50_4">
<g clip-path="url(#clip11_659_1226)">
<rect x="285" y="411" width="19" height="69" rx="4" transform="rotate(-90 285 411)" fill="#4B4B4B"/>
<g id="Exit-icons_3">
<g id="streamline:interface-logout-arrow-exit-frame-leave-logout-rectangle-right_3" clip-path="url(#clip12_659_1226)">
<path id="Vector_9" d="M326.737 404.548V405.977C326.737 406.166 326.661 406.348 326.527 406.482C326.394 406.616 326.212 406.691 326.022 406.691H321.022C320.833 406.691 320.651 406.616 320.517 406.482C320.383 406.348 320.308 406.166 320.308 405.977L320.451 398.048C320.451 397.859 320.383 397.748 320.517 397.614C320.651 397.481 320.833 397.405 321.022 397.405H326.022C326.212 397.405 326.394 397.481 326.527 397.614C326.661 397.748 326.737 397.93 326.737 398.12V399.548M324.594 402.048H329.594M329.594 402.048L328.165 400.62M329.594 402.048L328.165 403.477" stroke="white" stroke-width="0.7" stroke-linecap="round" stroke-linejoin="round"/>
</g>
<g id="Frame 50_5">
<rect width="5.16129" height="3.87097" transform="translate(317.983 399.564)" fill="#4B4B4B"/>
</g>
<g id="Fire Run Away_3" clip-path="url(#clip13_659_1226)">
<path id="Vector_10" d="M318.614 398.529C319.337 398.529 319.924 397.941 319.924 397.219C319.924 396.496 319.337 395.908 318.614 395.908C317.891 395.908 317.303 396.496 317.303 397.219C317.303 397.941 317.891 398.529 318.614 398.529ZM318.614 396.513C319.003 396.513 319.319 396.83 319.319 397.219C319.319 397.608 319.003 397.924 318.614 397.924C318.225 397.924 317.908 397.608 317.908 397.219C317.908 396.83 318.225 396.513 318.614 396.513ZM317.02 407.851C317.416 407.851 317.763 407.597 317.884 407.22C318.375 405.684 318.644 404.381 318.655 404.327C318.708 404.069 318.647 403.802 318.488 403.594C318.47 403.569 318.062 403.041 317.394 402.513C317.544 402.177 317.768 401.713 318.034 401.257C318.04 401.27 318.047 401.283 318.053 401.296L318.346 401.918C318.495 402.235 318.816 402.439 319.167 402.439C319.294 402.439 319.418 402.413 319.535 402.361L321.215 401.615C321.44 401.514 321.613 401.331 321.697 401.099C321.783 400.867 321.771 400.616 321.663 400.392C321.452 399.955 320.91 399.764 320.454 399.967L319.605 400.345C319.203 399.601 318.558 399.024 317.768 398.708C317.013 398.405 316.168 398.368 315.389 398.602C314.573 398.853 313.854 399.373 313.362 400.067L312.827 400.822C312.687 401.02 312.633 401.26 312.674 401.499C312.716 401.738 312.848 401.947 313.045 402.086C313.227 402.214 313.447 402.27 313.667 402.246C313.834 402.228 313.953 402.079 313.935 401.912C313.917 401.746 313.767 401.627 313.602 401.644C313.528 401.652 313.454 401.633 313.394 401.591C313.328 401.544 313.284 401.475 313.27 401.395C313.256 401.315 313.274 401.236 313.321 401.169L313.855 400.415C314.27 399.832 314.877 399.392 315.563 399.181C316.21 398.988 316.913 399.019 317.542 399.27C318.251 399.553 318.82 400.091 319.146 400.781L319.187 400.868C319.258 401.017 319.433 401.082 319.584 401.015L320.698 400.519C320.859 400.448 321.047 400.508 321.117 400.654C321.153 400.729 321.157 400.812 321.128 400.89C321.1 400.968 321.042 401.029 320.967 401.062L319.287 401.808C319.14 401.874 318.959 401.804 318.891 401.661L318.599 401.039C318.509 400.849 318.392 400.668 318.252 400.504C318.19 400.431 318.098 400.393 318.003 400.398C317.908 400.404 317.821 400.455 317.769 400.534C317.325 401.209 316.966 401.971 316.742 402.491C316.686 402.621 316.728 402.771 316.842 402.855C317.555 403.376 317.988 403.938 318.006 403.962C318.059 404.031 318.079 404.12 318.061 404.206C318.05 404.259 317.788 405.531 317.306 407.036C317.266 407.162 317.15 407.247 317.018 407.247C316.975 407.247 316.931 407.237 316.89 407.219C316.755 407.156 316.688 406.985 316.738 406.828C317.069 405.785 317.297 404.845 317.404 404.377C317.426 404.28 317.399 404.179 317.333 404.106C317.075 403.826 316.656 403.423 316.117 403.099C315.974 403.013 315.788 403.059 315.701 403.203C315.617 403.345 315.663 403.53 315.806 403.617C316.227 403.869 316.569 404.183 316.779 404.399C316.664 404.893 316.454 405.728 316.162 406.643C316.019 407.094 316.224 407.578 316.638 407.767C316.761 407.823 316.889 407.851 317.02 407.851Z" fill="white"/>
<path id="Vector_11" d="M313.288 407.851C313.525 407.851 313.763 407.758 313.94 407.575C314.191 407.315 315.464 405.971 315.818 405.017C315.864 404.895 315.902 404.741 315.934 404.545C315.962 404.381 315.851 404.225 315.686 404.197C315.522 404.169 315.366 404.28 315.338 404.445C315.305 404.638 315.272 404.748 315.251 404.807C314.992 405.504 314.032 406.61 313.506 407.154C313.39 407.274 313.198 407.277 313.079 407.161C312.959 407.045 312.956 406.854 313.071 406.734C313.441 406.351 314.453 405.221 314.684 404.596C314.79 404.313 314.844 403.365 314.852 402.834C314.852 402.816 314.854 402.797 314.858 402.779C314.868 402.727 315.12 401.489 315.773 400.29C315.853 400.144 315.799 399.96 315.652 399.88C315.506 399.801 315.321 399.854 315.242 400.001C314.545 401.28 314.276 402.606 314.265 402.662C314.255 402.716 314.249 402.77 314.248 402.825C314.236 403.527 314.167 404.254 314.118 404.386C313.971 404.783 313.234 405.697 312.637 406.315C312.289 406.674 312.299 407.249 312.658 407.597C312.833 407.766 313.06 407.851 313.288 407.851Z" fill="white"/>
</g>
</g>
</g>
</g>
<g id="Frame 52_2">
<rect x="285.5" y="322.5" width="68" height="63" rx="3.5" stroke="white"/>
<text id="E. CR 505" transform="translate(302 349)" fill="white" xml:space="preserve" style="white-space: pre" font-family="Poppins" font-size="8" letter-spacing="0em"><tspan x="0.417969" y="8.8">E. CR 505</tspan></text>
</g>
<g id="Frame 44_4">
<rect x="285.5" y="252.5" width="68" height="63" rx="3.5" stroke="white"/>
<text id="E. CR 504" transform="translate(302 279)" fill="white" xml:space="preserve" style="white-space: pre" font-family="Poppins" font-size="8" letter-spacing="0em"><tspan x="0.410156" y="8.8">E. CR 504</tspan></text>
</g>
<g id="Group 1261153515_2">
<g id="Frame 50_6">
<rect x="285" y="246" width="19" height="69" rx="4" transform="rotate(-90 285 246)" fill="#4B4B4B"/>
</g>
<g id="Exit-icons_4">
<g id="streamline:interface-logout-arrow-exit-frame-leave-logout-rectangle-right_4" clip-path="url(#clip14_659_1226)">
<path id="Vector_12" d="M326.786 239.139V240.647C326.786 240.847 326.71 241.038 326.576 241.18C326.442 241.321 326.261 241.401 326.071 241.401H321.071C320.882 241.401 320.7 241.321 320.566 241.18C320.432 241.038 320.357 240.847 320.357 240.647L320.5 232.278C320.5 232.078 320.432 231.961 320.566 231.82C320.7 231.679 320.882 231.599 321.071 231.599H326.071C326.261 231.599 326.442 231.679 326.576 231.82C326.71 231.961 326.786 232.153 326.786 232.353V233.861M324.643 236.5H329.643M329.643 236.5L328.214 234.992M329.643 236.5L328.214 238.008" stroke="white" stroke-width="0.7" stroke-linecap="round" stroke-linejoin="round"/>
</g>
<g id="Frame 50_7">
<rect width="5.16129" height="4.08602" transform="translate(318.032 233.878)" fill="#4B4B4B"/>
</g>
<g id="Fire Run Away_4" clip-path="url(#clip15_659_1226)">
<path id="Vector_13" d="M318.663 232.785C319.385 232.785 319.973 232.165 319.973 231.402C319.973 230.639 319.385 230.019 318.663 230.019C317.94 230.019 317.352 230.639 317.352 231.402C317.352 232.165 317.94 232.785 318.663 232.785ZM318.663 230.657C319.052 230.657 319.368 230.991 319.368 231.402C319.368 231.813 319.052 232.147 318.663 232.147C318.273 232.147 317.957 231.813 317.957 231.402C317.957 230.991 318.273 230.657 318.663 230.657ZM317.069 242.625C317.465 242.625 317.812 242.356 317.933 241.958C318.424 240.338 318.693 238.962 318.704 238.905C318.756 238.633 318.696 238.351 318.537 238.131C318.518 238.105 318.111 237.548 317.443 236.99C317.593 236.636 317.817 236.145 318.083 235.665C318.089 235.678 318.096 235.692 318.102 235.706L318.394 236.363C318.544 236.697 318.865 236.913 319.216 236.913C319.343 236.913 319.467 236.885 319.584 236.83L321.263 236.042C321.489 235.936 321.662 235.742 321.746 235.497C321.832 235.253 321.82 234.988 321.712 234.752C321.501 234.29 320.959 234.089 320.503 234.302L319.654 234.702C319.252 233.916 318.607 233.308 317.817 232.973C317.062 232.654 316.217 232.615 315.438 232.862C314.622 233.127 313.903 233.676 313.411 234.409L312.876 235.205C312.736 235.414 312.682 235.668 312.723 235.92C312.764 236.172 312.896 236.392 313.094 236.539C313.275 236.674 313.496 236.734 313.716 236.708C313.882 236.689 314.002 236.532 313.984 236.356C313.966 236.181 313.816 236.055 313.65 236.073C313.577 236.082 313.503 236.061 313.443 236.017C313.377 235.968 313.333 235.894 313.319 235.81C313.305 235.726 313.323 235.642 313.37 235.572L313.904 234.776C314.319 234.16 314.926 233.696 315.612 233.474C316.258 233.269 316.962 233.302 317.591 233.567C318.3 233.866 318.869 234.433 319.195 235.162L319.236 235.254C319.307 235.411 319.482 235.479 319.632 235.409L320.747 234.886C320.908 234.81 321.096 234.874 321.166 235.028C321.202 235.107 321.206 235.195 321.177 235.277C321.148 235.359 321.091 235.424 321.015 235.459L319.336 236.247C319.189 236.316 319.007 236.242 318.94 236.091L318.647 235.435C318.558 235.234 318.441 235.043 318.301 234.87C318.239 234.793 318.146 234.753 318.052 234.758C317.957 234.764 317.87 234.818 317.818 234.902C317.374 235.613 317.014 236.418 316.791 236.967C316.735 237.104 316.776 237.263 316.89 237.351C317.604 237.901 318.037 238.495 318.055 238.519C318.108 238.593 318.128 238.686 318.11 238.777C318.099 238.833 317.837 240.176 317.355 241.765C317.315 241.898 317.199 241.987 317.067 241.987C317.023 241.987 316.98 241.977 316.939 241.957C316.804 241.891 316.737 241.711 316.787 241.545C317.118 240.444 317.346 239.452 317.453 238.958C317.475 238.856 317.448 238.749 317.381 238.672C317.124 238.376 316.705 237.951 316.166 237.609C316.022 237.518 315.837 237.567 315.75 237.718C315.666 237.868 315.712 238.064 315.855 238.155C316.275 238.422 316.618 238.753 316.828 238.981C316.713 239.503 316.503 240.384 316.211 241.35C316.068 241.825 316.272 242.336 316.687 242.536C316.81 242.595 316.938 242.625 317.069 242.625Z" fill="white"/>
<path id="Vector_14" d="M313.337 242.624C313.574 242.624 313.812 242.526 313.989 242.333C314.24 242.058 315.512 240.64 315.867 239.633C315.913 239.505 315.951 239.342 315.983 239.135C316.01 238.962 315.9 238.797 315.735 238.767C315.571 238.738 315.415 238.855 315.386 239.029C315.354 239.233 315.321 239.349 315.3 239.411C315.041 240.147 314.081 241.315 313.555 241.889C313.439 242.016 313.247 242.019 313.127 241.897C313.007 241.774 313.004 241.572 313.12 241.445C313.49 241.041 314.501 239.848 314.733 239.189C314.839 238.89 314.892 237.889 314.901 237.329C314.901 237.309 314.903 237.29 314.907 237.271C314.917 237.216 315.169 235.909 315.822 234.644C315.902 234.49 315.848 234.295 315.701 234.211C315.555 234.127 315.37 234.183 315.291 234.338C314.594 235.689 314.325 237.088 314.314 237.148C314.304 237.204 314.298 237.261 314.297 237.319C314.285 238.061 314.216 238.828 314.167 238.967C314.019 239.386 313.283 240.35 312.686 241.003C312.338 241.383 312.348 241.989 312.707 242.356C312.881 242.535 313.109 242.624 313.337 242.624Z" fill="white"/>
</g>
</g>
</g>
<g id="Frame 51_3">
<rect x="285.5" y="172.5" width="68" height="48" rx="3.5" stroke="white"/>
<text id="E. CL 503" transform="translate(303 191)" fill="white" xml:space="preserve" style="white-space: pre" font-family="Poppins" font-size="8" letter-spacing="0em"><tspan x="0.28125" y="8.8">E. CL 503</tspan></text>
</g>
<g id="Frame 53_2">
<rect x="285.5" y="117.5" width="68" height="48" rx="3.5" stroke="white"/>
<text id="E. CL 502" transform="translate(302 136)" fill="white" xml:space="preserve" style="white-space: pre" font-family="Poppins" font-size="8" letter-spacing="0em"><tspan x="0.335938" y="8.8">E. CL 502</tspan></text>
</g>
</g>
</g>
<defs>
<clipPath id="clip0_659_1226">
<rect width="10" height="10" fill="white" transform="translate(206 37)"/>
</clipPath>
<clipPath id="clip1_659_1226">
<rect width="12.9032" height="12.9032" fill="white" transform="matrix(-1 0 0 1 207.903 35)"/>
</clipPath>
<clipPath id="clip2_659_1226">
<rect width="22" height="120" rx="4" transform="matrix(0 -1 -1 0 240 412)" fill="white"/>
</clipPath>
<clipPath id="clip3_659_1226">
<rect width="91" height="120" rx="4" transform="matrix(0 -1 -1 0 240 312)" fill="white"/>
</clipPath>
<clipPath id="clip4_659_1226">
<rect width="22" height="120" rx="4" transform="matrix(0 -1 -1 0 240 140)" fill="white"/>
</clipPath>
<clipPath id="clip5_659_1226">
<rect width="10" height="10.5556" fill="white" transform="matrix(-1 0 0 1 40 396.801)"/>
</clipPath>
<clipPath id="clip6_659_1226">
<rect width="12.9032" height="13.6201" fill="white" transform="translate(38.0967 394.69)"/>
</clipPath>
<clipPath id="clip7_659_1226">
<rect x="6" y="384" width="35" height="69" rx="4" transform="rotate(-90 6 384)" fill="white"/>
</clipPath>
<clipPath id="clip8_659_1226">
<rect width="55" height="69" rx="4" transform="matrix(0 -1 -1 0 75 341)" fill="white"/>
</clipPath>
<clipPath id="clip9_659_1226">
<rect width="41" height="69" rx="4" transform="matrix(0 -1 -1 0 75 278)" fill="white"/>
</clipPath>
<clipPath id="clip10_659_1226">
<rect width="41" height="69" rx="4" transform="matrix(0 -1 -1 0 75 229)" fill="white"/>
</clipPath>
<clipPath id="clip11_659_1226">
<rect x="285" y="411" width="19" height="69" rx="4" transform="rotate(-90 285 411)" fill="white"/>
</clipPath>
<clipPath id="clip12_659_1226">
<rect width="10" height="10" fill="white" transform="translate(319.951 397.048)"/>
</clipPath>
<clipPath id="clip13_659_1226">
<rect width="12.9032" height="12.9032" fill="white" transform="matrix(-1 0 0 1 321.854 395.048)"/>
</clipPath>
<clipPath id="clip14_659_1226">
<rect width="10" height="10.5556" fill="white" transform="translate(320 231.222)"/>
</clipPath>
<clipPath id="clip15_659_1226">
<rect width="12.9032" height="13.6201" fill="white" transform="matrix(-1 0 0 1 321.903 229.111)"/>
</clipPath>
</defs>
</svg>
