<svg width="360" height="534" viewBox="0 0 360 534" fill="none" xmlns="http://www.w3.org/2000/svg">
<g id="Fourth Floor">
<rect x="0.5" y="0.5" width="359" height="533" rx="7.5" fill="#2B2B2B"/>
<rect x="0.5" y="0.5" width="359" height="533" rx="7.5" stroke="white"/>
<g id="Frame 45">
<g id="Frame 40">
<rect x="6.5" y="7.5" width="119" height="68" rx="3.5" stroke="white"/>
<text id="Faculty Area 402" fill="white" xml:space="preserve" style="white-space: pre" font-family="Urbanist" font-size="8" letter-spacing="0em"><tspan x="37.1836" y="44.8">Faculty Area 402</tspan></text>
</g>
<g id="Frame 42">
<rect x="132" y="7" width="45" height="69" rx="4" fill="#4B4B4B"/>
<path id="Vector" d="M151.676 43.875V50.5H148.912V43.875V43.375H148.412H147.5V38.65C147.5 37.8767 148.128 37.25 148.882 37.25H151.706C152.461 37.25 153.088 37.8767 153.088 38.65V43.375H152.176H151.676V43.875ZM162.309 44.8H160.176H159.676V45.3V50.5H157.853V45.3V44.8H157.353H155.221L157.395 38.2081L157.395 38.2066C157.582 37.6332 158.115 37.25 158.708 37.25H158.821C159.41 37.25 159.938 37.6293 160.135 38.21L162.309 44.8ZM151.676 33.9C151.676 34.6828 151.058 35.3 150.294 35.3C149.53 35.3 148.912 34.6828 148.912 33.9C148.912 33.1172 149.53 32.5 150.294 32.5C151.058 32.5 151.676 33.1172 151.676 33.9ZM160.147 33.9C160.147 34.6828 159.529 35.3 158.765 35.3C158.001 35.3 157.382 34.6828 157.382 33.9C157.382 33.1172 158.001 32.5 158.765 32.5C159.529 32.5 160.147 33.1172 160.147 33.9Z" stroke="white"/>
</g>
<g id="Frame 43">
<rect x="183" y="7" width="45" height="69" rx="4" fill="#4B4B4B"/>
<g id="Exit-icons">
<g id="streamline:interface-logout-arrow-exit-frame-leave-logout-rectangle-right" clip-path="url(#clip0_659_1077)">
<path id="Vector_2" d="M212.786 44.5V45.9286C212.786 46.118 212.711 46.2997 212.577 46.4337C212.443 46.5676 212.261 46.6429 212.072 46.6429H207.072C206.882 46.6429 206.701 46.5676 206.567 46.4337C206.433 46.2997 206.357 46.118 206.357 45.9286L206.5 38C206.5 37.8106 206.433 37.7003 206.567 37.5664C206.701 37.4324 206.882 37.3572 207.072 37.3572H212.072C212.261 37.3572 212.443 37.4324 212.577 37.5664C212.711 37.7003 212.786 37.882 212.786 38.0715V39.5M210.643 42H215.643M215.643 42L214.215 40.5715M215.643 42L214.215 43.4286" stroke="white" stroke-width="0.7" stroke-linecap="round" stroke-linejoin="round"/>
</g>
<g id="Frame 50">
<rect width="5.16129" height="3.87097" transform="translate(204.032 39.5161)" fill="#4B4B4B"/>
</g>
<g id="Fire Run Away" clip-path="url(#clip1_659_1077)">
<path id="Vector_3" d="M204.663 38.4808C205.385 38.4808 205.973 37.8931 205.973 37.1703C205.973 36.4476 205.385 35.8599 204.663 35.8599C203.94 35.8599 203.352 36.4476 203.352 37.1703C203.352 37.8931 203.94 38.4808 204.663 38.4808ZM204.663 36.4647C205.052 36.4647 205.368 36.7812 205.368 37.1703C205.368 37.5595 205.052 37.876 204.663 37.876C204.273 37.876 203.957 37.5595 203.957 37.1703C203.957 36.7812 204.273 36.4647 204.663 36.4647ZM203.069 47.8024C203.465 47.8024 203.812 47.5484 203.933 47.1714C204.424 45.6361 204.693 44.3326 204.704 44.2782C204.756 44.0212 204.696 43.754 204.537 43.5453C204.518 43.5212 204.111 42.9929 203.443 42.4647C203.593 42.129 203.817 41.6643 204.083 41.2087C204.089 41.2218 204.096 41.2349 204.102 41.248L204.394 41.8699C204.544 42.1865 204.865 42.3911 205.216 42.3911C205.343 42.3911 205.467 42.3649 205.584 42.3125L207.263 41.5665C207.489 41.4657 207.662 41.2822 207.746 41.0504C207.832 40.8185 207.82 40.5675 207.712 40.3437C207.501 39.9062 206.959 39.7157 206.503 39.9183L205.654 40.2964C205.252 39.5524 204.607 38.9758 203.817 38.6593C203.062 38.3568 202.217 38.3195 201.438 38.5534C200.622 38.8044 199.903 39.3246 199.411 40.0191L198.876 40.7732C198.736 40.9718 198.682 41.2117 198.723 41.4506C198.764 41.6895 198.896 41.8982 199.094 42.0373C199.275 42.1653 199.496 42.2218 199.716 42.1976C199.882 42.1794 200.002 42.0302 199.984 41.8639C199.966 41.6976 199.816 41.5786 199.65 41.5958C199.577 41.6038 199.503 41.5847 199.443 41.5423C199.377 41.496 199.333 41.4264 199.319 41.3468C199.305 41.2671 199.323 41.1875 199.37 41.121L199.904 40.3669C200.319 39.7833 200.926 39.3437 201.612 39.133C202.258 38.9395 202.962 38.9708 203.591 39.2218C204.3 39.505 204.869 40.0423 205.195 40.7328L205.236 40.8195C205.307 40.9687 205.482 41.0333 205.632 40.9667L206.747 40.4708C206.908 40.3992 207.096 40.4597 207.166 40.6058C207.202 40.6804 207.206 40.7641 207.177 40.8417C207.148 40.9193 207.091 40.9808 207.015 41.0141L205.336 41.7601C205.189 41.8256 205.007 41.756 204.94 41.6129L204.647 40.9909C204.558 40.8004 204.441 40.6199 204.301 40.4556C204.239 40.383 204.146 40.3447 204.052 40.3498C203.957 40.3558 203.87 40.4062 203.818 40.4859C203.374 41.1603 203.014 41.9224 202.791 42.4425C202.735 42.5726 202.776 42.7228 202.89 42.8064C203.604 43.3276 204.037 43.8901 204.055 43.9133C204.108 43.9828 204.128 44.0716 204.11 44.1572C204.099 44.2107 203.837 45.4828 203.355 46.9879C203.315 47.1139 203.199 47.1986 203.067 47.1986C203.023 47.1986 202.98 47.1885 202.939 47.1703C202.804 47.1078 202.737 46.9365 202.787 46.7792C203.118 45.7369 203.346 44.7964 203.453 44.3286C203.475 44.2318 203.448 44.131 203.381 44.0574C203.124 43.7772 202.705 43.375 202.166 43.0504C202.022 42.9647 201.837 43.0111 201.75 43.1542C201.666 43.2964 201.712 43.4818 201.855 43.5685C202.275 43.8205 202.618 44.1351 202.828 44.3508C202.713 44.8447 202.503 45.6794 202.211 46.5947C202.068 47.0453 202.272 47.5292 202.687 47.7187C202.81 47.7742 202.938 47.8024 203.069 47.8024Z" fill="white"/>
<path id="Vector_4" d="M199.337 47.8023C199.574 47.8023 199.812 47.7096 199.989 47.5261C200.24 47.266 201.512 45.9223 201.867 44.9687C201.913 44.8467 201.951 44.6924 201.983 44.4969C202.01 44.3326 201.9 44.1763 201.735 44.1481C201.571 44.1209 201.415 44.2318 201.386 44.3961C201.354 44.5896 201.321 44.6995 201.3 44.758C201.041 45.4555 200.081 46.5614 199.555 47.1057C199.439 47.2257 199.247 47.2287 199.127 47.1128C199.007 46.9969 199.004 46.8053 199.12 46.6854C199.49 46.3023 200.501 45.1723 200.733 44.5473C200.839 44.264 200.892 43.3164 200.901 42.7852C200.901 42.767 200.903 42.7489 200.907 42.7307C200.917 42.6783 201.169 41.4404 201.822 40.2418C201.902 40.0957 201.848 39.9112 201.701 39.8316C201.555 39.7519 201.37 39.8053 201.291 39.9525C200.594 41.2318 200.325 42.5574 200.314 42.6138C200.304 42.6672 200.298 42.7217 200.297 42.7761C200.285 43.4787 200.216 44.2055 200.167 44.3376C200.019 44.7348 199.283 45.6481 198.686 46.266C198.338 46.6259 198.348 47.2005 198.707 47.5483C198.881 47.7176 199.109 47.8023 199.337 47.8023Z" fill="white"/>
</g>
</g>
</g>
<g id="Frame 41">
<rect x="234.5" y="7.5" width="119" height="68" rx="3.5" stroke="white"/>
<text id="Faculty Area 401" fill="white" xml:space="preserve" style="white-space: pre" font-family="Urbanist" font-size="8" letter-spacing="0em"><tspan x="266.305" y="44.8">Faculty Area 401</tspan></text>
</g>
</g>
<g id="Frame 46">
<g id="Frame 55">
<g id="Frame 43_2">
<rect x="6.5" y="458.5" width="67" height="68" rx="3.5" stroke="white"/>
<text id="E. CR 402" fill="white" xml:space="preserve" style="white-space: pre" font-family="Poppins" font-size="8" letter-spacing="0em"><tspan x="22.125" y="495.8">E. CR 402</tspan></text>
</g>
<g id="Frame 44">
<rect x="80.5" y="458.5" width="67" height="68" rx="3.5" stroke="white"/>
<text id="E. CR 401" fill="white" xml:space="preserve" style="white-space: pre" font-family="Poppins" font-size="8" letter-spacing="0em"><tspan x="97.1445" y="495.8">E. CR 401</tspan></text>
</g>
</g>
<g id="Frame 56">
<g id="Frame 46_2">
<rect x="215.5" y="458.5" width="41" height="68" rx="3.5" stroke="white"/>
<text id="E. CL 408" fill="white" xml:space="preserve" style="white-space: pre" font-family="Poppins" font-size="8" letter-spacing="0em"><tspan x="219.109" y="495.8">E. CL 408</tspan></text>
</g>
<g id="Frame 47">
<rect x="263.5" y="458.5" width="41" height="68" rx="3.5" stroke="white"/>
<text id="E. CL 407" fill="white" xml:space="preserve" style="white-space: pre" font-family="Poppins" font-size="8" letter-spacing="0em"><tspan x="267.449" y="495.8">E. CL 407</tspan></text>
</g>
<g id="Frame 45_2">
<rect x="311.5" y="458.5" width="41" height="68" rx="3.5" stroke="white"/>
<text id="E. TR 401" fill="white" xml:space="preserve" style="white-space: pre" font-family="Poppins" font-size="8" letter-spacing="0em"><tspan x="316.07" y="495.8">E. TR 401</tspan></text>
</g>
</g>
</g>
<g id="Frame 51">
<g id="Frame 50_2">
<g clip-path="url(#clip2_659_1077)">
<rect x="285" y="412" width="19" height="69" rx="4" transform="rotate(-90 285 412)" fill="#4B4B4B"/>
<g id="Exit-icons_2">
<g id="streamline:interface-logout-arrow-exit-frame-leave-logout-rectangle-right_2" clip-path="url(#clip3_659_1077)">
<path id="Vector_5" d="M326.737 405.548V406.977C326.737 407.166 326.662 407.348 326.528 407.482C326.394 407.616 326.212 407.691 326.023 407.691H321.023C320.833 407.691 320.652 407.616 320.518 407.482C320.384 407.348 320.309 407.166 320.309 406.977L320.452 399.048C320.452 398.859 320.384 398.749 320.518 398.615C320.652 398.481 320.833 398.406 321.023 398.406H326.023C326.212 398.406 326.394 398.481 326.528 398.615C326.662 398.749 326.737 398.93 326.737 399.12V400.548M324.594 403.048H329.594M329.594 403.048L328.166 401.62M329.594 403.048L328.166 404.477" stroke="white" stroke-width="0.7" stroke-linecap="round" stroke-linejoin="round"/>
</g>
<g id="Frame 50_3">
<rect width="5.16129" height="3.87097" transform="translate(317.983 400.564)" fill="#4B4B4B"/>
</g>
<g id="Fire Run Away_2" clip-path="url(#clip4_659_1077)">
<path id="Vector_6" d="M318.614 399.529C319.337 399.529 319.924 398.941 319.924 398.219C319.924 397.496 319.337 396.908 318.614 396.908C317.891 396.908 317.303 397.496 317.303 398.219C317.303 398.941 317.891 399.529 318.614 399.529ZM318.614 397.513C319.003 397.513 319.319 397.83 319.319 398.219C319.319 398.608 319.003 398.924 318.614 398.924C318.225 398.924 317.908 398.608 317.908 398.219C317.908 397.83 318.225 397.513 318.614 397.513ZM317.02 408.851C317.416 408.851 317.763 408.597 317.884 408.22C318.375 406.684 318.644 405.381 318.655 405.327C318.708 405.069 318.647 404.802 318.488 404.594C318.47 404.569 318.062 404.041 317.394 403.513C317.544 403.177 317.768 402.713 318.034 402.257C318.04 402.27 318.047 402.283 318.053 402.296L318.346 402.918C318.495 403.235 318.816 403.439 319.167 403.439C319.294 403.439 319.418 403.413 319.535 403.361L321.215 402.615C321.44 402.514 321.613 402.331 321.697 402.099C321.783 401.867 321.771 401.616 321.663 401.392C321.452 400.955 320.91 400.764 320.454 400.967L319.605 401.345C319.203 400.601 318.558 400.024 317.768 399.708C317.013 399.405 316.168 399.368 315.389 399.602C314.573 399.853 313.854 400.373 313.362 401.067L312.827 401.822C312.687 402.02 312.633 402.26 312.674 402.499C312.716 402.738 312.848 402.947 313.045 403.086C313.227 403.214 313.447 403.27 313.667 403.246C313.834 403.228 313.953 403.079 313.935 402.912C313.917 402.746 313.767 402.627 313.602 402.644C313.528 402.652 313.454 402.633 313.394 402.591C313.328 402.544 313.284 402.475 313.27 402.395C313.256 402.315 313.274 402.236 313.321 402.169L313.855 401.415C314.27 400.832 314.877 400.392 315.563 400.181C316.21 399.988 316.913 400.019 317.542 400.27C318.251 400.553 318.82 401.091 319.146 401.781L319.187 401.868C319.258 402.017 319.433 402.082 319.584 402.015L320.698 401.519C320.859 401.448 321.047 401.508 321.117 401.654C321.153 401.729 321.157 401.812 321.128 401.89C321.1 401.968 321.042 402.029 320.967 402.062L319.287 402.808C319.14 402.874 318.959 402.804 318.891 402.661L318.599 402.039C318.509 401.849 318.392 401.668 318.252 401.504C318.19 401.431 318.098 401.393 318.003 401.398C317.908 401.404 317.821 401.455 317.769 401.534C317.325 402.209 316.966 402.971 316.742 403.491C316.686 403.621 316.728 403.771 316.842 403.855C317.555 404.376 317.988 404.938 318.006 404.962C318.059 405.031 318.079 405.12 318.061 405.206C318.05 405.259 317.788 406.531 317.306 408.036C317.266 408.162 317.15 408.247 317.018 408.247C316.975 408.247 316.931 408.237 316.89 408.219C316.755 408.156 316.688 407.985 316.738 407.828C317.069 406.785 317.297 405.845 317.404 405.377C317.426 405.28 317.399 405.179 317.333 405.106C317.075 404.826 316.656 404.423 316.117 404.099C315.974 404.013 315.788 404.059 315.701 404.203C315.617 404.345 315.663 404.53 315.806 404.617C316.227 404.869 316.569 405.183 316.779 405.399C316.664 405.893 316.454 406.728 316.162 407.643C316.019 408.094 316.224 408.578 316.638 408.767C316.761 408.823 316.889 408.851 317.02 408.851Z" fill="white"/>
<path id="Vector_7" d="M313.288 408.851C313.525 408.851 313.763 408.758 313.94 408.574C314.191 408.314 315.464 406.971 315.818 406.017C315.864 405.895 315.902 405.741 315.934 405.545C315.962 405.381 315.851 405.225 315.686 405.196C315.522 405.169 315.366 405.28 315.338 405.444C315.305 405.638 315.272 405.748 315.251 405.806C314.992 406.504 314.032 407.61 313.506 408.154C313.39 408.274 313.198 408.277 313.079 408.161C312.959 408.045 312.956 407.854 313.071 407.734C313.441 407.351 314.453 406.221 314.684 405.596C314.79 405.312 314.844 404.365 314.852 403.834C314.852 403.815 314.854 403.797 314.858 403.779C314.868 403.727 315.12 402.489 315.773 401.29C315.853 401.144 315.799 400.96 315.652 400.88C315.506 400.8 315.321 400.854 315.242 401.001C314.545 402.28 314.276 403.606 314.265 403.662C314.255 403.716 314.249 403.77 314.248 403.824C314.236 404.527 314.167 405.254 314.118 405.386C313.971 405.783 313.234 406.696 312.637 407.314C312.289 407.674 312.299 408.249 312.658 408.597C312.833 408.766 313.06 408.851 313.288 408.851Z" fill="white"/>
</g>
</g>
</g>
</g>
<g id="Frame 52">
<rect x="285.5" y="323.5" width="68" height="63" rx="3.5" stroke="white"/>
<text id="E. CR 404" transform="translate(302 350)" fill="white" xml:space="preserve" style="white-space: pre" font-family="Poppins" font-size="8" letter-spacing="0em"><tspan x="0.410156" y="8.8">E. CR 404</tspan></text>
</g>
<g id="Frame 44_2">
<rect x="285.5" y="253.5" width="68" height="63" rx="3.5" stroke="white"/>
<text id="E. CR 403" transform="translate(302 280)" fill="white" xml:space="preserve" style="white-space: pre" font-family="Poppins" font-size="8" letter-spacing="0em"><tspan x="0.0703125" y="8.8">E. CR 403</tspan></text>
</g>
<g id="Group 1261153515">
<g id="Frame 50_4">
<rect x="285" y="247" width="19" height="69" rx="4" transform="rotate(-90 285 247)" fill="#4B4B4B"/>
</g>
<g id="Exit-icons_3">
<g id="streamline:interface-logout-arrow-exit-frame-leave-logout-rectangle-right_3" clip-path="url(#clip5_659_1077)">
<path id="Vector_8" d="M326.786 240.139V241.647C326.786 241.847 326.711 242.038 326.577 242.18C326.443 242.321 326.261 242.401 326.072 242.401H321.072C320.882 242.401 320.701 242.321 320.567 242.18C320.433 242.038 320.357 241.847 320.357 241.647L320.5 233.278C320.5 233.078 320.433 232.961 320.567 232.82C320.701 232.679 320.882 232.599 321.072 232.599H326.072C326.261 232.599 326.443 232.679 326.577 232.82C326.711 232.961 326.786 233.153 326.786 233.353V234.861M324.643 237.5H329.643M329.643 237.5L328.215 235.992M329.643 237.5L328.215 239.008" stroke="white" stroke-width="0.7" stroke-linecap="round" stroke-linejoin="round"/>
</g>
<g id="Frame 50_5">
<rect width="5.16129" height="4.08602" transform="translate(318.032 234.878)" fill="#4B4B4B"/>
</g>
<g id="Fire Run Away_3" clip-path="url(#clip6_659_1077)">
<path id="Vector_9" d="M318.663 233.785C319.385 233.785 319.973 233.165 319.973 232.402C319.973 231.639 319.385 231.019 318.663 231.019C317.94 231.019 317.352 231.639 317.352 232.402C317.352 233.165 317.94 233.785 318.663 233.785ZM318.663 231.657C319.052 231.657 319.368 231.991 319.368 232.402C319.368 232.813 319.052 233.147 318.663 233.147C318.273 233.147 317.957 232.813 317.957 232.402C317.957 231.991 318.273 231.657 318.663 231.657ZM317.069 243.625C317.465 243.625 317.812 243.357 317.933 242.959C318.424 241.338 318.693 239.962 318.704 239.905C318.756 239.633 318.696 239.352 318.537 239.131C318.518 239.106 318.111 238.548 317.443 237.991C317.593 237.636 317.817 237.146 318.083 236.665C318.089 236.679 318.096 236.692 318.102 236.706L318.394 237.363C318.544 237.697 318.865 237.913 319.216 237.913C319.343 237.913 319.467 237.885 319.584 237.83L321.263 237.042C321.489 236.936 321.662 236.742 321.746 236.498C321.832 236.253 321.82 235.988 321.712 235.752C321.501 235.29 320.959 235.089 320.503 235.303L319.654 235.702C319.252 234.916 318.607 234.308 317.817 233.974C317.062 233.654 316.217 233.615 315.438 233.862C314.622 234.127 313.903 234.676 313.411 235.409L312.876 236.205C312.736 236.415 312.682 236.668 312.723 236.92C312.764 237.172 312.896 237.393 313.094 237.539C313.275 237.675 313.496 237.734 313.716 237.709C313.882 237.689 314.002 237.532 313.984 237.356C313.966 237.181 313.816 237.055 313.65 237.073C313.577 237.082 313.503 237.062 313.443 237.017C313.377 236.968 313.333 236.895 313.319 236.811C313.305 236.726 313.323 236.642 313.37 236.572L313.904 235.776C314.319 235.16 314.926 234.696 315.612 234.474C316.258 234.27 316.962 234.303 317.591 234.567C318.3 234.866 318.869 235.434 319.195 236.163L319.236 236.254C319.307 236.411 319.482 236.48 319.632 236.409L320.747 235.886C320.908 235.81 321.096 235.874 321.166 236.028C321.202 236.107 321.206 236.195 321.177 236.277C321.148 236.359 321.091 236.424 321.015 236.459L319.336 237.247C319.189 237.316 319.007 237.243 318.94 237.091L318.647 236.435C318.558 236.234 318.441 236.043 318.301 235.87C318.239 235.793 318.146 235.753 318.052 235.758C317.957 235.765 317.87 235.818 317.818 235.902C317.374 236.614 317.014 237.418 316.791 237.967C316.735 238.104 316.776 238.263 316.89 238.351C317.604 238.901 318.037 239.495 318.055 239.52C318.108 239.593 318.128 239.687 318.11 239.777C318.099 239.834 317.837 241.176 317.355 242.765C317.315 242.898 317.199 242.987 317.067 242.987C317.023 242.987 316.98 242.977 316.939 242.958C316.804 242.892 316.737 242.711 316.787 242.545C317.118 241.445 317.346 240.452 317.453 239.958C317.475 239.856 317.448 239.749 317.381 239.672C317.124 239.376 316.705 238.951 316.166 238.609C316.022 238.518 315.837 238.567 315.75 238.718C315.666 238.868 315.712 239.064 315.855 239.156C316.275 239.422 316.618 239.754 316.828 239.981C316.713 240.503 316.503 241.384 316.211 242.35C316.068 242.826 316.272 243.336 316.687 243.536C316.81 243.595 316.938 243.625 317.069 243.625Z" fill="white"/>
<path id="Vector_10" d="M313.337 243.625C313.574 243.625 313.812 243.527 313.989 243.333C314.24 243.059 315.512 241.64 315.867 240.634C315.913 240.505 315.951 240.342 315.983 240.136C316.01 239.962 315.9 239.797 315.735 239.767C315.571 239.739 315.415 239.856 315.386 240.029C315.354 240.233 315.321 240.349 315.3 240.411C315.041 241.147 314.081 242.315 313.555 242.889C313.439 243.016 313.247 243.019 313.127 242.897C313.007 242.774 313.004 242.572 313.12 242.446C313.49 242.041 314.501 240.848 314.733 240.189C314.839 239.89 314.892 238.89 314.901 238.329C314.901 238.31 314.903 238.29 314.907 238.271C314.917 238.216 315.169 236.909 315.822 235.644C315.902 235.49 315.848 235.295 315.701 235.211C315.555 235.127 315.37 235.183 315.291 235.339C314.594 236.689 314.325 238.088 314.314 238.148C314.304 238.204 314.298 238.262 314.297 238.319C314.285 239.061 314.216 239.828 314.167 239.967C314.019 240.387 313.283 241.351 312.686 242.003C312.338 242.383 312.348 242.989 312.707 243.356C312.881 243.535 313.109 243.625 313.337 243.625Z" fill="white"/>
</g>
</g>
</g>
<g id="Frame 51_2">
<rect x="285.5" y="173.5" width="68" height="48" rx="3.5" stroke="white"/>
<text id="DE LAB" transform="translate(307 192)" fill="white" xml:space="preserve" style="white-space: pre" font-family="Poppins" font-size="8" letter-spacing="0em"><tspan x="0.179688" y="8.8">DE LAB</tspan></text>
</g>
<g id="Frame 53">
<rect x="285.5" y="118.5" width="68" height="48" rx="3.5" stroke="white"/>
<text id="ES LAB" transform="translate(307 137)" fill="white" xml:space="preserve" style="white-space: pre" font-family="Poppins" font-size="8" letter-spacing="0em"><tspan x="0.160156" y="8.8">ES LAB</tspan></text>
</g>
</g>
<g id="Frame 48">
<g id="Group 1261153515_2">
<g id="Frame 50_6">
<rect x="6" y="412" width="18" height="69" rx="4" transform="rotate(-90 6 412)" fill="#4B4B4B"/>
</g>
<g id="Exit-icons_4">
<g id="streamline:interface-logout-arrow-exit-frame-leave-logout-rectangle-right_4" clip-path="url(#clip7_659_1077)">
<path id="Vector_11" d="M33.214 406.048V407.477C33.214 407.666 33.2893 407.848 33.4232 407.982C33.5572 408.116 33.7389 408.191 33.9283 408.191H38.9283C39.1177 408.191 39.2994 408.116 39.4334 407.982C39.5673 407.848 39.6426 407.666 39.6426 407.477L39.4995 399.548C39.4995 399.359 39.5673 399.249 39.4334 399.115C39.2994 398.981 39.1177 398.906 38.9283 398.906H33.9283C33.7389 398.906 33.5572 398.981 33.4232 399.115C33.2893 399.249 33.214 399.43 33.214 399.62V401.048M35.3569 403.548H30.3569M30.3569 403.548L31.7854 402.12M30.3569 403.548L31.7854 404.977" stroke="white" stroke-width="0.7" stroke-linecap="round" stroke-linejoin="round"/>
</g>
<g id="Frame 50_7">
<rect width="5.16129" height="3.87097" transform="matrix(-1 0 0 1 41.9678 401.064)" fill="#4B4B4B"/>
</g>
<g id="Fire Run Away_4" clip-path="url(#clip8_659_1077)">
<path id="Vector_12" d="M41.3374 400.029C40.6146 400.029 40.0269 399.441 40.0269 398.719C40.0269 397.996 40.6146 397.408 41.3374 397.408C42.0602 397.408 42.6479 397.996 42.6479 398.719C42.6479 399.441 42.0602 400.029 41.3374 400.029ZM41.3374 398.013C40.9483 398.013 40.6318 398.33 40.6318 398.719C40.6318 399.108 40.9483 399.424 41.3374 399.424C41.7265 399.424 42.0431 399.108 42.0431 398.719C42.0431 398.33 41.7265 398.013 41.3374 398.013ZM42.9312 409.351C42.535 409.351 42.1882 409.097 42.0673 408.72C41.5763 407.184 41.3072 405.881 41.2961 405.827C41.2437 405.569 41.3042 405.302 41.4634 405.094C41.4816 405.069 41.8888 404.541 42.5572 404.013C42.407 403.677 42.1832 403.213 41.9171 402.757C41.911 402.77 41.904 402.783 41.8979 402.796L41.6056 403.418C41.4564 403.735 41.1348 403.939 40.784 403.939C40.657 403.939 40.533 403.913 40.416 403.861L38.7366 403.115C38.5108 403.014 38.3384 402.831 38.2538 402.599C38.1681 402.367 38.1802 402.116 38.288 401.892C38.4987 401.455 39.041 401.264 39.4967 401.467L40.3465 401.845C40.7477 401.101 41.3929 400.524 42.1832 400.208C42.9382 399.905 43.783 399.868 44.5622 400.102C45.3777 400.353 46.0975 400.873 46.5894 401.567L47.1237 402.322C47.2638 402.52 47.3183 402.76 47.2769 402.999C47.2356 403.238 47.1035 403.447 46.906 403.586C46.7245 403.714 46.5037 403.77 46.284 403.746C46.1177 403.728 45.9977 403.579 46.0158 403.412C46.034 403.246 46.1842 403.127 46.3495 403.144C46.4231 403.152 46.4967 403.133 46.5572 403.091C46.6227 403.044 46.6671 402.975 46.6812 402.895C46.6953 402.815 46.6771 402.736 46.6298 402.669L46.0965 401.915C45.6812 401.332 45.0743 400.892 44.3878 400.681C43.7417 400.488 43.038 400.519 42.409 400.77C41.7003 401.053 41.1308 401.591 40.8052 402.281L40.7638 402.368C40.6933 402.517 40.5179 402.582 40.3677 402.515L39.2527 402.019C39.0925 401.948 38.904 402.008 38.8344 402.154C38.7981 402.229 38.7941 402.312 38.8233 402.39C38.8515 402.468 38.909 402.529 38.9846 402.562L40.664 403.308C40.8112 403.374 40.9927 403.304 41.0602 403.161L41.3525 402.539C41.4423 402.349 41.5592 402.168 41.6993 402.004C41.7608 401.931 41.8535 401.893 41.9483 401.898C42.0431 401.904 42.1298 401.955 42.1822 402.034C42.6257 402.709 42.9856 403.471 43.2094 403.991C43.2648 404.121 43.2235 404.271 43.1096 404.355C42.3959 404.876 41.9634 405.438 41.9453 405.462C41.8919 405.531 41.8717 405.62 41.8898 405.706C41.9009 405.759 42.163 407.031 42.6449 408.536C42.6852 408.662 42.8011 408.747 42.9332 408.747C42.9765 408.747 43.0199 408.737 43.0612 408.719C43.1963 408.656 43.2628 408.485 43.2134 408.328C42.8818 407.285 42.654 406.345 42.5471 405.877C42.5249 405.78 42.5521 405.679 42.6187 405.606C42.8757 405.326 43.2951 404.923 43.8344 404.599C43.9775 404.513 44.163 404.559 44.2497 404.703C44.3344 404.845 44.288 405.03 44.1449 405.117C43.7245 405.369 43.3818 405.683 43.1721 405.899C43.287 406.393 43.4967 407.228 43.789 408.143C43.9322 408.594 43.7275 409.078 43.3132 409.267C43.1902 409.323 43.0622 409.351 42.9312 409.351Z" fill="white"/>
<path id="Vector_13" d="M46.663 409.351C46.4261 409.351 46.1882 409.258 46.0108 409.074C45.7597 408.814 44.4876 407.471 44.1327 406.517C44.0874 406.395 44.0491 406.241 44.0168 406.045C43.9896 405.881 44.1005 405.725 44.2648 405.696C44.4291 405.669 44.5854 405.78 44.6136 405.944C44.6458 406.138 44.6791 406.248 44.7003 406.306C44.9593 407.004 45.919 408.11 46.4452 408.654C46.5612 408.774 46.7527 408.777 46.8726 408.661C46.9926 408.545 46.9956 408.354 46.8797 408.234C46.5097 407.851 45.4987 406.721 45.2668 406.096C45.161 405.812 45.1075 404.865 45.0995 404.334C45.0995 404.315 45.0974 404.297 45.0934 404.279C45.0833 404.227 44.8313 402.989 44.1781 401.79C44.0985 401.644 44.1519 401.46 44.2991 401.38C44.4452 401.3 44.6297 401.354 44.7093 401.501C45.4059 402.78 45.6751 404.106 45.6862 404.162C45.6962 404.216 45.7023 404.27 45.7033 404.324C45.7154 405.027 45.7839 405.754 45.8333 405.886C45.9805 406.283 46.7174 407.196 47.3142 407.814C47.662 408.174 47.6519 408.749 47.293 409.097C47.1186 409.266 46.8908 409.351 46.663 409.351Z" fill="white"/>
</g>
</g>
</g>
<g id="Frame 51_3">
<g clip-path="url(#clip9_659_1077)">
<rect x="6" y="388" width="36" height="69" rx="4" transform="rotate(-90 6 388)" fill="#4B4B4B"/>
<path id="Vector_14" d="M37.6765 372.875V379.5H34.9118V372.875V372.375H34.4118H33.5V367.65C33.5 366.877 34.1276 366.25 34.8824 366.25H37.7059C38.4606 366.25 39.0882 366.877 39.0882 367.65V372.375H38.1765H37.6765V372.875ZM48.3086 373.8H46.1765H45.6765V374.3V379.5H43.8529V374.3V373.8H43.3529H41.2208L43.3948 367.208L43.3953 367.207C43.5824 366.633 44.1153 366.25 44.7082 366.25H44.8212C45.4096 366.25 45.938 366.629 46.1352 367.21L48.3086 373.8ZM37.6765 362.9C37.6765 363.683 37.0583 364.3 36.2941 364.3C35.5299 364.3 34.9118 363.683 34.9118 362.9C34.9118 362.117 35.5299 361.5 36.2941 361.5C37.0583 361.5 37.6765 362.117 37.6765 362.9ZM46.1471 362.9C46.1471 363.683 45.5289 364.3 44.7647 364.3C44.0005 364.3 43.3824 363.683 43.3824 362.9C43.3824 362.117 44.0005 361.5 44.7647 361.5C45.5289 361.5 46.1471 362.117 46.1471 362.9Z" stroke="white"/>
</g>
</g>
<g id="Frame 52_2">
<g clip-path="url(#clip10_659_1077)">
<rect x="-0.5" y="-0.5" width="32" height="68" rx="3.5" transform="matrix(0 -1 -1 0 74 345)" stroke="white"/>
<text id="E. CL 401" transform="translate(25 325)" fill="white" xml:space="preserve" style="white-space: pre" font-family="Poppins" font-size="8" letter-spacing="0em"><tspan x="0.351562" y="8.8">E. CL 401</tspan></text>
</g>
</g>
<g id="Frame 54">
<g clip-path="url(#clip11_659_1077)">
<rect x="-0.5" y="-0.5" width="32" height="68" rx="3.5" transform="matrix(0 -1 -1 0 74 306)" stroke="white"/>
<text id="E. CL 402" transform="translate(24 284)" fill="white" xml:space="preserve" style="white-space: pre" font-family="Poppins" font-size="8" letter-spacing="0em"><tspan x="0.332031" y="8.8">E. CL 402</tspan></text>
</g>
</g>
<g id="Frame 55_2">
<g clip-path="url(#clip12_659_1077)">
<rect x="-0.5" y="-0.5" width="32" height="68" rx="3.5" transform="matrix(0 -1 -1 0 74 267)" stroke="white"/>
<text id="E. CL 403" transform="translate(24 245)" fill="white" xml:space="preserve" style="white-space: pre" font-family="Poppins" font-size="8" letter-spacing="0em"><tspan x="0.277344" y="8.8">E. CL 403</tspan></text>
</g>
</g>
<g id="Frame 56_2">
<g clip-path="url(#clip13_659_1077)">
<rect x="-0.5" y="-0.5" width="32" height="68" rx="3.5" transform="matrix(0 -1 -1 0 74 228)" stroke="white"/>
<text id="E. CL 404" transform="translate(24 206)" fill="white" xml:space="preserve" style="white-space: pre" font-family="Poppins" font-size="8" letter-spacing="0em"><tspan x="0.117188" y="8.8">E. CL 404</tspan></text>
</g>
</g>
<g id="Frame 57">
<g clip-path="url(#clip14_659_1077)">
<rect x="-0.5" y="-0.5" width="32" height="68" rx="3.5" transform="matrix(0 -1 -1 0 74 189)" stroke="white"/>
<text id="E. CL 405" transform="translate(24 167)" fill="white" xml:space="preserve" style="white-space: pre" font-family="Poppins" font-size="8" letter-spacing="0em"><tspan x="0.121094" y="8.8">E. CL 405</tspan></text>
</g>
</g>
<g id="Frame 58">
<g clip-path="url(#clip15_659_1077)">
<rect x="-0.5" y="-0.5" width="32" height="68" rx="3.5" transform="matrix(0 -1 -1 0 74 150)" stroke="white"/>
<text id="E. CL 406" transform="translate(24 128)" fill="white" xml:space="preserve" style="white-space: pre" font-family="Poppins" font-size="8" letter-spacing="0em"><tspan x="0.09375" y="8.8">E. CL 406</tspan></text>
</g>
</g>
</g>
<g id="Frame 49">
<g id="Frame 45_3">
<g clip-path="url(#clip16_659_1077)">
<rect width="22" height="120" rx="4" transform="matrix(0 -1 -1 0 240 412)" fill="#2B2B2B"/>
<text id="Lift" fill="white" xml:space="preserve" style="white-space: pre" font-family="Poppins" font-size="11" letter-spacing="0em"><tspan x="172.459" y="404.85">Lift</tspan></text>
</g>
<rect x="-0.5" y="-0.5" width="21" height="119" rx="3.5" transform="matrix(0 -1 -1 0 239 411)" stroke="white"/>
</g>
<g id="Frame 53_2">
<g id="Frame 45_4">
<rect x="183.5" y="318.5" width="56" height="65" rx="3.5" stroke="white"/>
<text id="E. CR 405" transform="translate(194 345)" fill="white" xml:space="preserve" style="white-space: pre" font-family="Poppins" font-size="8" letter-spacing="0em"><tspan x="0.414062" y="8.8">E. CR 405</tspan></text>
</g>
<g id="Frame 44_3">
<rect x="120.5" y="318.5" width="56" height="65" rx="3.5" stroke="white"/>
<text id="E. CR 406" transform="translate(131 345)" fill="white" xml:space="preserve" style="white-space: pre" font-family="Poppins" font-size="8" letter-spacing="0em"><tspan x="0.386719" y="8.8">E. CR 406</tspan></text>
</g>
</g>
<g id="Frame 49_2">
<g clip-path="url(#clip17_659_1077)">
<rect width="91" height="120" rx="4" transform="matrix(0 -1 -1 0 240 312)" fill="#23A6F0"/>
<text id="Floor 4" fill="white" xml:space="preserve" style="white-space: pre" font-family="Poppins" font-size="20" letter-spacing="0em"><tspan x="147.021" y="273.5">Floor 4</tspan></text>
</g>
</g>
<g id="Frame 54_2">
<g id="Frame 45_5">
<rect x="183.5" y="146.5" width="56" height="68" rx="3.5" stroke="white"/>
<text id="E. CR 408" transform="translate(194 175)" fill="white" xml:space="preserve" style="white-space: pre" font-family="Poppins" font-size="8" letter-spacing="0em"><tspan x="0.402344" y="8.8">E. CR 408</tspan></text>
</g>
<g id="Frame 44_4">
<rect x="120.5" y="146.5" width="56" height="68" rx="3.5" stroke="white"/>
<text id="E. CR 407" transform="translate(131 175)" fill="white" xml:space="preserve" style="white-space: pre" font-family="Poppins" font-size="8" letter-spacing="0em"><tspan x="0.242188" y="8.8">E. CR 407</tspan></text>
</g>
</g>
<g id="Frame 48_2">
<g clip-path="url(#clip18_659_1077)">
<rect width="22" height="120" rx="4" transform="matrix(0 -1 -1 0 240 140)" fill="#2B2B2B"/>
<text id="Lift_2" fill="white" xml:space="preserve" style="white-space: pre" font-family="Poppins" font-size="11" letter-spacing="0em"><tspan x="172.459" y="132.85">Lift</tspan></text>
</g>
<rect x="-0.5" y="-0.5" width="21" height="119" rx="3.5" transform="matrix(0 -1 -1 0 239 139)" stroke="white"/>
</g>
</g>
<path id="Arrow 5" d="M179.646 114.354C179.842 114.549 180.158 114.549 180.354 114.354L183.536 111.172C183.731 110.976 183.731 110.66 183.536 110.464C183.34 110.269 183.024 110.269 182.828 110.464L180 113.293L177.172 110.464C176.976 110.269 176.66 110.269 176.464 110.464C176.269 110.66 176.269 110.976 176.464 111.172L179.646 114.354ZM179.5 105L179.5 114L180.5 114L180.5 105L179.5 105Z" fill="white"/>
<text id="Bhagubhai Lift Entrance" fill="white" xml:space="preserve" style="white-space: pre" font-family="Inter" font-size="8" letter-spacing="0em"><tspan x="134.297" y="99.4091">Bhagubhai Lift Entrance</tspan></text>
<text id="Cooper Lift Entrance" fill="white" xml:space="preserve" style="white-space: pre" font-family="Inter" font-size="8" letter-spacing="0em"><tspan x="140.391" y="441.409">Cooper Lift Entrance</tspan></text>
<path id="Arrow 8" d="M180.354 420.646C180.158 420.451 179.842 420.451 179.646 420.646L176.464 423.828C176.269 424.024 176.269 424.34 176.464 424.536C176.66 424.731 176.976 424.731 177.172 424.536L180 421.707L182.828 424.536C183.024 424.731 183.34 424.731 183.536 424.536C183.731 424.34 183.731 424.024 183.536 423.828L180.354 420.646ZM180.5 430L180.5 421L179.5 421L179.5 430L180.5 430Z" fill="white"/>
</g>
<defs>
<clipPath id="clip0_659_1077">
<rect width="10" height="10" fill="white" transform="translate(206 37)"/>
</clipPath>
<clipPath id="clip1_659_1077">
<rect width="12.9032" height="12.9032" fill="white" transform="matrix(-1 0 0 1 207.903 35)"/>
</clipPath>
<clipPath id="clip2_659_1077">
<rect x="285" y="412" width="19" height="69" rx="4" transform="rotate(-90 285 412)" fill="white"/>
</clipPath>
<clipPath id="clip3_659_1077">
<rect width="10" height="10" fill="white" transform="translate(319.951 398.048)"/>
</clipPath>
<clipPath id="clip4_659_1077">
<rect width="12.9032" height="12.9032" fill="white" transform="matrix(-1 0 0 1 321.854 396.048)"/>
</clipPath>
<clipPath id="clip5_659_1077">
<rect width="10" height="10.5556" fill="white" transform="translate(320 232.222)"/>
</clipPath>
<clipPath id="clip6_659_1077">
<rect width="12.9032" height="13.6201" fill="white" transform="matrix(-1 0 0 1 321.903 230.111)"/>
</clipPath>
<clipPath id="clip7_659_1077">
<rect width="10" height="10" fill="white" transform="matrix(-1 0 0 1 40 398.548)"/>
</clipPath>
<clipPath id="clip8_659_1077">
<rect width="12.9032" height="12.9032" fill="white" transform="translate(38.0967 396.548)"/>
</clipPath>
<clipPath id="clip9_659_1077">
<rect x="6" y="388" width="36" height="69" rx="4" transform="rotate(-90 6 388)" fill="white"/>
</clipPath>
<clipPath id="clip10_659_1077">
<rect width="33" height="69" rx="4" transform="matrix(0 -1 -1 0 75 346)" fill="white"/>
</clipPath>
<clipPath id="clip11_659_1077">
<rect width="33" height="69" rx="4" transform="matrix(0 -1 -1 0 75 307)" fill="white"/>
</clipPath>
<clipPath id="clip12_659_1077">
<rect width="33" height="69" rx="4" transform="matrix(0 -1 -1 0 75 268)" fill="white"/>
</clipPath>
<clipPath id="clip13_659_1077">
<rect width="33" height="69" rx="4" transform="matrix(0 -1 -1 0 75 229)" fill="white"/>
</clipPath>
<clipPath id="clip14_659_1077">
<rect width="33" height="69" rx="4" transform="matrix(0 -1 -1 0 75 190)" fill="white"/>
</clipPath>
<clipPath id="clip15_659_1077">
<rect width="33" height="69" rx="4" transform="matrix(0 -1 -1 0 75 151)" fill="white"/>
</clipPath>
<clipPath id="clip16_659_1077">
<rect width="22" height="120" rx="4" transform="matrix(0 -1 -1 0 240 412)" fill="white"/>
</clipPath>
<clipPath id="clip17_659_1077">
<rect width="91" height="120" rx="4" transform="matrix(0 -1 -1 0 240 312)" fill="white"/>
</clipPath>
<clipPath id="clip18_659_1077">
<rect width="22" height="120" rx="4" transform="matrix(0 -1 -1 0 240 140)" fill="white"/>
</clipPath>
</defs>
</svg>
