<svg width="360" height="534" viewBox="0 0 360 534" fill="none" xmlns="http://www.w3.org/2000/svg">
<g >
<rect x="0.5" y="0.5" width="359" height="533" rx="7.5" fill="#2B2B2B"/>
<rect x="0.5" y="0.5" width="359" height="533" rx="7.5" stroke="white"/>
<g id="Frame 46">
<g id="Frame 43">
<rect x="6.5" y="458.5" width="75" height="68" rx="3.5" stroke="white"/>
<text id="Services" fill="white" xml:space="preserve" style="white-space: pre" font-family="Poppins" font-size="8" letter-spacing="0em"><tspan x="27.4531" y="495.8">Services</tspan></text>
</g>
<g id="Frame 50">
<g clip-path="url(#clip0_659_949)">
<rect x="106" y="527" width="18" height="69" rx="4" transform="rotate(-180 106 527)" fill="#4B4B4B"/>
<g id="Exit-icons">
<g id="streamline:interface-logout-arrow-exit-frame-leave-logout-rectangle-right" clip-path="url(#clip1_659_949)">
<path id="Vector" d="M102.092 495.099V496.317C102.092 496.478 102.024 496.633 101.902 496.747C101.781 496.862 101.617 496.926 101.445 496.926H96.9216C96.7503 496.926 96.5859 496.862 96.4647 496.747C96.3435 496.633 96.2754 496.478 96.2754 496.317L96.4048 489.558C96.4048 489.396 96.3435 489.302 96.4647 489.188C96.5859 489.074 96.7503 489.01 96.9216 489.01H101.445C101.617 489.01 101.781 489.074 101.902 489.188C102.024 489.302 102.092 489.457 102.092 489.619V490.837M100.153 492.968H104.677M104.677 492.968L103.384 491.75M104.677 492.968L103.384 494.186" stroke="white" stroke-width="0.7" stroke-linecap="round" stroke-linejoin="round"/>
</g>
<g id="Frame 50_2">
<rect width="4.66974" height="3.3" transform="translate(94.1719 490.85)" fill="#4B4B4B"/>
</g>
<g id="Fire Run Away" clip-path="url(#clip2_659_949)">
<path id="Vector_2" d="M94.7429 489.967C95.3968 489.967 95.9286 489.466 95.9286 488.85C95.9286 488.234 95.3968 487.733 94.7429 487.733C94.0889 487.733 93.5572 488.234 93.5572 488.85C93.5572 489.466 94.0889 489.967 94.7429 489.967ZM94.7429 488.249C95.0949 488.249 95.3813 488.518 95.3813 488.85C95.3813 489.182 95.0949 489.452 94.7429 489.452C94.3908 489.452 94.1045 489.182 94.1045 488.85C94.1045 488.518 94.3908 488.249 94.7429 488.249ZM93.3009 497.914C93.6594 497.914 93.9731 497.697 94.0826 497.376C94.5267 496.067 94.7703 494.956 94.7803 494.91C94.8277 494.69 94.773 494.463 94.6289 494.285C94.6125 494.264 94.244 493.814 93.6393 493.364C93.7752 493.077 93.9777 492.681 94.2185 492.293C94.2239 492.304 94.2303 492.315 94.2358 492.326L94.5003 492.857C94.6353 493.126 94.9262 493.301 95.2436 493.301C95.3585 493.301 95.4707 493.278 95.5765 493.234L97.096 492.598C97.3003 492.512 97.4563 492.355 97.5329 492.158C97.6104 491.96 97.5995 491.746 97.5019 491.555C97.3112 491.182 96.8206 491.02 96.4083 491.193L95.6394 491.515C95.2764 490.881 94.6927 490.389 93.9777 490.119C93.2945 489.862 92.5302 489.83 91.8252 490.029C91.0874 490.243 90.4362 490.687 89.9911 491.279L89.5077 491.922C89.3809 492.091 89.3317 492.295 89.369 492.499C89.4064 492.703 89.5259 492.881 89.7047 492.999C89.8689 493.108 90.0686 493.156 90.2674 493.136C90.4179 493.12 90.5264 492.993 90.51 492.851C90.4936 492.71 90.3577 492.608 90.2081 492.623C90.1416 492.63 90.075 492.613 90.0203 492.577C89.961 492.538 89.9208 492.478 89.9081 492.41C89.8953 492.343 89.9117 492.275 89.9546 492.218L90.4371 491.575C90.8128 491.078 91.3619 490.703 91.983 490.523C92.5676 490.358 93.2043 490.385 93.7734 490.599C94.4146 490.84 94.9299 491.298 95.2245 491.887L95.2619 491.961C95.3257 492.088 95.4844 492.143 95.6203 492.087L96.629 491.664C96.774 491.603 96.9446 491.654 97.0075 491.779C97.0404 491.842 97.044 491.914 97.0176 491.98C96.992 492.046 96.94 492.099 96.8716 492.127L95.3521 492.763C95.219 492.819 95.0548 492.759 94.9937 492.637L94.7292 492.107C94.648 491.945 94.5422 491.791 94.4155 491.651C94.3598 491.589 94.2759 491.556 94.1902 491.561C94.1045 491.566 94.026 491.609 93.9786 491.677C93.5773 492.252 93.2517 492.901 93.0492 493.345C92.999 493.455 93.0364 493.584 93.1395 493.655C93.7852 494.099 94.1765 494.579 94.1929 494.598C94.2413 494.658 94.2595 494.733 94.2431 494.806C94.2331 494.852 93.9959 495.937 93.56 497.22C93.5235 497.327 93.4186 497.399 93.2991 497.399C93.2599 497.399 93.2207 497.391 93.1833 497.375C93.0611 497.322 93.0009 497.176 93.0456 497.042C93.3456 496.153 93.5517 495.351 93.6484 494.953C93.6685 494.87 93.6439 494.784 93.5837 494.721C93.3511 494.482 92.9717 494.14 92.4837 493.863C92.3542 493.79 92.1864 493.829 92.108 493.951C92.0313 494.073 92.0733 494.231 92.2028 494.305C92.5831 494.519 92.8932 494.788 93.0829 494.971C92.979 495.393 92.7893 496.104 92.5248 496.884C92.3953 497.269 92.5804 497.681 92.9553 497.843C93.0665 497.89 93.1824 497.914 93.3009 497.914Z" fill="white"/>
<path id="Vector_3" d="M89.9244 497.914C90.1387 497.914 90.354 497.835 90.5145 497.678C90.7416 497.457 91.8926 496.311 92.2137 495.498C92.2547 495.394 92.2894 495.263 92.3185 495.096C92.3432 494.956 92.2428 494.823 92.0942 494.799C91.9455 494.775 91.8041 494.87 91.7786 495.01C91.7494 495.175 91.7193 495.269 91.7002 495.319C91.4658 495.913 90.5975 496.856 90.1214 497.32C90.0165 497.422 89.8432 497.425 89.7347 497.326C89.6262 497.227 89.6234 497.064 89.7283 496.962C90.063 496.635 90.9778 495.672 91.1876 495.139C91.2834 494.898 91.3317 494.09 91.339 493.637C91.339 493.621 91.3408 493.606 91.3445 493.59C91.3536 493.546 91.5816 492.49 92.1726 491.469C92.2447 491.344 92.1963 491.187 92.0632 491.119C91.9309 491.051 91.764 491.096 91.692 491.222C91.0617 492.313 90.8182 493.443 90.8082 493.491C90.7991 493.536 90.7936 493.583 90.7927 493.629C90.7817 494.228 90.7197 494.848 90.675 494.96C90.5419 495.299 89.8751 496.077 89.3352 496.604C89.0205 496.911 89.0297 497.401 89.3544 497.697C89.5121 497.842 89.7183 497.914 89.9244 497.914Z" fill="white"/>
</g>
</g>
</g>
</g>
<g id="Frame 44">
<rect x="112.5" y="458.5" width="100" height="68" rx="3.5" stroke="white"/>
<text id="Electrical Panel Room" fill="white" xml:space="preserve" style="white-space: pre" font-family="Poppins" font-size="8" letter-spacing="0em"><tspan x="132.395" y="489.8">Electrical Panel&#10;</tspan><tspan x="150.828" y="501.8">Room</tspan></text>
</g>
<g id="Frame 56">
<g clip-path="url(#clip3_659_949)">
<rect x="237" y="527" width="18" height="69" rx="4" transform="rotate(-180 237 527)" fill="#4B4B4B"/>
<g id="Exit-icons_2">
<g id="streamline:interface-logout-arrow-exit-frame-leave-logout-rectangle-right_2" clip-path="url(#clip4_659_949)">
<path id="Vector_4" d="M233.092 495.099V496.317C233.092 496.478 233.024 496.633 232.902 496.747C232.781 496.862 232.617 496.926 232.445 496.926H227.922C227.75 496.926 227.586 496.862 227.465 496.747C227.343 496.633 227.275 496.478 227.275 496.317L227.405 489.558C227.405 489.396 227.343 489.302 227.465 489.188C227.586 489.074 227.75 489.01 227.922 489.01H232.445C232.617 489.01 232.781 489.074 232.902 489.188C233.024 489.302 233.092 489.457 233.092 489.619V490.837M231.153 492.968H235.677M235.677 492.968L234.384 491.75M235.677 492.968L234.384 494.186" stroke="white" stroke-width="0.7" stroke-linecap="round" stroke-linejoin="round"/>
</g>
<g id="Frame 50_3">
<rect width="4.66974" height="3.3" transform="translate(225.172 490.85)" fill="#4B4B4B"/>
</g>
<g id="Fire Run Away_2" clip-path="url(#clip5_659_949)">
<path id="Vector_5" d="M225.743 489.967C226.397 489.967 226.929 489.466 226.929 488.85C226.929 488.234 226.397 487.733 225.743 487.733C225.089 487.733 224.557 488.234 224.557 488.85C224.557 489.466 225.089 489.967 225.743 489.967ZM225.743 488.249C226.095 488.249 226.381 488.518 226.381 488.85C226.381 489.182 226.095 489.452 225.743 489.452C225.391 489.452 225.104 489.182 225.104 488.85C225.104 488.518 225.391 488.249 225.743 488.249ZM224.301 497.914C224.659 497.914 224.973 497.697 225.083 497.376C225.527 496.067 225.77 494.956 225.78 494.91C225.828 494.69 225.773 494.463 225.629 494.285C225.612 494.264 225.244 493.814 224.639 493.364C224.775 493.077 224.978 492.681 225.218 492.293C225.224 492.304 225.23 492.315 225.236 492.326L225.5 492.857C225.635 493.126 225.926 493.301 226.244 493.301C226.359 493.301 226.471 493.278 226.577 493.234L228.096 492.598C228.3 492.512 228.456 492.355 228.533 492.158C228.61 491.96 228.599 491.746 228.502 491.555C228.311 491.182 227.821 491.02 227.408 491.193L226.639 491.515C226.276 490.881 225.693 490.389 224.978 490.119C224.295 489.862 223.53 489.83 222.825 490.029C222.087 490.243 221.436 490.687 220.991 491.279L220.508 491.922C220.381 492.091 220.332 492.295 220.369 492.499C220.406 492.703 220.526 492.881 220.705 492.999C220.869 493.108 221.069 493.156 221.267 493.136C221.418 493.12 221.526 492.993 221.51 492.851C221.494 492.71 221.358 492.608 221.208 492.623C221.142 492.63 221.075 492.613 221.02 492.577C220.961 492.538 220.921 492.478 220.908 492.41C220.895 492.343 220.912 492.275 220.955 492.218L221.437 491.575C221.813 491.078 222.362 490.703 222.983 490.523C223.568 490.358 224.204 490.385 224.773 490.599C225.415 490.84 225.93 491.298 226.224 491.887L226.262 491.961C226.326 492.088 226.484 492.143 226.62 492.087L227.629 491.664C227.774 491.603 227.945 491.654 228.008 491.779C228.04 491.842 228.044 491.914 228.018 491.98C227.992 492.046 227.94 492.099 227.872 492.127L226.352 492.763C226.219 492.819 226.055 492.759 225.994 492.637L225.729 492.107C225.648 491.945 225.542 491.791 225.415 491.651C225.36 491.589 225.276 491.556 225.19 491.561C225.104 491.566 225.026 491.609 224.979 491.677C224.577 492.252 224.252 492.901 224.049 493.345C223.999 493.455 224.036 493.584 224.139 493.655C224.785 494.099 225.177 494.579 225.193 494.598C225.241 494.658 225.26 494.733 225.243 494.806C225.233 494.852 224.996 495.937 224.56 497.22C224.523 497.327 224.419 497.399 224.299 497.399C224.26 497.399 224.221 497.391 224.183 497.375C224.061 497.322 224.001 497.176 224.046 497.042C224.346 496.153 224.552 495.351 224.648 494.953C224.668 494.87 224.644 494.784 224.584 494.721C224.351 494.482 223.972 494.14 223.484 493.863C223.354 493.79 223.186 493.829 223.108 493.951C223.031 494.073 223.073 494.231 223.203 494.305C223.583 494.519 223.893 494.788 224.083 494.971C223.979 495.393 223.789 496.104 223.525 496.884C223.395 497.269 223.58 497.681 223.955 497.843C224.067 497.89 224.182 497.914 224.301 497.914Z" fill="white"/>
<path id="Vector_6" d="M220.924 497.914C221.139 497.914 221.354 497.835 221.514 497.678C221.742 497.457 222.893 496.311 223.214 495.498C223.255 495.394 223.289 495.263 223.319 495.096C223.343 494.956 223.243 494.823 223.094 494.799C222.946 494.775 222.804 494.87 222.779 495.01C222.749 495.175 222.719 495.269 222.7 495.319C222.466 495.913 221.597 496.856 221.121 497.32C221.017 497.422 220.843 497.425 220.735 497.326C220.626 497.227 220.623 497.064 220.728 496.962C221.063 496.635 221.978 495.672 222.188 495.139C222.283 494.898 222.332 494.09 222.339 493.637C222.339 493.621 222.341 493.606 222.344 493.59C222.354 493.546 222.582 492.49 223.173 491.469C223.245 491.344 223.196 491.187 223.063 491.119C222.931 491.051 222.764 491.096 222.692 491.222C222.062 492.313 221.818 493.443 221.808 493.491C221.799 493.536 221.794 493.583 221.793 493.629C221.782 494.228 221.72 494.848 221.675 494.96C221.542 495.299 220.875 496.077 220.335 496.604C220.021 496.911 220.03 497.401 220.354 497.697C220.512 497.842 220.718 497.914 220.924 497.914Z" fill="white"/>
</g>
</g>
</g>
</g>
<g id="Frame 51">
<rect x="271" y="527" width="28" height="69" rx="4" transform="rotate(-180 271 527)" fill="#4B4B4B"/>
<path id="Vector_7" d="M254.176 494.375V501H251.412V494.375V493.875H250.912H250V489.15C250 488.377 250.628 487.75 251.382 487.75H254.206C254.961 487.75 255.588 488.377 255.588 489.15V493.875H254.676H254.176V494.375ZM264.809 495.3H262.676H262.176V495.8V501H260.353V495.8V495.3H259.853H257.721L259.895 488.708L259.895 488.707C260.082 488.133 260.615 487.75 261.208 487.75H261.321C261.91 487.75 262.438 488.129 262.635 488.71L264.809 495.3ZM254.176 484.4C254.176 485.183 253.558 485.8 252.794 485.8C252.03 485.8 251.412 485.183 251.412 484.4C251.412 483.617 252.03 483 252.794 483C253.558 483 254.176 483.617 254.176 484.4ZM262.647 484.4C262.647 485.183 262.029 485.8 261.265 485.8C260.501 485.8 259.882 485.183 259.882 484.4C259.882 483.617 260.501 483 261.265 483C262.029 483 262.647 483.617 262.647 484.4Z" stroke="white"/>
</g>
<g id="Frame 44_2">
<rect x="277.5" y="458.5" width="76" height="68" rx="3.5" stroke="white"/>
<text id="Maintenance Room" fill="white" xml:space="preserve" style="white-space: pre" font-family="Poppins" font-size="8" letter-spacing="0em"><tspan x="290.141" y="489.8">Maintenance&#10;</tspan><tspan x="304.828" y="501.8">Room</tspan></text>
</g>
</g>
<g id="Frame 47">
<g id="Frame 50_4">
<g clip-path="url(#clip6_659_949)">
<rect x="285" y="401" width="18" height="69" rx="4" transform="rotate(-90 285 401)" fill="#4B4B4B"/>
<g id="Exit-icons_3">
<g id="streamline:interface-logout-arrow-exit-frame-leave-logout-rectangle-right_3" clip-path="url(#clip7_659_949)">
<path id="Vector_8" d="M326.737 394.548V395.977C326.737 396.166 326.662 396.348 326.528 396.482C326.394 396.616 326.212 396.691 326.023 396.691H321.023C320.833 396.691 320.652 396.616 320.518 396.482C320.384 396.348 320.309 396.166 320.309 395.977L320.452 388.048C320.452 387.859 320.384 387.748 320.518 387.614C320.652 387.481 320.833 387.405 321.023 387.405H326.023C326.212 387.405 326.394 387.481 326.528 387.614C326.662 387.748 326.737 387.93 326.737 388.12V389.548M324.594 392.048H329.594M329.594 392.048L328.166 390.62M329.594 392.048L328.166 393.477" stroke="white" stroke-width="0.7" stroke-linecap="round" stroke-linejoin="round"/>
</g>
<g id="Frame 50_5">
<rect width="5.16129" height="3.87097" transform="translate(317.983 389.564)" fill="#4B4B4B"/>
</g>
<g id="Fire Run Away_3" clip-path="url(#clip8_659_949)">
<path id="Vector_9" d="M318.614 388.529C319.337 388.529 319.924 387.941 319.924 387.219C319.924 386.496 319.337 385.908 318.614 385.908C317.891 385.908 317.303 386.496 317.303 387.219C317.303 387.941 317.891 388.529 318.614 388.529ZM318.614 386.513C319.003 386.513 319.319 386.83 319.319 387.219C319.319 387.608 319.003 387.924 318.614 387.924C318.225 387.924 317.908 387.608 317.908 387.219C317.908 386.83 318.225 386.513 318.614 386.513ZM317.02 397.851C317.416 397.851 317.763 397.597 317.884 397.22C318.375 395.684 318.644 394.381 318.655 394.327C318.708 394.069 318.647 393.802 318.488 393.594C318.47 393.569 318.062 393.041 317.394 392.513C317.544 392.177 317.768 391.713 318.034 391.257C318.04 391.27 318.047 391.283 318.053 391.296L318.346 391.918C318.495 392.235 318.816 392.439 319.167 392.439C319.294 392.439 319.418 392.413 319.535 392.361L321.215 391.615C321.44 391.514 321.613 391.331 321.697 391.099C321.783 390.867 321.771 390.616 321.663 390.392C321.452 389.955 320.91 389.764 320.454 389.967L319.605 390.345C319.203 389.601 318.558 389.024 317.768 388.708C317.013 388.405 316.168 388.368 315.389 388.602C314.573 388.853 313.854 389.373 313.362 390.067L312.827 390.822C312.687 391.02 312.633 391.26 312.674 391.499C312.716 391.738 312.848 391.947 313.045 392.086C313.227 392.214 313.447 392.27 313.667 392.246C313.834 392.228 313.953 392.079 313.935 391.912C313.917 391.746 313.767 391.627 313.602 391.644C313.528 391.652 313.454 391.633 313.394 391.591C313.328 391.544 313.284 391.475 313.27 391.395C313.256 391.315 313.274 391.236 313.321 391.169L313.855 390.415C314.27 389.832 314.877 389.392 315.563 389.181C316.21 388.988 316.913 389.019 317.542 389.27C318.251 389.553 318.82 390.091 319.146 390.781L319.187 390.868C319.258 391.017 319.433 391.082 319.584 391.015L320.698 390.519C320.859 390.448 321.047 390.508 321.117 390.654C321.153 390.729 321.157 390.812 321.128 390.89C321.1 390.968 321.042 391.029 320.967 391.062L319.287 391.808C319.14 391.874 318.959 391.804 318.891 391.661L318.599 391.039C318.509 390.849 318.392 390.668 318.252 390.504C318.19 390.431 318.098 390.393 318.003 390.398C317.908 390.404 317.821 390.455 317.769 390.534C317.325 391.209 316.966 391.971 316.742 392.491C316.686 392.621 316.728 392.771 316.842 392.855C317.555 393.376 317.988 393.938 318.006 393.962C318.059 394.031 318.079 394.12 318.061 394.206C318.05 394.259 317.788 395.531 317.306 397.036C317.266 397.162 317.15 397.247 317.018 397.247C316.975 397.247 316.931 397.237 316.89 397.219C316.755 397.156 316.688 396.985 316.738 396.828C317.069 395.785 317.297 394.845 317.404 394.377C317.426 394.28 317.399 394.179 317.333 394.106C317.075 393.826 316.656 393.423 316.117 393.099C315.974 393.013 315.788 393.059 315.701 393.203C315.617 393.345 315.663 393.53 315.806 393.617C316.227 393.869 316.569 394.183 316.779 394.399C316.664 394.893 316.454 395.728 316.162 396.643C316.019 397.094 316.224 397.578 316.638 397.767C316.761 397.823 316.889 397.851 317.02 397.851Z" fill="white"/>
<path id="Vector_10" d="M313.288 397.851C313.525 397.851 313.763 397.758 313.94 397.575C314.191 397.315 315.464 395.971 315.818 395.017C315.864 394.895 315.902 394.741 315.934 394.545C315.962 394.381 315.851 394.225 315.686 394.197C315.522 394.169 315.366 394.28 315.338 394.445C315.305 394.638 315.272 394.748 315.251 394.807C314.992 395.504 314.032 396.61 313.506 397.154C313.39 397.274 313.198 397.277 313.079 397.161C312.959 397.045 312.956 396.854 313.071 396.734C313.441 396.351 314.453 395.221 314.684 394.596C314.79 394.313 314.844 393.365 314.852 392.834C314.852 392.816 314.854 392.797 314.858 392.779C314.868 392.727 315.12 391.489 315.773 390.29C315.853 390.144 315.799 389.96 315.652 389.88C315.506 389.801 315.321 389.854 315.242 390.001C314.545 391.28 314.276 392.606 314.265 392.662C314.255 392.716 314.249 392.77 314.248 392.825C314.236 393.527 314.167 394.254 314.118 394.386C313.971 394.783 313.234 395.697 312.637 396.315C312.289 396.674 312.299 397.249 312.658 397.597C312.833 397.766 313.06 397.851 313.288 397.851Z" fill="white"/>
</g>
</g>
</g>
</g>
<g id="Frame 51_2">
<g clip-path="url(#clip9_659_949)">
<rect x="285" y="377" width="32" height="69" rx="4" transform="rotate(-90 285 377)" fill="#4B4B4B"/>
<path id="Vector_11" d="M316.676 363.875V370.5H313.912V363.875V363.375H313.412H312.5V358.65C312.5 357.877 313.128 357.25 313.882 357.25H316.706C317.461 357.25 318.088 357.877 318.088 358.65V363.375H317.176H316.676V363.875ZM327.309 364.8H325.176H324.676V365.3V370.5H322.853V365.3V364.8H322.353H320.221L322.395 358.208L322.395 358.207C322.582 357.633 323.115 357.25 323.708 357.25H323.821C324.41 357.25 324.938 357.629 325.135 358.21L327.309 364.8ZM316.676 353.9C316.676 354.683 316.058 355.3 315.294 355.3C314.53 355.3 313.912 354.683 313.912 353.9C313.912 353.117 314.53 352.5 315.294 352.5C316.058 352.5 316.676 353.117 316.676 353.9ZM325.147 353.9C325.147 354.683 324.529 355.3 323.765 355.3C323.001 355.3 322.382 354.683 322.382 353.9C322.382 353.117 323.001 352.5 323.765 352.5C324.529 352.5 325.147 353.117 325.147 353.9Z" stroke="white"/>
</g>
</g>
<g id="Group 1261153515">
<g id="Frame 50_6">
<rect x="285" y="339" width="18" height="69" rx="4" transform="rotate(-90 285 339)" fill="#4B4B4B"/>
</g>
<g id="Exit-icons_4">
<g id="streamline:interface-logout-arrow-exit-frame-leave-logout-rectangle-right_4" clip-path="url(#clip10_659_949)">
<path id="Vector_12" d="M326.786 332.5V333.928C326.786 334.118 326.711 334.299 326.577 334.433C326.443 334.567 326.261 334.643 326.072 334.643H321.072C320.882 334.643 320.701 334.567 320.567 334.433C320.433 334.299 320.357 334.118 320.357 333.928L320.5 326C320.5 325.81 320.433 325.7 320.567 325.566C320.701 325.432 320.882 325.357 321.072 325.357H326.072C326.261 325.357 326.443 325.432 326.577 325.566C326.711 325.7 326.786 325.882 326.786 326.071V327.5M324.643 330H329.643M329.643 330L328.215 328.571M329.643 330L328.215 331.428" stroke="white" stroke-width="0.7" stroke-linecap="round" stroke-linejoin="round"/>
</g>
<g id="Frame 50_7">
<rect width="5.16129" height="3.87097" transform="translate(318.032 327.516)" fill="#4B4B4B"/>
</g>
<g id="Fire Run Away_4" clip-path="url(#clip11_659_949)">
<path id="Vector_13" d="M318.663 326.481C319.385 326.481 319.973 325.893 319.973 325.17C319.973 324.448 319.385 323.86 318.663 323.86C317.94 323.86 317.352 324.448 317.352 325.17C317.352 325.893 317.94 326.481 318.663 326.481ZM318.663 324.465C319.052 324.465 319.368 324.781 319.368 325.17C319.368 325.559 319.052 325.876 318.663 325.876C318.273 325.876 317.957 325.559 317.957 325.17C317.957 324.781 318.273 324.465 318.663 324.465ZM317.069 335.802C317.465 335.802 317.812 335.548 317.933 335.171C318.424 333.636 318.693 332.333 318.704 332.278C318.756 332.021 318.696 331.754 318.537 331.545C318.518 331.521 318.111 330.993 317.443 330.465C317.593 330.129 317.817 329.664 318.083 329.209C318.089 329.222 318.096 329.235 318.102 329.248L318.394 329.87C318.544 330.186 318.865 330.391 319.216 330.391C319.343 330.391 319.467 330.365 319.584 330.312L321.263 329.567C321.489 329.466 321.662 329.282 321.746 329.05C321.832 328.819 321.82 328.568 321.712 328.344C321.501 327.906 320.959 327.716 320.503 327.918L319.654 328.296C319.252 327.552 318.607 326.976 317.817 326.659C317.062 326.357 316.217 326.32 315.438 326.553C314.622 326.804 313.903 327.325 313.411 328.019L312.876 328.773C312.736 328.972 312.682 329.212 312.723 329.451C312.764 329.69 312.896 329.898 313.094 330.037C313.275 330.165 313.496 330.222 313.716 330.198C313.882 330.179 314.002 330.03 313.984 329.864C313.966 329.698 313.816 329.579 313.65 329.596C313.577 329.604 313.503 329.585 313.443 329.542C313.377 329.496 313.333 329.426 313.319 329.347C313.305 329.267 313.323 329.187 313.37 329.121L313.904 328.367C314.319 327.783 314.926 327.344 315.612 327.133C316.258 326.94 316.962 326.971 317.591 327.222C318.3 327.505 318.869 328.042 319.195 328.733L319.236 328.82C319.307 328.969 319.482 329.033 319.632 328.967L320.747 328.471C320.908 328.399 321.096 328.46 321.166 328.606C321.202 328.68 321.206 328.764 321.177 328.842C321.148 328.919 321.091 328.981 321.015 329.014L319.336 329.76C319.189 329.826 319.007 329.756 318.94 329.613L318.647 328.991C318.558 328.8 318.441 328.62 318.301 328.456C318.239 328.383 318.146 328.345 318.052 328.35C317.957 328.356 317.87 328.406 317.818 328.486C317.374 329.16 317.014 329.922 316.791 330.443C316.735 330.573 316.776 330.723 316.89 330.806C317.604 331.328 318.037 331.89 318.055 331.913C318.108 331.983 318.128 332.072 318.11 332.157C318.099 332.211 317.837 333.483 317.355 334.988C317.315 335.114 317.199 335.199 317.067 335.199C317.023 335.199 316.98 335.188 316.939 335.17C316.804 335.108 316.737 334.936 316.787 334.779C317.118 333.737 317.346 332.796 317.453 332.329C317.475 332.232 317.448 332.131 317.381 332.057C317.124 331.777 316.705 331.375 316.166 331.05C316.022 330.965 315.837 331.011 315.75 331.154C315.666 331.296 315.712 331.482 315.855 331.569C316.275 331.821 316.618 332.135 316.828 332.351C316.713 332.845 316.503 333.679 316.211 334.595C316.068 335.045 316.272 335.529 316.687 335.719C316.81 335.774 316.938 335.802 317.069 335.802Z" fill="white"/>
<path id="Vector_14" d="M313.337 335.803C313.574 335.803 313.812 335.71 313.989 335.526C314.24 335.266 315.512 333.923 315.867 332.969C315.913 332.847 315.951 332.693 315.983 332.497C316.01 332.333 315.9 332.177 315.735 332.148C315.571 332.121 315.415 332.232 315.386 332.396C315.354 332.59 315.321 332.7 315.3 332.758C315.041 333.456 314.081 334.562 313.555 335.106C313.439 335.226 313.247 335.229 313.127 335.113C313.007 334.997 313.004 334.806 313.12 334.686C313.49 334.303 314.501 333.173 314.733 332.548C314.839 332.264 314.892 331.317 314.901 330.785C314.901 330.767 314.903 330.749 314.907 330.731C314.917 330.679 315.169 329.441 315.822 328.242C315.902 328.096 315.848 327.911 315.701 327.832C315.555 327.752 315.37 327.806 315.291 327.953C314.594 329.232 314.325 330.558 314.314 330.614C314.304 330.667 314.298 330.722 314.297 330.776C314.285 331.479 314.216 332.206 314.167 332.338C314.019 332.735 313.283 333.648 312.686 334.266C312.338 334.626 312.348 335.201 312.707 335.549C312.881 335.718 313.109 335.803 313.337 335.803Z" fill="white"/>
</g>
</g>
</g>
<g id="Frame 52">
<rect x="285.5" y="314.5" width="73" height="68" rx="3.5" transform="rotate(-90 285.5 314.5)" fill="#2B2B2B"/>
<rect x="285.5" y="314.5" width="73" height="68" rx="3.5" transform="rotate(-90 285.5 314.5)" stroke="white"/>
<text id="Pantry" transform="translate(307 272)" fill="white" xml:space="preserve" style="white-space: pre" font-family="Poppins" font-size="8" letter-spacing="0em"><tspan x="0.21875" y="8.8">Pantry</tspan></text>
</g>
</g>
<g id="Frame 48">
<g id="Group 1261153515_2">
<g id="Frame 50_8">
<rect x="6" y="452" width="18" height="69" rx="4" transform="rotate(-90 6 452)" fill="#4B4B4B"/>
</g>
<g id="Exit-icons_5">
<g id="streamline:interface-logout-arrow-exit-frame-leave-logout-rectangle-right_5" clip-path="url(#clip12_659_949)">
<path id="Vector_15" d="M33.214 446.048V447.477C33.214 447.666 33.2893 447.848 33.4232 447.982C33.5572 448.116 33.7389 448.191 33.9283 448.191H38.9283C39.1177 448.191 39.2994 448.116 39.4334 447.982C39.5673 447.848 39.6426 447.666 39.6426 447.477L39.4995 439.548C39.4995 439.359 39.5673 439.248 39.4334 439.114C39.2994 438.981 39.1177 438.905 38.9283 438.905H33.9283C33.7389 438.905 33.5572 438.981 33.4232 439.114C33.2893 439.248 33.214 439.43 33.214 439.62V441.048M35.3569 443.548H30.3569M30.3569 443.548L31.7854 442.12M30.3569 443.548L31.7854 444.977" stroke="white" stroke-width="0.7" stroke-linecap="round" stroke-linejoin="round"/>
</g>
<g id="Frame 50_9">
<rect width="5.16129" height="3.87097" transform="matrix(-1 0 0 1 41.9678 441.064)" fill="#4B4B4B"/>
</g>
<g id="Fire Run Away_5" clip-path="url(#clip13_659_949)">
<path id="Vector_16" d="M41.3374 440.029C40.6146 440.029 40.0269 439.441 40.0269 438.719C40.0269 437.996 40.6146 437.408 41.3374 437.408C42.0602 437.408 42.6479 437.996 42.6479 438.719C42.6479 439.441 42.0602 440.029 41.3374 440.029ZM41.3374 438.013C40.9483 438.013 40.6318 438.33 40.6318 438.719C40.6318 439.108 40.9483 439.424 41.3374 439.424C41.7265 439.424 42.0431 439.108 42.0431 438.719C42.0431 438.33 41.7265 438.013 41.3374 438.013ZM42.9312 449.351C42.535 449.351 42.1882 449.097 42.0673 448.72C41.5763 447.184 41.3072 445.881 41.2961 445.827C41.2437 445.569 41.3042 445.302 41.4634 445.094C41.4816 445.069 41.8888 444.541 42.5572 444.013C42.407 443.677 42.1832 443.213 41.9171 442.757C41.911 442.77 41.904 442.783 41.8979 442.796L41.6056 443.418C41.4564 443.735 41.1348 443.939 40.784 443.939C40.657 443.939 40.533 443.913 40.416 443.861L38.7366 443.115C38.5108 443.014 38.3384 442.831 38.2538 442.599C38.1681 442.367 38.1802 442.116 38.288 441.892C38.4987 441.455 39.041 441.264 39.4967 441.467L40.3465 441.845C40.7477 441.101 41.3929 440.524 42.1832 440.208C42.9382 439.905 43.783 439.868 44.5622 440.102C45.3777 440.353 46.0975 440.873 46.5894 441.567L47.1237 442.322C47.2638 442.52 47.3183 442.76 47.2769 442.999C47.2356 443.238 47.1035 443.447 46.906 443.586C46.7245 443.714 46.5037 443.77 46.284 443.746C46.1177 443.728 45.9977 443.579 46.0158 443.412C46.034 443.246 46.1842 443.127 46.3495 443.144C46.4231 443.152 46.4967 443.133 46.5572 443.091C46.6227 443.044 46.6671 442.975 46.6812 442.895C46.6953 442.815 46.6771 442.736 46.6298 442.669L46.0965 441.915C45.6812 441.332 45.0743 440.892 44.3878 440.681C43.7417 440.488 43.038 440.519 42.409 440.77C41.7003 441.053 41.1308 441.591 40.8052 442.281L40.7638 442.368C40.6933 442.517 40.5179 442.582 40.3677 442.515L39.2527 442.019C39.0925 441.948 38.904 442.008 38.8344 442.154C38.7981 442.229 38.7941 442.312 38.8233 442.39C38.8515 442.468 38.909 442.529 38.9846 442.562L40.664 443.308C40.8112 443.374 40.9927 443.304 41.0602 443.161L41.3525 442.539C41.4423 442.349 41.5592 442.168 41.6993 442.004C41.7608 441.931 41.8535 441.893 41.9483 441.898C42.0431 441.904 42.1298 441.955 42.1822 442.034C42.6257 442.709 42.9856 443.471 43.2094 443.991C43.2648 444.121 43.2235 444.271 43.1096 444.355C42.3959 444.876 41.9634 445.438 41.9453 445.462C41.8919 445.531 41.8717 445.62 41.8898 445.706C41.9009 445.759 42.163 447.031 42.6449 448.536C42.6852 448.662 42.8011 448.747 42.9332 448.747C42.9765 448.747 43.0199 448.737 43.0612 448.719C43.1963 448.656 43.2628 448.485 43.2134 448.328C42.8818 447.285 42.654 446.345 42.5471 445.877C42.5249 445.78 42.5521 445.679 42.6187 445.606C42.8757 445.326 43.2951 444.923 43.8344 444.599C43.9775 444.513 44.163 444.559 44.2497 444.703C44.3344 444.845 44.288 445.03 44.1449 445.117C43.7245 445.369 43.3818 445.683 43.1721 445.899C43.287 446.393 43.4967 447.228 43.789 448.143C43.9322 448.594 43.7275 449.078 43.3132 449.267C43.1902 449.323 43.0622 449.351 42.9312 449.351Z" fill="white"/>
<path id="Vector_17" d="M46.663 449.351C46.4261 449.351 46.1882 449.258 46.0108 449.075C45.7597 448.815 44.4876 447.471 44.1327 446.517C44.0874 446.395 44.0491 446.241 44.0168 446.045C43.9896 445.881 44.1005 445.725 44.2648 445.697C44.4291 445.669 44.5854 445.78 44.6136 445.945C44.6458 446.138 44.6791 446.248 44.7003 446.307C44.9593 447.004 45.919 448.11 46.4452 448.654C46.5612 448.774 46.7527 448.777 46.8726 448.661C46.9926 448.545 46.9956 448.354 46.8797 448.234C46.5097 447.851 45.4987 446.721 45.2668 446.096C45.161 445.813 45.1075 444.865 45.0995 444.334C45.0995 444.316 45.0974 444.297 45.0934 444.279C45.0833 444.227 44.8313 442.989 44.1781 441.79C44.0985 441.644 44.1519 441.46 44.2991 441.38C44.4452 441.301 44.6297 441.354 44.7093 441.501C45.4059 442.78 45.6751 444.106 45.6862 444.162C45.6962 444.216 45.7023 444.27 45.7033 444.325C45.7154 445.027 45.7839 445.754 45.8333 445.886C45.9805 446.283 46.7174 447.197 47.3142 447.815C47.662 448.174 47.6519 448.749 47.293 449.097C47.1186 449.266 46.8908 449.351 46.663 449.351Z" fill="white"/>
</g>
</g>
</g>
<g id="Frame 51_3">
<g clip-path="url(#clip14_659_949)">
<rect x="6" y="428" width="42" height="69" rx="4" transform="rotate(-90 6 428)" fill="#4B4B4B"/>
<path id="Vector_18" d="M37.6765 409.875V416.5H34.9118V409.875V409.375H34.4118H33.5V404.65C33.5 403.877 34.1276 403.25 34.8824 403.25H37.7059C38.4606 403.25 39.0882 403.877 39.0882 404.65V409.375H38.1765H37.6765V409.875ZM48.3086 410.8H46.1765H45.6765V411.3V416.5H43.8529V411.3V410.8H43.3529H41.2208L43.3948 404.208L43.3953 404.207C43.5824 403.633 44.1153 403.25 44.7082 403.25H44.8212C45.4096 403.25 45.938 403.629 46.1352 404.21L48.3086 410.8ZM37.6765 399.9C37.6765 400.683 37.0583 401.3 36.2941 401.3C35.5299 401.3 34.9118 400.683 34.9118 399.9C34.9118 399.117 35.5299 398.5 36.2941 398.5C37.0583 398.5 37.6765 399.117 37.6765 399.9ZM46.1471 399.9C46.1471 400.683 45.5289 401.3 44.7647 401.3C44.0005 401.3 43.3824 400.683 43.3824 399.9C43.3824 399.117 44.0005 398.5 44.7647 398.5C45.5289 398.5 46.1471 399.117 46.1471 399.9Z" stroke="white"/>
</g>
</g>
<g id="Frame 56_2">
<rect x="-0.5" y="-0.5" width="71" height="68" rx="3.5" transform="matrix(0 -1 -1 0 74 379)" stroke="white"/>
<text id="E. CR LG 1" transform="translate(23 338)" fill="white" xml:space="preserve" style="white-space: pre" font-family="Poppins" font-size="8" letter-spacing="0em"><tspan x="0.265625" y="8.8">E. CR LG 1</tspan></text>
</g>
<g id="Frame 49">
<g clip-path="url(#clip15_659_949)">
<rect x="-0.5" y="-0.5" width="167" height="68" rx="3.5" transform="matrix(0 -1 -1 0 74 301)" stroke="white"/>
<text id="Mini Auditorium" transform="translate(9 212)" fill="white" xml:space="preserve" style="white-space: pre" font-family="Poppins" font-size="8" letter-spacing="0em"><tspan x="0.347656" y="8.8">Mini Auditorium</tspan></text>
</g>
</g>
<g id="Frame 57">
<rect x="-0.5" y="-0.5" width="47" height="68" rx="3.5" transform="matrix(0 -1 -1 0 74 127)" stroke="white"/>
<text id="AHU" transform="translate(32 98)" fill="white" xml:space="preserve" style="white-space: pre" font-family="Poppins" font-size="8" letter-spacing="0em"><tspan x="0.335938" y="8.8">AHU </tspan></text>
</g>
</g>
<g id="Frame 49_2">
<g id="Frame 45">
<g clip-path="url(#clip16_659_949)">
<rect width="22" height="120" rx="4" transform="matrix(0 -1 -1 0 240 412)" fill="#2B2B2B"/>
<text id="Lift" fill="white" xml:space="preserve" style="white-space: pre" font-family="Poppins" font-size="11" letter-spacing="0em"><tspan x="172.459" y="404.85">Lift</tspan></text>
</g>
<rect x="-0.5" y="-0.5" width="21" height="119" rx="3.5" transform="matrix(0 -1 -1 0 239 411)" stroke="white"/>
</g>
<g id="Frame 53">
<g id="Frame 45_2">
<g clip-path="url(#clip17_659_949)">
<rect x="201.5" y="318.5" width="38" height="65" rx="3.5" stroke="white"/>
<text id="Faculty Dining" transform="translate(201 339)" fill="white" xml:space="preserve" style="white-space: pre" font-family="Poppins" font-size="8" letter-spacing="0em"><tspan x="5.09766" y="8.8">Faculty&#10;</tspan><tspan x="6.88281" y="20.8">Dining</tspan></text>
</g>
</g>
<g id="Frame 44_3">
<rect x="120.5" y="318.5" width="74" height="65" rx="3.5" stroke="white"/>
<text id="Cafeteria (AC)" transform="translate(129 345)" fill="white" xml:space="preserve" style="white-space: pre" font-family="Poppins" font-size="8" letter-spacing="0em"><tspan x="0.308594" y="8.8">Cafeteria (AC)</tspan></text>
</g>
</g>
<g id="Frame 49_3">
<g clip-path="url(#clip18_659_949)">
<rect width="167" height="120" rx="4" transform="matrix(0 -1 -1 0 240 312)" fill="#23A6F0"/>
<g id="Cafeteria Floor LG">
<text id="Floor LG" fill="white" xml:space="preserve" style="white-space: pre" font-family="Poppins" font-size="20" letter-spacing="0em"><tspan x="141.211" y="243.9">Floor LG</tspan></text>
<text fill="white" xml:space="preserve" style="white-space: pre" font-family="Poppins" font-size="8" letter-spacing="0em"><tspan x="161.293" y="213.9">Cafeteria&#10;</tspan></text>
</g>
</g>
</g>
<g id="Frame 48_2">
<g clip-path="url(#clip19_659_949)">
<rect width="22" height="120" rx="4" transform="matrix(0 -1 -1 0 240 139)" fill="#2B2B2B"/>
<text id="Lift_2" fill="white" xml:space="preserve" style="white-space: pre" font-family="Poppins" font-size="11" letter-spacing="0em"><tspan x="172.459" y="131.85">Lift</tspan></text>
</g>
<rect x="-0.5" y="-0.5" width="21" height="119" rx="3.5" transform="matrix(0 -1 -1 0 239 138)" stroke="white"/>
</g>
</g>
<path id="Arrow 5" d="M179.646 114.354C179.842 114.549 180.158 114.549 180.354 114.354L183.536 111.172C183.731 110.976 183.731 110.66 183.536 110.464C183.34 110.269 183.024 110.269 182.828 110.464L180 113.293L177.172 110.464C176.976 110.269 176.66 110.269 176.464 110.464C176.269 110.66 176.269 110.976 176.464 111.172L179.646 114.354ZM179.5 105L179.5 114L180.5 114L180.5 105L179.5 105Z" fill="white"/>
<text id="Bhagubhai Lift Entrance" fill="white" xml:space="preserve" style="white-space: pre" font-family="Inter" font-size="8" letter-spacing="0em"><tspan x="134.297" y="99.4091">Bhagubhai Lift Entrance</tspan></text>
<text id="Cooper Lift Entrance" fill="white" xml:space="preserve" style="white-space: pre" font-family="Inter" font-size="8" letter-spacing="0em"><tspan x="140.391" y="441.409">Cooper Lift Entrance</tspan></text>
<path id="Arrow 6" d="M180.354 420.646C180.158 420.451 179.842 420.451 179.646 420.646L176.464 423.828C176.269 424.024 176.269 424.34 176.464 424.536C176.66 424.731 176.976 424.731 177.172 424.536L180 421.707L182.828 424.536C183.024 424.731 183.34 424.731 183.536 424.536C183.731 424.34 183.731 424.024 183.536 423.828L180.354 420.646ZM180.5 430L180.5 421L179.5 421L179.5 430L180.5 430Z" fill="white"/>
<g id="Fire Fighting">
<g id="Frame 40">
<mask id="path-60-inside-1_659_949" fill="white">
<path d="M6 11C6 8.79086 7.79086 7 10 7H286V76H9.99999C7.79085 76 6 74.2091 6 72V11Z"/>
</mask>
<path d="M5 11C5 8.23858 7.23858 6 10 6H286V8H10C8.34315 8 7 9.34315 7 11H5ZM286 77H10C7.23858 77 5 74.7614 5 72H7C7 73.6569 8.34315 75 10 75H286V77ZM10 77C7.23858 77 5 74.7614 5 72V11C5 8.23858 7.23858 6 10 6V8C8.34315 8 7 9.34315 7 11V72C7 73.6569 8.34315 75 10 75V77ZM286 7V76V7Z" fill="white" mask="url(#path-60-inside-1_659_949)"/>
<text id="Fire Fighting output at ceiling level" fill="white" xml:space="preserve" style="white-space: pre" font-family="Urbanist" font-size="8" letter-spacing="0em"><tspan x="126.156" y="44.8">Fire Fighting output at ceiling level</tspan></text>
</g>
<g id="Frame 44_4">
<mask id="path-63-inside-2_659_949" fill="white">
<path d="M285 75H354V231C354 233.209 352.209 235 350 235H289C286.791 235 285 233.209 285 231V75Z"/>
</mask>
<path d="M285 75H354H285ZM355 231C355 233.761 352.761 236 350 236H289C286.239 236 284 233.761 284 231H286C286 232.657 287.343 234 289 234H350C351.657 234 353 232.657 353 231H355ZM289 236C286.239 236 284 233.761 284 231V75H286V231C286 232.657 287.343 234 289 234V236ZM355 75V231C355 233.761 352.761 236 350 236V234C351.657 234 353 232.657 353 231V75H355Z" fill="white" mask="url(#path-63-inside-2_659_949)"/>
</g>
<g id="Frame 70">
<mask id="path-65-inside-3_659_949" fill="white">
<path d="M286 7H350C352.209 7 354 8.79086 354 11V75H286V7Z"/>
</mask>
<path d="M286 6H350C352.761 6 355 8.23858 355 11H353C353 9.34315 351.657 8 350 8H286V6ZM354 75H286H354ZM286 75V7V75ZM350 6C352.761 6 355 8.23858 355 11V75H353V11C353 9.34315 351.657 8 350 8V6Z" fill="white" mask="url(#path-65-inside-3_659_949)"/>
</g>
</g>
</g>
<defs>
<clipPath id="clip0_659_949">
<rect x="106" y="527" width="18" height="69" rx="4" transform="rotate(-180 106 527)" fill="white"/>
</clipPath>
<clipPath id="clip1_659_949">
<rect width="9.04762" height="8.525" fill="white" transform="translate(95.9521 488.705)"/>
</clipPath>
<clipPath id="clip2_659_949">
<rect width="11.6743" height="11" fill="white" transform="matrix(-1 0 0 1 97.6748 487)"/>
</clipPath>
<clipPath id="clip3_659_949">
<rect x="237" y="527" width="18" height="69" rx="4" transform="rotate(-180 237 527)" fill="white"/>
</clipPath>
<clipPath id="clip4_659_949">
<rect width="9.04762" height="8.525" fill="white" transform="translate(226.952 488.705)"/>
</clipPath>
<clipPath id="clip5_659_949">
<rect width="11.6743" height="11" fill="white" transform="matrix(-1 0 0 1 228.675 487)"/>
</clipPath>
<clipPath id="clip6_659_949">
<rect x="285" y="401" width="18" height="69" rx="4" transform="rotate(-90 285 401)" fill="white"/>
</clipPath>
<clipPath id="clip7_659_949">
<rect width="10" height="10" fill="white" transform="translate(319.951 387.048)"/>
</clipPath>
<clipPath id="clip8_659_949">
<rect width="12.9032" height="12.9032" fill="white" transform="matrix(-1 0 0 1 321.854 385.048)"/>
</clipPath>
<clipPath id="clip9_659_949">
<rect x="285" y="377" width="32" height="69" rx="4" transform="rotate(-90 285 377)" fill="white"/>
</clipPath>
<clipPath id="clip10_659_949">
<rect width="10" height="10" fill="white" transform="translate(320 325)"/>
</clipPath>
<clipPath id="clip11_659_949">
<rect width="12.9032" height="12.9032" fill="white" transform="matrix(-1 0 0 1 321.903 323)"/>
</clipPath>
<clipPath id="clip12_659_949">
<rect width="10" height="10" fill="white" transform="matrix(-1 0 0 1 40 438.548)"/>
</clipPath>
<clipPath id="clip13_659_949">
<rect width="12.9032" height="12.9032" fill="white" transform="translate(38.0967 436.548)"/>
</clipPath>
<clipPath id="clip14_659_949">
<rect x="6" y="428" width="42" height="69" rx="4" transform="rotate(-90 6 428)" fill="white"/>
</clipPath>
<clipPath id="clip15_659_949">
<rect width="168" height="69" rx="4" transform="matrix(0 -1 -1 0 75 302)" fill="white"/>
</clipPath>
<clipPath id="clip16_659_949">
<rect width="22" height="120" rx="4" transform="matrix(0 -1 -1 0 240 412)" fill="white"/>
</clipPath>
<clipPath id="clip17_659_949">
<rect x="201" y="318" width="39" height="66" rx="4" fill="white"/>
</clipPath>
<clipPath id="clip18_659_949">
<rect width="167" height="120" rx="4" transform="matrix(0 -1 -1 0 240 312)" fill="white"/>
</clipPath>
<clipPath id="clip19_659_949">
<rect width="22" height="120" rx="4" transform="matrix(0 -1 -1 0 240 139)" fill="white"/>
</clipPath>
</defs>
</svg>
