<svg width="360" height="534" viewBox="0 0 360 534" fill="none" xmlns="http://www.w3.org/2000/svg">
<g id="Eigth Floor">
<rect x="0.5" y="0.5" width="359" height="533" rx="7.5" fill="#2B2B2B"/>
<rect x="0.5" y="0.5" width="359" height="533" rx="7.5" stroke="white"/>
<g id="Frame 45">
<g id="Frame 40">
<rect x="6.5" y="7.5" width="104" height="68" rx="3.5" stroke="white"/>
<text id="Faculty Area 802" fill="white" xml:space="preserve" style="white-space: pre" font-family="Urbanist" font-size="8" letter-spacing="0em"><tspan x="30.2812" y="44.8">Faculty Area 802</tspan></text>
</g>
<g id="Frame 42">
<rect x="117" y="7" width="31" height="69" rx="4" fill="#4B4B4B"/>
<path id="Vector" d="M129.676 43.875V50.5H126.912V43.875V43.375H126.412H125.5V38.65C125.5 37.8767 126.128 37.25 126.882 37.25H129.706C130.461 37.25 131.088 37.8767 131.088 38.65V43.375H130.176H129.676V43.875ZM140.309 44.8H138.176H137.676V45.3V50.5H135.853V45.3V44.8H135.353H133.221L135.395 38.2081L135.395 38.2066C135.582 37.6332 136.115 37.25 136.708 37.25H136.821C137.41 37.25 137.938 37.6293 138.135 38.21L140.309 44.8ZM129.676 33.9C129.676 34.6828 129.058 35.3 128.294 35.3C127.53 35.3 126.912 34.6828 126.912 33.9C126.912 33.1172 127.53 32.5 128.294 32.5C129.058 32.5 129.676 33.1172 129.676 33.9ZM138.147 33.9C138.147 34.6828 137.529 35.3 136.765 35.3C136.001 35.3 135.382 34.6828 135.382 33.9C135.382 33.1172 136.001 32.5 136.765 32.5C137.529 32.5 138.147 33.1172 138.147 33.9Z" stroke="white"/>
</g>
<g id="Frame 43">
<rect x="154" y="7" width="31" height="69" rx="4" fill="#4B4B4B"/>
<g id="Exit-icons">
<g id="streamline:interface-logout-arrow-exit-frame-leave-logout-rectangle-right" clip-path="url(#clip0_659_1490)">
<path id="Vector_2" d="M176.786 44.5V45.9286C176.786 46.118 176.711 46.2997 176.577 46.4337C176.443 46.5676 176.261 46.6429 176.072 46.6429H171.072C170.882 46.6429 170.701 46.5676 170.567 46.4337C170.433 46.2997 170.357 46.118 170.357 45.9286L170.5 38C170.5 37.8106 170.433 37.7003 170.567 37.5664C170.701 37.4324 170.882 37.3572 171.072 37.3572H176.072C176.261 37.3572 176.443 37.4324 176.577 37.5664C176.711 37.7003 176.786 37.882 176.786 38.0715V39.5M174.643 42H179.643M179.643 42L178.215 40.5715M179.643 42L178.215 43.4286" stroke="white" stroke-width="0.7" stroke-linecap="round" stroke-linejoin="round"/>
</g>
<g id="Frame 50">
<rect width="5.16129" height="3.87097" transform="translate(168.032 39.5161)" fill="#4B4B4B"/>
</g>
<g id="Fire Run Away" clip-path="url(#clip1_659_1490)">
<path id="Vector_3" d="M168.663 38.4808C169.385 38.4808 169.973 37.8931 169.973 37.1703C169.973 36.4476 169.385 35.8599 168.663 35.8599C167.94 35.8599 167.352 36.4476 167.352 37.1703C167.352 37.8931 167.94 38.4808 168.663 38.4808ZM168.663 36.4647C169.052 36.4647 169.368 36.7812 169.368 37.1703C169.368 37.5595 169.052 37.876 168.663 37.876C168.273 37.876 167.957 37.5595 167.957 37.1703C167.957 36.7812 168.273 36.4647 168.663 36.4647ZM167.069 47.8024C167.465 47.8024 167.812 47.5484 167.933 47.1714C168.424 45.6361 168.693 44.3326 168.704 44.2782C168.756 44.0212 168.696 43.754 168.537 43.5453C168.518 43.5212 168.111 42.9929 167.443 42.4647C167.593 42.129 167.817 41.6643 168.083 41.2087C168.089 41.2218 168.096 41.2349 168.102 41.248L168.394 41.8699C168.544 42.1865 168.865 42.3911 169.216 42.3911C169.343 42.3911 169.467 42.3649 169.584 42.3125L171.263 41.5665C171.489 41.4657 171.662 41.2822 171.746 41.0504C171.832 40.8185 171.82 40.5675 171.712 40.3437C171.501 39.9062 170.959 39.7157 170.503 39.9183L169.654 40.2964C169.252 39.5524 168.607 38.9758 167.817 38.6593C167.062 38.3568 166.217 38.3195 165.438 38.5534C164.622 38.8044 163.903 39.3246 163.411 40.0191L162.876 40.7732C162.736 40.9718 162.682 41.2117 162.723 41.4506C162.764 41.6895 162.896 41.8982 163.094 42.0373C163.275 42.1653 163.496 42.2218 163.716 42.1976C163.882 42.1794 164.002 42.0302 163.984 41.8639C163.966 41.6976 163.816 41.5786 163.65 41.5958C163.577 41.6038 163.503 41.5847 163.443 41.5423C163.377 41.496 163.333 41.4264 163.319 41.3468C163.305 41.2671 163.323 41.1875 163.37 41.121L163.904 40.3669C164.319 39.7833 164.926 39.3437 165.612 39.133C166.258 38.9395 166.962 38.9708 167.591 39.2218C168.3 39.505 168.869 40.0423 169.195 40.7328L169.236 40.8195C169.307 40.9687 169.482 41.0333 169.632 40.9667L170.747 40.4708C170.908 40.3992 171.096 40.4597 171.166 40.6058C171.202 40.6804 171.206 40.7641 171.177 40.8417C171.148 40.9193 171.091 40.9808 171.015 41.0141L169.336 41.7601C169.189 41.8256 169.007 41.756 168.94 41.6129L168.647 40.9909C168.558 40.8004 168.441 40.6199 168.301 40.4556C168.239 40.383 168.146 40.3447 168.052 40.3498C167.957 40.3558 167.87 40.4062 167.818 40.4859C167.374 41.1603 167.014 41.9224 166.791 42.4425C166.735 42.5726 166.776 42.7228 166.89 42.8064C167.604 43.3276 168.037 43.8901 168.055 43.9133C168.108 43.9828 168.128 44.0716 168.11 44.1572C168.099 44.2107 167.837 45.4828 167.355 46.9879C167.315 47.1139 167.199 47.1986 167.067 47.1986C167.023 47.1986 166.98 47.1885 166.939 47.1703C166.804 47.1078 166.737 46.9365 166.787 46.7792C167.118 45.7369 167.346 44.7964 167.453 44.3286C167.475 44.2318 167.448 44.131 167.381 44.0574C167.124 43.7772 166.705 43.375 166.166 43.0504C166.022 42.9647 165.837 43.0111 165.75 43.1542C165.666 43.2964 165.712 43.4818 165.855 43.5685C166.275 43.8205 166.618 44.1351 166.828 44.3508C166.713 44.8447 166.503 45.6794 166.211 46.5947C166.068 47.0453 166.272 47.5292 166.687 47.7187C166.81 47.7742 166.938 47.8024 167.069 47.8024Z" fill="white"/>
<path id="Vector_4" d="M163.337 47.8023C163.574 47.8023 163.812 47.7096 163.989 47.5261C164.24 47.266 165.512 45.9223 165.867 44.9687C165.913 44.8467 165.951 44.6924 165.983 44.4969C166.01 44.3326 165.9 44.1763 165.735 44.1481C165.571 44.1209 165.415 44.2318 165.386 44.3961C165.354 44.5896 165.321 44.6995 165.3 44.758C165.041 45.4555 164.081 46.5614 163.555 47.1057C163.439 47.2257 163.247 47.2287 163.127 47.1128C163.007 46.9969 163.004 46.8053 163.12 46.6854C163.49 46.3023 164.501 45.1723 164.733 44.5473C164.839 44.264 164.892 43.3164 164.901 42.7852C164.901 42.767 164.903 42.7489 164.907 42.7307C164.917 42.6783 165.169 41.4404 165.822 40.2418C165.902 40.0957 165.848 39.9112 165.701 39.8316C165.555 39.7519 165.37 39.8053 165.291 39.9525C164.594 41.2318 164.325 42.5574 164.314 42.6138C164.304 42.6672 164.298 42.7217 164.297 42.7761C164.285 43.4787 164.216 44.2055 164.167 44.3376C164.019 44.7348 163.283 45.6481 162.686 46.266C162.338 46.6259 162.348 47.2005 162.707 47.5483C162.881 47.7176 163.109 47.8023 163.337 47.8023Z" fill="white"/>
</g>
</g>
</g>
<g id="Frame 44">
<rect x="191.5" y="7.5" width="54" height="68" rx="3.5" stroke="white"/>
<text id="Additive Manufacturing Lab" fill="white" xml:space="preserve" style="white-space: pre" font-family="Urbanist" font-size="8" letter-spacing="0em"><tspan x="204.652" y="34.8">Additive&#10;</tspan><tspan x="193.422" y="44.8">Manufacturing&#10;</tspan><tspan x="212.441" y="54.8">Lab</tspan></text>
</g>
<g id="Frame 41">
<rect x="252.5" y="7.5" width="101" height="68" rx="3.5" stroke="white"/>
<text id="Faculty Area 801" fill="white" xml:space="preserve" style="white-space: pre" font-family="Urbanist" font-size="8" letter-spacing="0em"><tspan x="275.402" y="44.8">Faculty Area 801</tspan></text>
</g>
</g>
<g id="Frame 46">
<g id="Frame 55">
<g id="Frame 43_2">
<rect x="6.5" y="458.5" width="111" height="68" rx="3.5" stroke="white"/>
<text id="Placement Office 1 and 2" fill="white" xml:space="preserve" style="white-space: pre" font-family="Poppins" font-size="8" letter-spacing="0em"><tspan x="13.4844" y="495.8">Placement Office 1 and 2</tspan></text>
</g>
</g>
<g id="Frame 56">
<g id="Frame 46_2">
<rect x="211.5" y="458.5" width="67" height="68" rx="3.5" stroke="white"/>
<text id="E. CL 804" fill="white" xml:space="preserve" style="white-space: pre" font-family="Poppins" font-size="8" letter-spacing="0em"><tspan x="228.109" y="495.8">E. CL 804</tspan></text>
</g>
<g id="Frame 45_2">
<g clip-path="url(#clip2_659_1490)">
<g id="Frame 44_2">
<rect x="285.5" y="458.5" width="67" height="68" rx="3.5" stroke="white"/>
<text id="E. CR 801" fill="white" xml:space="preserve" style="white-space: pre" font-family="Poppins" font-size="8" letter-spacing="0em"><tspan x="302.137" y="495.8">E. CR 801</tspan></text>
</g>
</g>
<rect x="285.5" y="458.5" width="67" height="68" rx="3.5" stroke="white"/>
</g>
</g>
<text id="Placement Office 3" fill="white" xml:space="preserve" style="white-space: pre" font-family="Poppins" font-size="8" letter-spacing="0em"><tspan x="148.469" y="489.8">Placement&#10;</tspan><tspan x="154.906" y="501.8">Office 3</tspan></text>
<g id="Frame 1000001542">
<rect x="197.5" y="479.5" width="14" height="27" rx="3.5" stroke="white"/>
</g>
</g>
<g id="Frame 50_2">
<g id="Frame 50_3">
<g clip-path="url(#clip3_659_1490)">
<rect x="285" y="412" width="19" height="69" rx="4" transform="rotate(-90 285 412)" fill="#4B4B4B"/>
<g id="Exit-icons_2">
<g id="streamline:interface-logout-arrow-exit-frame-leave-logout-rectangle-right_2" clip-path="url(#clip4_659_1490)">
<path id="Vector_5" d="M326.737 405.548V406.977C326.737 407.166 326.662 407.348 326.528 407.482C326.394 407.616 326.212 407.691 326.023 407.691H321.023C320.833 407.691 320.652 407.616 320.518 407.482C320.384 407.348 320.309 407.166 320.309 406.977L320.452 399.048C320.452 398.859 320.384 398.748 320.518 398.614C320.652 398.481 320.833 398.405 321.023 398.405H326.023C326.212 398.405 326.394 398.481 326.528 398.614C326.662 398.748 326.737 398.93 326.737 399.12V400.548M324.594 403.048H329.594M329.594 403.048L328.166 401.62M329.594 403.048L328.166 404.477" stroke="white" stroke-width="0.7" stroke-linecap="round" stroke-linejoin="round"/>
</g>
<g id="Frame 50_4">
<rect width="5.16129" height="3.87097" transform="translate(317.983 400.564)" fill="#4B4B4B"/>
</g>
<g id="Fire Run Away_2" clip-path="url(#clip5_659_1490)">
<path id="Vector_6" d="M318.614 399.529C319.337 399.529 319.924 398.941 319.924 398.219C319.924 397.496 319.337 396.908 318.614 396.908C317.891 396.908 317.303 397.496 317.303 398.219C317.303 398.941 317.891 399.529 318.614 399.529ZM318.614 397.513C319.003 397.513 319.319 397.83 319.319 398.219C319.319 398.608 319.003 398.924 318.614 398.924C318.225 398.924 317.908 398.608 317.908 398.219C317.908 397.83 318.225 397.513 318.614 397.513ZM317.02 408.851C317.416 408.851 317.763 408.597 317.884 408.22C318.375 406.684 318.644 405.381 318.655 405.327C318.708 405.069 318.647 404.802 318.488 404.594C318.47 404.569 318.062 404.041 317.394 403.513C317.544 403.177 317.768 402.713 318.034 402.257C318.04 402.27 318.047 402.283 318.053 402.296L318.346 402.918C318.495 403.235 318.816 403.439 319.167 403.439C319.294 403.439 319.418 403.413 319.535 403.361L321.215 402.615C321.44 402.514 321.613 402.331 321.697 402.099C321.783 401.867 321.771 401.616 321.663 401.392C321.452 400.955 320.91 400.764 320.454 400.967L319.605 401.345C319.203 400.601 318.558 400.024 317.768 399.708C317.013 399.405 316.168 399.368 315.389 399.602C314.573 399.853 313.854 400.373 313.362 401.067L312.827 401.822C312.687 402.02 312.633 402.26 312.674 402.499C312.716 402.738 312.848 402.947 313.045 403.086C313.227 403.214 313.447 403.27 313.667 403.246C313.834 403.228 313.953 403.079 313.935 402.912C313.917 402.746 313.767 402.627 313.602 402.644C313.528 402.652 313.454 402.633 313.394 402.591C313.328 402.544 313.284 402.475 313.27 402.395C313.256 402.315 313.274 402.236 313.321 402.169L313.855 401.415C314.27 400.832 314.877 400.392 315.563 400.181C316.21 399.988 316.913 400.019 317.542 400.27C318.251 400.553 318.82 401.091 319.146 401.781L319.187 401.868C319.258 402.017 319.433 402.082 319.584 402.015L320.698 401.519C320.859 401.448 321.047 401.508 321.117 401.654C321.153 401.729 321.157 401.812 321.128 401.89C321.1 401.968 321.042 402.029 320.967 402.062L319.287 402.808C319.14 402.874 318.959 402.804 318.891 402.661L318.599 402.039C318.509 401.849 318.392 401.668 318.252 401.504C318.19 401.431 318.098 401.393 318.003 401.398C317.908 401.404 317.821 401.455 317.769 401.534C317.325 402.209 316.966 402.971 316.742 403.491C316.686 403.621 316.728 403.771 316.842 403.855C317.555 404.376 317.988 404.938 318.006 404.962C318.059 405.031 318.079 405.12 318.061 405.206C318.05 405.259 317.788 406.531 317.306 408.036C317.266 408.162 317.15 408.247 317.018 408.247C316.975 408.247 316.931 408.237 316.89 408.219C316.755 408.156 316.688 407.985 316.738 407.828C317.069 406.785 317.297 405.845 317.404 405.377C317.426 405.28 317.399 405.179 317.333 405.106C317.075 404.826 316.656 404.423 316.117 404.099C315.974 404.013 315.788 404.059 315.701 404.203C315.617 404.345 315.663 404.53 315.806 404.617C316.227 404.869 316.569 405.183 316.779 405.399C316.664 405.893 316.454 406.728 316.162 407.643C316.019 408.094 316.224 408.578 316.638 408.767C316.761 408.823 316.889 408.851 317.02 408.851Z" fill="white"/>
<path id="Vector_7" d="M313.288 408.851C313.525 408.851 313.763 408.758 313.94 408.575C314.191 408.315 315.464 406.971 315.818 406.017C315.864 405.895 315.902 405.741 315.934 405.545C315.962 405.381 315.851 405.225 315.686 405.197C315.522 405.169 315.366 405.28 315.338 405.445C315.305 405.638 315.272 405.748 315.251 405.807C314.992 406.504 314.032 407.61 313.506 408.154C313.39 408.274 313.198 408.277 313.079 408.161C312.959 408.045 312.956 407.854 313.071 407.734C313.441 407.351 314.453 406.221 314.684 405.596C314.79 405.313 314.844 404.365 314.852 403.834C314.852 403.816 314.854 403.797 314.858 403.779C314.868 403.727 315.12 402.489 315.773 401.29C315.853 401.144 315.799 400.96 315.652 400.88C315.506 400.801 315.321 400.854 315.242 401.001C314.545 402.28 314.276 403.606 314.265 403.662C314.255 403.716 314.249 403.77 314.248 403.825C314.236 404.527 314.167 405.254 314.118 405.386C313.971 405.783 313.234 406.697 312.637 407.315C312.289 407.674 312.299 408.249 312.658 408.597C312.833 408.766 313.06 408.851 313.288 408.851Z" fill="white"/>
</g>
</g>
</g>
</g>
<g id="Frame 44_3">
<rect x="285.5" y="315.5" width="68" height="71" rx="3.5" stroke="white"/>
<text id="NA" transform="translate(314 346)" fill="white" xml:space="preserve" style="white-space: pre" font-family="Poppins" font-size="8" letter-spacing="0em"><tspan x="0.492188" y="8.8">NA</tspan></text>
</g>
<g id="Frame 52">
<g clip-path="url(#clip6_659_1490)">
<rect x="285.5" y="308.5" width="36" height="68" rx="3.5" transform="rotate(-90 285.5 308.5)" stroke="white"/>
<text id="E. CL 803" transform="translate(302 285)" fill="white" xml:space="preserve" style="white-space: pre" font-family="Inter" font-size="8" letter-spacing="0em"><tspan x="0.0859375" y="7.90909">E. CL 803</tspan></text>
</g>
</g>
<g id="Frame 53">
<g clip-path="url(#clip7_659_1490)">
<rect x="285.5" y="265.5" width="38" height="68" rx="3.5" transform="rotate(-90 285.5 265.5)" stroke="white"/>
<text id="E. CL 802" transform="translate(302 241)" fill="white" xml:space="preserve" style="white-space: pre" font-family="Inter" font-size="8" letter-spacing="0em"><tspan x="0.210938" y="7.90909">E. CL 802</tspan></text>
</g>
</g>
<g id="Group 1261153515">
<g id="Frame 50_5">
<rect x="285" y="221" width="19" height="69" rx="4" transform="rotate(-90 285 221)" fill="#4B4B4B"/>
</g>
<g id="Exit-icons_3">
<g id="streamline:interface-logout-arrow-exit-frame-leave-logout-rectangle-right_3" clip-path="url(#clip8_659_1490)">
<path id="Vector_8" d="M326.786 214.139V215.647C326.786 215.847 326.711 216.038 326.577 216.18C326.443 216.321 326.261 216.401 326.072 216.401H321.072C320.882 216.401 320.701 216.321 320.567 216.18C320.433 216.038 320.357 215.847 320.357 215.647L320.5 207.278C320.5 207.078 320.433 206.961 320.567 206.82C320.701 206.679 320.882 206.599 321.072 206.599H326.072C326.261 206.599 326.443 206.679 326.577 206.82C326.711 206.961 326.786 207.153 326.786 207.353V208.861M324.643 211.5H329.643M329.643 211.5L328.215 209.992M329.643 211.5L328.215 213.008" stroke="white" stroke-width="0.7" stroke-linecap="round" stroke-linejoin="round"/>
</g>
<g id="Frame 50_6">
<rect width="5.16129" height="4.08602" transform="translate(318.032 208.878)" fill="#4B4B4B"/>
</g>
<g id="Fire Run Away_3" clip-path="url(#clip9_659_1490)">
<path id="Vector_9" d="M318.663 207.785C319.385 207.785 319.973 207.165 319.973 206.402C319.973 205.639 319.385 205.019 318.663 205.019C317.94 205.019 317.352 205.639 317.352 206.402C317.352 207.165 317.94 207.785 318.663 207.785ZM318.663 205.657C319.052 205.657 319.368 205.991 319.368 206.402C319.368 206.813 319.052 207.147 318.663 207.147C318.273 207.147 317.957 206.813 317.957 206.402C317.957 205.991 318.273 205.657 318.663 205.657ZM317.069 217.625C317.465 217.625 317.812 217.356 317.933 216.958C318.424 215.338 318.693 213.962 318.704 213.905C318.756 213.633 318.696 213.351 318.537 213.131C318.518 213.105 318.111 212.548 317.443 211.99C317.593 211.636 317.817 211.145 318.083 210.665C318.089 210.678 318.096 210.692 318.102 210.706L318.394 211.363C318.544 211.697 318.865 211.913 319.216 211.913C319.343 211.913 319.467 211.885 319.584 211.83L321.263 211.042C321.489 210.936 321.662 210.742 321.746 210.497C321.832 210.253 321.82 209.988 321.712 209.752C321.501 209.29 320.959 209.089 320.503 209.302L319.654 209.702C319.252 208.916 318.607 208.308 317.817 207.973C317.062 207.654 316.217 207.615 315.438 207.862C314.622 208.127 313.903 208.676 313.411 209.409L312.876 210.205C312.736 210.414 312.682 210.668 312.723 210.92C312.764 211.172 312.896 211.392 313.094 211.539C313.275 211.674 313.496 211.734 313.716 211.708C313.882 211.689 314.002 211.532 313.984 211.356C313.966 211.181 313.816 211.055 313.65 211.073C313.577 211.082 313.503 211.061 313.443 211.017C313.377 210.968 313.333 210.894 313.319 210.81C313.305 210.726 313.323 210.642 313.37 210.572L313.904 209.776C314.319 209.16 314.926 208.696 315.612 208.474C316.258 208.269 316.962 208.302 317.591 208.567C318.3 208.866 318.869 209.433 319.195 210.162L319.236 210.254C319.307 210.411 319.482 210.479 319.632 210.409L320.747 209.886C320.908 209.81 321.096 209.874 321.166 210.028C321.202 210.107 321.206 210.195 321.177 210.277C321.148 210.359 321.091 210.424 321.015 210.459L319.336 211.247C319.189 211.316 319.007 211.242 318.94 211.091L318.647 210.435C318.558 210.234 318.441 210.043 318.301 209.87C318.239 209.793 318.146 209.753 318.052 209.758C317.957 209.764 317.87 209.818 317.818 209.902C317.374 210.613 317.014 211.418 316.791 211.967C316.735 212.104 316.776 212.263 316.89 212.351C317.604 212.901 318.037 213.495 318.055 213.519C318.108 213.593 318.128 213.686 318.11 213.777C318.099 213.833 317.837 215.176 317.355 216.765C317.315 216.898 317.199 216.987 317.067 216.987C317.023 216.987 316.98 216.977 316.939 216.957C316.804 216.891 316.737 216.711 316.787 216.545C317.118 215.444 317.346 214.452 317.453 213.958C317.475 213.856 317.448 213.749 317.381 213.672C317.124 213.376 316.705 212.951 316.166 212.609C316.022 212.518 315.837 212.567 315.75 212.718C315.666 212.868 315.712 213.064 315.855 213.155C316.275 213.422 316.618 213.753 316.828 213.981C316.713 214.503 316.503 215.384 316.211 216.35C316.068 216.825 316.272 217.336 316.687 217.536C316.81 217.595 316.938 217.625 317.069 217.625Z" fill="white"/>
<path id="Vector_10" d="M313.337 217.624C313.574 217.624 313.812 217.526 313.989 217.333C314.24 217.058 315.512 215.64 315.867 214.633C315.913 214.505 315.951 214.342 315.983 214.135C316.01 213.962 315.9 213.797 315.735 213.767C315.571 213.738 315.415 213.855 315.386 214.029C315.354 214.233 315.321 214.349 315.3 214.411C315.041 215.147 314.081 216.315 313.555 216.889C313.439 217.016 313.247 217.019 313.127 216.897C313.007 216.774 313.004 216.572 313.12 216.445C313.49 216.041 314.501 214.848 314.733 214.189C314.839 213.89 314.892 212.889 314.901 212.329C314.901 212.309 314.903 212.29 314.907 212.271C314.917 212.216 315.169 210.909 315.822 209.644C315.902 209.49 315.848 209.295 315.701 209.211C315.555 209.127 315.37 209.183 315.291 209.338C314.594 210.689 314.325 212.088 314.314 212.148C314.304 212.204 314.298 212.261 314.297 212.319C314.285 213.061 314.216 213.828 314.167 213.967C314.019 214.386 313.283 215.35 312.686 216.003C312.338 216.383 312.348 216.989 312.707 217.356C312.881 217.535 313.109 217.624 313.337 217.624Z" fill="white"/>
</g>
</g>
</g>
<g id="Frame 51">
<rect x="285.5" y="118.5" width="68" height="77" rx="3.5" stroke="white"/>
<text id="E. CC 801" transform="translate(302 152)" fill="white" xml:space="preserve" style="white-space: pre" font-family="Poppins" font-size="8" letter-spacing="0em"><tspan x="0.480469" y="8.8">E. CC 801</tspan></text>
</g>
</g>
<g id="Frame 48">
<g id="Group 1261153515_2">
<g id="Frame 50_7">
<rect x="6" y="415" width="18" height="69" rx="4" transform="rotate(-90 6 415)" fill="#4B4B4B"/>
</g>
<g id="Exit-icons_4">
<g id="streamline:interface-logout-arrow-exit-frame-leave-logout-rectangle-right_4" clip-path="url(#clip10_659_1490)">
<path id="Vector_11" d="M33.214 409.048V410.477C33.214 410.666 33.2893 410.848 33.4232 410.982C33.5572 411.116 33.7389 411.191 33.9283 411.191H38.9283C39.1177 411.191 39.2994 411.116 39.4334 410.982C39.5673 410.848 39.6426 410.666 39.6426 410.477L39.4995 402.548C39.4995 402.359 39.5673 402.248 39.4334 402.114C39.2994 401.981 39.1177 401.905 38.9283 401.905H33.9283C33.7389 401.905 33.5572 401.981 33.4232 402.114C33.2893 402.248 33.214 402.43 33.214 402.62V404.048M35.3569 406.548H30.3569M30.3569 406.548L31.7854 405.12M30.3569 406.548L31.7854 407.977" stroke="white" stroke-width="0.7" stroke-linecap="round" stroke-linejoin="round"/>
</g>
<g id="Frame 50_8">
<rect width="5.16129" height="3.87097" transform="matrix(-1 0 0 1 41.9678 404.064)" fill="#4B4B4B"/>
</g>
<g id="Fire Run Away_4" clip-path="url(#clip11_659_1490)">
<path id="Vector_12" d="M41.3374 403.029C40.6146 403.029 40.0269 402.441 40.0269 401.719C40.0269 400.996 40.6146 400.408 41.3374 400.408C42.0602 400.408 42.6479 400.996 42.6479 401.719C42.6479 402.441 42.0602 403.029 41.3374 403.029ZM41.3374 401.013C40.9483 401.013 40.6318 401.33 40.6318 401.719C40.6318 402.108 40.9483 402.424 41.3374 402.424C41.7265 402.424 42.0431 402.108 42.0431 401.719C42.0431 401.33 41.7265 401.013 41.3374 401.013ZM42.9312 412.351C42.535 412.351 42.1882 412.097 42.0673 411.72C41.5763 410.184 41.3072 408.881 41.2961 408.827C41.2437 408.569 41.3042 408.302 41.4634 408.094C41.4816 408.069 41.8888 407.541 42.5572 407.013C42.407 406.677 42.1832 406.213 41.9171 405.757C41.911 405.77 41.904 405.783 41.8979 405.796L41.6056 406.418C41.4564 406.735 41.1348 406.939 40.784 406.939C40.657 406.939 40.533 406.913 40.416 406.861L38.7366 406.115C38.5108 406.014 38.3384 405.831 38.2538 405.599C38.1681 405.367 38.1802 405.116 38.288 404.892C38.4987 404.455 39.041 404.264 39.4967 404.467L40.3465 404.845C40.7477 404.101 41.3929 403.524 42.1832 403.208C42.9382 402.905 43.783 402.868 44.5622 403.102C45.3777 403.353 46.0975 403.873 46.5894 404.567L47.1237 405.322C47.2638 405.52 47.3183 405.76 47.2769 405.999C47.2356 406.238 47.1035 406.447 46.906 406.586C46.7245 406.714 46.5037 406.77 46.284 406.746C46.1177 406.728 45.9977 406.579 46.0158 406.412C46.034 406.246 46.1842 406.127 46.3495 406.144C46.4231 406.152 46.4967 406.133 46.5572 406.091C46.6227 406.044 46.6671 405.975 46.6812 405.895C46.6953 405.815 46.6771 405.736 46.6298 405.669L46.0965 404.915C45.6812 404.332 45.0743 403.892 44.3878 403.681C43.7417 403.488 43.038 403.519 42.409 403.77C41.7003 404.053 41.1308 404.591 40.8052 405.281L40.7638 405.368C40.6933 405.517 40.5179 405.582 40.3677 405.515L39.2527 405.019C39.0925 404.948 38.904 405.008 38.8344 405.154C38.7981 405.229 38.7941 405.312 38.8233 405.39C38.8515 405.468 38.909 405.529 38.9846 405.562L40.664 406.308C40.8112 406.374 40.9927 406.304 41.0602 406.161L41.3525 405.539C41.4423 405.349 41.5592 405.168 41.6993 405.004C41.7608 404.931 41.8535 404.893 41.9483 404.898C42.0431 404.904 42.1298 404.955 42.1822 405.034C42.6257 405.709 42.9856 406.471 43.2094 406.991C43.2648 407.121 43.2235 407.271 43.1096 407.355C42.3959 407.876 41.9634 408.438 41.9453 408.462C41.8919 408.531 41.8717 408.62 41.8898 408.706C41.9009 408.759 42.163 410.031 42.6449 411.536C42.6852 411.662 42.8011 411.747 42.9332 411.747C42.9765 411.747 43.0199 411.737 43.0612 411.719C43.1963 411.656 43.2628 411.485 43.2134 411.328C42.8818 410.285 42.654 409.345 42.5471 408.877C42.5249 408.78 42.5521 408.679 42.6187 408.606C42.8757 408.326 43.2951 407.923 43.8344 407.599C43.9775 407.513 44.163 407.559 44.2497 407.703C44.3344 407.845 44.288 408.03 44.1449 408.117C43.7245 408.369 43.3818 408.683 43.1721 408.899C43.287 409.393 43.4967 410.228 43.789 411.143C43.9322 411.594 43.7275 412.078 43.3132 412.267C43.1902 412.323 43.0622 412.351 42.9312 412.351Z" fill="white"/>
<path id="Vector_13" d="M46.663 412.351C46.4261 412.351 46.1882 412.258 46.0108 412.075C45.7597 411.815 44.4876 410.471 44.1327 409.517C44.0874 409.395 44.0491 409.241 44.0168 409.045C43.9896 408.881 44.1005 408.725 44.2648 408.697C44.4291 408.669 44.5854 408.78 44.6136 408.945C44.6458 409.138 44.6791 409.248 44.7003 409.307C44.9593 410.004 45.919 411.11 46.4452 411.654C46.5612 411.774 46.7527 411.777 46.8726 411.661C46.9926 411.545 46.9956 411.354 46.8797 411.234C46.5097 410.851 45.4987 409.721 45.2668 409.096C45.161 408.813 45.1075 407.865 45.0995 407.334C45.0995 407.316 45.0974 407.297 45.0934 407.279C45.0833 407.227 44.8313 405.989 44.1781 404.79C44.0985 404.644 44.1519 404.46 44.2991 404.38C44.4452 404.301 44.6297 404.354 44.7093 404.501C45.4059 405.78 45.6751 407.106 45.6862 407.162C45.6962 407.216 45.7023 407.27 45.7033 407.325C45.7154 408.027 45.7839 408.754 45.8333 408.886C45.9805 409.283 46.7174 410.197 47.3142 410.815C47.662 411.174 47.6519 411.749 47.293 412.097C47.1186 412.266 46.8908 412.351 46.663 412.351Z" fill="white"/>
</g>
</g>
</g>
<g id="Frame 51_2">
<g clip-path="url(#clip12_659_1490)">
<rect x="6" y="391" width="35" height="69" rx="4" transform="rotate(-90 6 391)" fill="#4B4B4B"/>
<path id="Vector_14" d="M37.6765 375.875V382.5H34.9118V375.875V375.375H34.4118H33.5V370.65C33.5 369.877 34.1276 369.25 34.8824 369.25H37.7059C38.4606 369.25 39.0882 369.877 39.0882 370.65V375.375H38.1765H37.6765V375.875ZM48.3086 376.8H46.1765H45.6765V377.3V382.5H43.8529V377.3V376.8H43.3529H41.2208L43.3948 370.208L43.3953 370.207C43.5824 369.633 44.1153 369.25 44.7082 369.25H44.8212C45.4096 369.25 45.938 369.629 46.1352 370.21L48.3086 376.8ZM37.6765 365.9C37.6765 366.683 37.0583 367.3 36.2941 367.3C35.5299 367.3 34.9118 366.683 34.9118 365.9C34.9118 365.117 35.5299 364.5 36.2941 364.5C37.0583 364.5 37.6765 365.117 37.6765 365.9ZM46.1471 365.9C46.1471 366.683 45.5289 367.3 44.7647 367.3C44.0005 367.3 43.3824 366.683 43.3824 365.9C43.3824 365.117 44.0005 364.5 44.7647 364.5C45.5289 364.5 46.1471 365.117 46.1471 365.9Z" stroke="white"/>
</g>
</g>
<g id="Frame 52_2">
<g clip-path="url(#clip13_659_1490)">
<rect x="6.5" y="349.5" width="38" height="68" rx="3.5" transform="rotate(-90 6.5 349.5)" stroke="white"/>
<text id="Hydraulics Lab" transform="translate(21 320)" fill="white" xml:space="preserve" style="white-space: pre" font-family="Inter" font-size="8" letter-spacing="0em"><tspan x="0.117188" y="7.90909">Hydraulics&#10;</tspan><tspan x="13.0117" y="17.9091">Lab</tspan></text>
</g>
</g>
<g id="Frame 53_2">
<g clip-path="url(#clip14_659_1490)">
<rect x="6.5" y="304.5" width="40" height="68" rx="3.5" transform="rotate(-90 6.5 304.5)" stroke="white"/>
<text id="E. CL 801" transform="translate(23 279)" fill="white" xml:space="preserve" style="white-space: pre" font-family="Inter" font-size="8" letter-spacing="0em"><tspan x="0.273438" y="7.90909">E. CL 801</tspan></text>
</g>
</g>
<g id="Frame 56_2">
<g clip-path="url(#clip15_659_1490)">
<rect x="6.5" y="257.5" width="41" height="68" rx="3.5" transform="rotate(-90 6.5 257.5)" stroke="white"/>
<text id="Automation Lab" transform="translate(19 227)" fill="white" xml:space="preserve" style="white-space: pre" font-family="Inter" font-size="8" letter-spacing="0em"><tspan x="0.296875" y="7.90909">Automation&#10;</tspan><tspan x="15.0117" y="17.9091">Lab</tspan></text>
</g>
</g>
<g id="Frame 55_2">
<g clip-path="url(#clip16_659_1490)">
<rect x="6.5" y="209.5" width="40" height="68" rx="3.5" transform="rotate(-90 6.5 209.5)" stroke="white"/>
<text id="Pneumatic Lab" transform="translate(21 179)" fill="white" xml:space="preserve" style="white-space: pre" font-family="Inter" font-size="8" letter-spacing="0em"><tspan x="0.101562" y="7.90909">Pneumatic&#10;</tspan><tspan x="13.0117" y="17.9091">Lab</tspan></text>
</g>
</g>
<g id="Frame 54">
<g clip-path="url(#clip17_659_1490)">
<rect x="6.5" y="162.5" width="39" height="68" rx="3.5" transform="rotate(-90 6.5 162.5)" stroke="white"/>
<text id="Sensor IOT Lab" transform="translate(20 133)" fill="white" xml:space="preserve" style="white-space: pre" font-family="Inter" font-size="8" letter-spacing="0em"><tspan x="0.140625" y="7.90909">Sensor IOT&#10;</tspan><tspan x="14.0117" y="17.9091">Lab</tspan></text>
</g>
</g>
</g>
<g id="Frame 49">
<g id="Frame 45_3">
<g clip-path="url(#clip18_659_1490)">
<rect width="22" height="120" rx="4" transform="matrix(0 -1 -1 0 240 412)" fill="#2B2B2B"/>
<text id="Lift" fill="white" xml:space="preserve" style="white-space: pre" font-family="Poppins" font-size="11" letter-spacing="0em"><tspan x="172.459" y="404.85">Lift</tspan></text>
</g>
<rect x="-0.5" y="-0.5" width="21" height="119" rx="3.5" transform="matrix(0 -1 -1 0 239 411)" stroke="white"/>
</g>
<g id="Frame 53_3">
<g id="Frame 45_4">
<rect x="183.5" y="318.5" width="56" height="65" rx="3.5" stroke="white"/>
<text id="E. CC 802" transform="translate(193 345)" fill="white" xml:space="preserve" style="white-space: pre" font-family="Poppins" font-size="8" letter-spacing="0em"><tspan x="0.460938" y="8.8">E. CC 802</tspan></text>
</g>
<g id="Frame 44_4">
<rect x="120.5" y="318.5" width="56" height="65" rx="3.5" stroke="white"/>
<text id="E. CC 803" transform="translate(130 345)" fill="white" xml:space="preserve" style="white-space: pre" font-family="Poppins" font-size="8" letter-spacing="0em"><tspan x="0.40625" y="8.8">E. CC 803</tspan></text>
</g>
</g>
<g id="Frame 49_2">
<g clip-path="url(#clip19_659_1490)">
<rect width="91" height="120" rx="4" transform="matrix(0 -1 -1 0 240 312)" fill="#23A6F0"/>
<text id="Floor 8" fill="white" xml:space="preserve" style="white-space: pre" font-family="Poppins" font-size="20" letter-spacing="0em"><tspan x="147.002" y="273.5">Floor 8</tspan></text>
</g>
</g>
<g id="Frame 54_2">
<g id="Frame 45_5">
<rect x="183.5" y="146.5" width="56" height="68" rx="3.5" stroke="white"/>
<text id="V.C. Room 2" transform="translate(188 175)" fill="white" xml:space="preserve" style="white-space: pre" font-family="Poppins" font-size="8" letter-spacing="0em"><tspan x="0.421875" y="8.8">V.C. Room 2</tspan></text>
</g>
<g id="Frame 44_5">
<rect x="120.5" y="146.5" width="56" height="68" rx="3.5" stroke="white"/>
<text id="V.C. Room 1" transform="translate(126 175)" fill="white" xml:space="preserve" style="white-space: pre" font-family="Poppins" font-size="8" letter-spacing="0em"><tspan x="0.441406" y="8.8">V.C. Room 1</tspan></text>
</g>
</g>
<g id="Frame 48_2">
<g clip-path="url(#clip20_659_1490)">
<rect width="22" height="120" rx="4" transform="matrix(0 -1 -1 0 240 140)" fill="#2B2B2B"/>
<text id="Lift_2" fill="white" xml:space="preserve" style="white-space: pre" font-family="Poppins" font-size="11" letter-spacing="0em"><tspan x="172.459" y="132.85">Lift</tspan></text>
</g>
<rect x="-0.5" y="-0.5" width="21" height="119" rx="3.5" transform="matrix(0 -1 -1 0 239 139)" stroke="white"/>
</g>
</g>
<path id="Arrow 5" d="M179.646 114.354C179.842 114.549 180.158 114.549 180.354 114.354L183.536 111.172C183.731 110.976 183.731 110.66 183.536 110.464C183.34 110.269 183.024 110.269 182.828 110.464L180 113.293L177.172 110.464C176.976 110.269 176.66 110.269 176.464 110.464C176.269 110.66 176.269 110.976 176.464 111.172L179.646 114.354ZM179.5 105L179.5 114L180.5 114L180.5 105L179.5 105Z" fill="white"/>
<text id="Bhagubhai Lift Entrance" fill="white" xml:space="preserve" style="white-space: pre" font-family="Inter" font-size="8" letter-spacing="0em"><tspan x="134.297" y="99.4091">Bhagubhai Lift Entrance</tspan></text>
<text id="Cooper Lift Entrance" fill="white" xml:space="preserve" style="white-space: pre" font-family="Inter" font-size="8" letter-spacing="0em"><tspan x="140.391" y="441.409">Cooper Lift Entrance</tspan></text>
<path id="Arrow 7" d="M180.354 420.646C180.158 420.451 179.842 420.451 179.646 420.646L176.464 423.828C176.269 424.024 176.269 424.34 176.464 424.536C176.66 424.731 176.976 424.731 177.172 424.536L180 421.707L182.828 424.536C183.024 424.731 183.34 424.731 183.536 424.536C183.731 424.34 183.731 424.024 183.536 423.828L180.354 420.646ZM180.5 430L180.5 421L179.5 421L179.5 430L180.5 430Z" fill="white"/>
</g>
<defs>
<clipPath id="clip0_659_1490">
<rect width="10" height="10" fill="white" transform="translate(170 37)"/>
</clipPath>
<clipPath id="clip1_659_1490">
<rect width="12.9032" height="12.9032" fill="white" transform="matrix(-1 0 0 1 171.903 35)"/>
</clipPath>
<clipPath id="clip2_659_1490">
<rect x="285" y="458" width="68" height="69" rx="4" fill="white"/>
</clipPath>
<clipPath id="clip3_659_1490">
<rect x="285" y="412" width="19" height="69" rx="4" transform="rotate(-90 285 412)" fill="white"/>
</clipPath>
<clipPath id="clip4_659_1490">
<rect width="10" height="10" fill="white" transform="translate(319.951 398.048)"/>
</clipPath>
<clipPath id="clip5_659_1490">
<rect width="12.9032" height="12.9032" fill="white" transform="matrix(-1 0 0 1 321.854 396.048)"/>
</clipPath>
<clipPath id="clip6_659_1490">
<rect x="285" y="309" width="37" height="69" rx="4" transform="rotate(-90 285 309)" fill="white"/>
</clipPath>
<clipPath id="clip7_659_1490">
<rect x="285" y="266" width="39" height="69" rx="4" transform="rotate(-90 285 266)" fill="white"/>
</clipPath>
<clipPath id="clip8_659_1490">
<rect width="10" height="10.5556" fill="white" transform="translate(320 206.222)"/>
</clipPath>
<clipPath id="clip9_659_1490">
<rect width="12.9032" height="13.6201" fill="white" transform="matrix(-1 0 0 1 321.903 204.111)"/>
</clipPath>
<clipPath id="clip10_659_1490">
<rect width="10" height="10" fill="white" transform="matrix(-1 0 0 1 40 401.548)"/>
</clipPath>
<clipPath id="clip11_659_1490">
<rect width="12.9032" height="12.9032" fill="white" transform="translate(38.0967 399.548)"/>
</clipPath>
<clipPath id="clip12_659_1490">
<rect x="6" y="391" width="35" height="69" rx="4" transform="rotate(-90 6 391)" fill="white"/>
</clipPath>
<clipPath id="clip13_659_1490">
<rect x="6" y="350" width="39" height="69" rx="4" transform="rotate(-90 6 350)" fill="white"/>
</clipPath>
<clipPath id="clip14_659_1490">
<rect x="6" y="305" width="41" height="69" rx="4" transform="rotate(-90 6 305)" fill="white"/>
</clipPath>
<clipPath id="clip15_659_1490">
<rect x="6" y="258" width="42" height="69" rx="4" transform="rotate(-90 6 258)" fill="white"/>
</clipPath>
<clipPath id="clip16_659_1490">
<rect x="6" y="210" width="41" height="69" rx="4" transform="rotate(-90 6 210)" fill="white"/>
</clipPath>
<clipPath id="clip17_659_1490">
<rect x="6" y="163" width="40" height="69" rx="4" transform="rotate(-90 6 163)" fill="white"/>
</clipPath>
<clipPath id="clip18_659_1490">
<rect width="22" height="120" rx="4" transform="matrix(0 -1 -1 0 240 412)" fill="white"/>
</clipPath>
<clipPath id="clip19_659_1490">
<rect width="91" height="120" rx="4" transform="matrix(0 -1 -1 0 240 312)" fill="white"/>
</clipPath>
<clipPath id="clip20_659_1490">
<rect width="22" height="120" rx="4" transform="matrix(0 -1 -1 0 240 140)" fill="white"/>
</clipPath>
</defs>
</svg>
