<svg width="360" height="534" viewBox="0 0 360 534" fill="none" xmlns="http://www.w3.org/2000/svg">
<g id="Sixth Floor">
<rect x="0.5" y="0.5" width="359" height="533" rx="7.5" fill="#2B2B2B"/>
<rect x="0.5" y="0.5" width="359" height="533" rx="7.5" stroke="white"/>
<g id="Frame 45">
<g id="Frame 40">
<rect x="6.5" y="7.5" width="119" height="68" rx="3.5" stroke="white"/>
<text id="Faculty Area 602" fill="white" xml:space="preserve" style="white-space: pre" font-family="Urbanist" font-size="8" letter-spacing="0em"><tspan x="37.0938" y="44.8">Faculty Area 602</tspan></text>
</g>
<g id="Frame 42">
<rect x="132" y="7" width="45" height="69" rx="4" fill="#4B4B4B"/>
<path id="Vector" d="M151.676 43.875V50.5H148.912V43.875V43.375H148.412H147.5V38.65C147.5 37.8767 148.128 37.25 148.882 37.25H151.706C152.461 37.25 153.088 37.8767 153.088 38.65V43.375H152.176H151.676V43.875ZM162.309 44.8H160.176H159.676V45.3V50.5H157.853V45.3V44.8H157.353H155.221L157.395 38.2081L157.395 38.2066C157.582 37.6332 158.115 37.25 158.708 37.25H158.821C159.41 37.25 159.938 37.6293 160.135 38.21L162.309 44.8ZM151.676 33.9C151.676 34.6828 151.058 35.3 150.294 35.3C149.53 35.3 148.912 34.6828 148.912 33.9C148.912 33.1172 149.53 32.5 150.294 32.5C151.058 32.5 151.676 33.1172 151.676 33.9ZM160.147 33.9C160.147 34.6828 159.529 35.3 158.765 35.3C158.001 35.3 157.382 34.6828 157.382 33.9C157.382 33.1172 158.001 32.5 158.765 32.5C159.529 32.5 160.147 33.1172 160.147 33.9Z" stroke="white"/>
</g>
<g id="Frame 43">
<rect x="183" y="7" width="45" height="69" rx="4" fill="#4B4B4B"/>
<g id="Exit-icons">
<g id="streamline:interface-logout-arrow-exit-frame-leave-logout-rectangle-right" clip-path="url(#clip0_659_1154)">
<path id="Vector_2" d="M212.786 44.5V45.9286C212.786 46.118 212.711 46.2997 212.577 46.4337C212.443 46.5676 212.261 46.6429 212.072 46.6429H207.072C206.882 46.6429 206.701 46.5676 206.567 46.4337C206.433 46.2997 206.357 46.118 206.357 45.9286L206.5 38C206.5 37.8106 206.433 37.7003 206.567 37.5664C206.701 37.4324 206.882 37.3572 207.072 37.3572H212.072C212.261 37.3572 212.443 37.4324 212.577 37.5664C212.711 37.7003 212.786 37.882 212.786 38.0715V39.5M210.643 42H215.643M215.643 42L214.215 40.5715M215.643 42L214.215 43.4286" stroke="white" stroke-width="0.7" stroke-linecap="round" stroke-linejoin="round"/>
</g>
<g id="Frame 50">
<rect width="5.16129" height="3.87097" transform="translate(204.032 39.5161)" fill="#4B4B4B"/>
</g>
<g id="Fire Run Away" clip-path="url(#clip1_659_1154)">
<path id="Vector_3" d="M204.663 38.4808C205.385 38.4808 205.973 37.8931 205.973 37.1703C205.973 36.4476 205.385 35.8599 204.663 35.8599C203.94 35.8599 203.352 36.4476 203.352 37.1703C203.352 37.8931 203.94 38.4808 204.663 38.4808ZM204.663 36.4647C205.052 36.4647 205.368 36.7812 205.368 37.1703C205.368 37.5595 205.052 37.876 204.663 37.876C204.273 37.876 203.957 37.5595 203.957 37.1703C203.957 36.7812 204.273 36.4647 204.663 36.4647ZM203.069 47.8024C203.465 47.8024 203.812 47.5484 203.933 47.1714C204.424 45.6361 204.693 44.3326 204.704 44.2782C204.756 44.0212 204.696 43.754 204.537 43.5453C204.518 43.5212 204.111 42.9929 203.443 42.4647C203.593 42.129 203.817 41.6643 204.083 41.2087C204.089 41.2218 204.096 41.2349 204.102 41.248L204.394 41.8699C204.544 42.1865 204.865 42.3911 205.216 42.3911C205.343 42.3911 205.467 42.3649 205.584 42.3125L207.263 41.5665C207.489 41.4657 207.662 41.2822 207.746 41.0504C207.832 40.8185 207.82 40.5675 207.712 40.3437C207.501 39.9062 206.959 39.7157 206.503 39.9183L205.654 40.2964C205.252 39.5524 204.607 38.9758 203.817 38.6593C203.062 38.3568 202.217 38.3195 201.438 38.5534C200.622 38.8044 199.903 39.3246 199.411 40.0191L198.876 40.7732C198.736 40.9718 198.682 41.2117 198.723 41.4506C198.764 41.6895 198.896 41.8982 199.094 42.0373C199.275 42.1653 199.496 42.2218 199.716 42.1976C199.882 42.1794 200.002 42.0302 199.984 41.8639C199.966 41.6976 199.816 41.5786 199.65 41.5958C199.577 41.6038 199.503 41.5847 199.443 41.5423C199.377 41.496 199.333 41.4264 199.319 41.3468C199.305 41.2671 199.323 41.1875 199.37 41.121L199.904 40.3669C200.319 39.7833 200.926 39.3437 201.612 39.133C202.258 38.9395 202.962 38.9708 203.591 39.2218C204.3 39.505 204.869 40.0423 205.195 40.7328L205.236 40.8195C205.307 40.9687 205.482 41.0333 205.632 40.9667L206.747 40.4708C206.908 40.3992 207.096 40.4597 207.166 40.6058C207.202 40.6804 207.206 40.7641 207.177 40.8417C207.148 40.9193 207.091 40.9808 207.015 41.0141L205.336 41.7601C205.189 41.8256 205.007 41.756 204.94 41.6129L204.647 40.9909C204.558 40.8004 204.441 40.6199 204.301 40.4556C204.239 40.383 204.146 40.3447 204.052 40.3498C203.957 40.3558 203.87 40.4062 203.818 40.4859C203.374 41.1603 203.014 41.9224 202.791 42.4425C202.735 42.5726 202.776 42.7228 202.89 42.8064C203.604 43.3276 204.037 43.8901 204.055 43.9133C204.108 43.9828 204.128 44.0716 204.11 44.1572C204.099 44.2107 203.837 45.4828 203.355 46.9879C203.315 47.1139 203.199 47.1986 203.067 47.1986C203.023 47.1986 202.98 47.1885 202.939 47.1703C202.804 47.1078 202.737 46.9365 202.787 46.7792C203.118 45.7369 203.346 44.7964 203.453 44.3286C203.475 44.2318 203.448 44.131 203.381 44.0574C203.124 43.7772 202.705 43.375 202.166 43.0504C202.022 42.9647 201.837 43.0111 201.75 43.1542C201.666 43.2964 201.712 43.4818 201.855 43.5685C202.275 43.8205 202.618 44.1351 202.828 44.3508C202.713 44.8447 202.503 45.6794 202.211 46.5947C202.068 47.0453 202.272 47.5292 202.687 47.7187C202.81 47.7742 202.938 47.8024 203.069 47.8024Z" fill="white"/>
<path id="Vector_4" d="M199.337 47.8023C199.574 47.8023 199.812 47.7096 199.989 47.5261C200.24 47.266 201.512 45.9223 201.867 44.9687C201.913 44.8467 201.951 44.6924 201.983 44.4969C202.01 44.3326 201.9 44.1763 201.735 44.1481C201.571 44.1209 201.415 44.2318 201.386 44.3961C201.354 44.5896 201.321 44.6995 201.3 44.758C201.041 45.4555 200.081 46.5614 199.555 47.1057C199.439 47.2257 199.247 47.2287 199.127 47.1128C199.007 46.9969 199.004 46.8053 199.12 46.6854C199.49 46.3023 200.501 45.1723 200.733 44.5473C200.839 44.264 200.892 43.3164 200.901 42.7852C200.901 42.767 200.903 42.7489 200.907 42.7307C200.917 42.6783 201.169 41.4404 201.822 40.2418C201.902 40.0957 201.848 39.9112 201.701 39.8316C201.555 39.7519 201.37 39.8053 201.291 39.9525C200.594 41.2318 200.325 42.5574 200.314 42.6138C200.304 42.6672 200.298 42.7217 200.297 42.7761C200.285 43.4787 200.216 44.2055 200.167 44.3376C200.019 44.7348 199.283 45.6481 198.686 46.266C198.338 46.6259 198.348 47.2005 198.707 47.5483C198.881 47.7176 199.109 47.8023 199.337 47.8023Z" fill="white"/>
</g>
</g>
</g>
<g id="Frame 41">
<rect x="234.5" y="7.5" width="119" height="68" rx="3.5" stroke="white"/>
<text id="Faculty Area 601" fill="white" xml:space="preserve" style="white-space: pre" font-family="Urbanist" font-size="8" letter-spacing="0em"><tspan x="266.215" y="44.8">Faculty Area 601</tspan></text>
</g>
</g>
<g id="Frame 46">
<g id="Frame 55">
<g id="Frame 43_2">
<rect x="6.5" y="458.5" width="67" height="68" rx="3.5" stroke="white"/>
<text id="E. CR 602" fill="white" xml:space="preserve" style="white-space: pre" font-family="Poppins" font-size="8" letter-spacing="0em"><tspan x="22.6016" y="495.8">E. CR 602</tspan></text>
</g>
<g id="Frame 44">
<rect x="80.5" y="458.5" width="67" height="68" rx="3.5" stroke="white"/>
<text id="E. CR 601" fill="white" xml:space="preserve" style="white-space: pre" font-family="Poppins" font-size="8" letter-spacing="0em"><tspan x="96.6211" y="495.8">E. CR 601</tspan></text>
</g>
</g>
<g id="Frame 56">
<g id="Frame 46_2">
<rect x="211.5" y="458.5" width="67" height="68" rx="3.5" stroke="white"/>
<text id="AI LAB" fill="white" xml:space="preserve" style="white-space: pre" font-family="Poppins" font-size="8" letter-spacing="0em"><tspan x="233.379" y="495.8">AI LAB</tspan></text>
</g>
<g id="Frame 45_2">
<g clip-path="url(#clip2_659_1154)">
<rect x="285.5" y="458.5" width="67" height="68" rx="3.5" stroke="white"/>
<text id="Robotics Lab" fill="white" xml:space="preserve" style="white-space: pre" font-family="Poppins" font-size="8" letter-spacing="0em"><tspan x="294.086" y="495.8">Robotics Lab</tspan></text>
<g id="Frame 44_2">
</g>
</g>
<rect x="285.5" y="458.5" width="67" height="68" rx="3.5" stroke="white"/>
</g>
</g>
</g>
<g id="Frame 49">
<g id="Frame 45_3">
<g clip-path="url(#clip3_659_1154)">
<rect width="22" height="120" rx="4" transform="matrix(0 -1 -1 0 240 412)" fill="#2B2B2B"/>
<text id="Lift" fill="white" xml:space="preserve" style="white-space: pre" font-family="Poppins" font-size="11" letter-spacing="0em"><tspan x="172.459" y="404.85">Lift</tspan></text>
</g>
<rect x="-0.5" y="-0.5" width="21" height="119" rx="3.5" transform="matrix(0 -1 -1 0 239 411)" stroke="white"/>
</g>
<g id="Frame 53">
<g id="Frame 45_4">
<rect x="183.5" y="318.5" width="56" height="65" rx="3.5" stroke="white"/>
<text id="E. CR 606" transform="translate(194 345)" fill="white" xml:space="preserve" style="white-space: pre" font-family="Poppins" font-size="8" letter-spacing="0em"><tspan x="0.363281" y="8.8">E. CR 606</tspan></text>
</g>
<g id="Frame 44_3">
<rect x="120.5" y="318.5" width="56" height="65" rx="3.5" stroke="white"/>
<text id="E. CR 607" transform="translate(131 345)" fill="white" xml:space="preserve" style="white-space: pre" font-family="Poppins" font-size="8" letter-spacing="0em"><tspan x="0.21875" y="8.8">E. CR 607</tspan></text>
</g>
</g>
<g id="Frame 49_2">
<g clip-path="url(#clip4_659_1154)">
<rect width="91" height="120" rx="4" transform="matrix(0 -1 -1 0 240 312)" fill="#23A6F0"/>
<text id="Floor 6" fill="white" xml:space="preserve" style="white-space: pre" font-family="Poppins" font-size="20" letter-spacing="0em"><tspan x="146.963" y="273.5">Floor 6</tspan></text>
</g>
</g>
<g id="Frame 54">
<g id="Frame 45_5">
<rect x="183.5" y="146.5" width="56" height="68" rx="3.5" stroke="white"/>
<text id="E. CR 609" transform="translate(194 175)" fill="white" xml:space="preserve" style="white-space: pre" font-family="Poppins" font-size="8" letter-spacing="0em"><tspan x="0.382812" y="8.8">E. CR 609</tspan></text>
</g>
<g id="Frame 44_4">
<rect x="120.5" y="146.5" width="56" height="68" rx="3.5" stroke="white"/>
<text id="E. CR 608" transform="translate(131 175)" fill="white" xml:space="preserve" style="white-space: pre" font-family="Poppins" font-size="8" letter-spacing="0em"><tspan x="0.378906" y="8.8">E. CR 608</tspan></text>
</g>
</g>
<g id="Frame 48">
<g clip-path="url(#clip5_659_1154)">
<rect width="22" height="120" rx="4" transform="matrix(0 -1 -1 0 240 140)" fill="#2B2B2B"/>
<text id="Lift_2" fill="white" xml:space="preserve" style="white-space: pre" font-family="Poppins" font-size="11" letter-spacing="0em"><tspan x="172.459" y="132.85">Lift</tspan></text>
</g>
<rect x="-0.5" y="-0.5" width="21" height="119" rx="3.5" transform="matrix(0 -1 -1 0 239 139)" stroke="white"/>
</g>
</g>
<path id="Arrow 5" d="M179.646 114.354C179.842 114.549 180.158 114.549 180.354 114.354L183.536 111.172C183.731 110.976 183.731 110.66 183.536 110.464C183.34 110.269 183.024 110.269 182.828 110.464L180 113.293L177.172 110.464C176.976 110.269 176.66 110.269 176.464 110.464C176.269 110.66 176.269 110.976 176.464 111.172L179.646 114.354ZM179.5 105L179.5 114L180.5 114L180.5 105L179.5 105Z" fill="white"/>
<text id="Bhagubhai Lift Entrance" fill="white" xml:space="preserve" style="white-space: pre" font-family="Inter" font-size="8" letter-spacing="0em"><tspan x="134.297" y="99.4091">Bhagubhai Lift Entrance</tspan></text>
<text id="Cooper Lift Entrance" fill="white" xml:space="preserve" style="white-space: pre" font-family="Inter" font-size="8" letter-spacing="0em"><tspan x="140.391" y="441.409">Cooper Lift Entrance</tspan></text>
<g id="Frame 52">
<g id="Group 1261153515">
<g id="Frame 50_2">
<rect x="7" y="409" width="19" height="69" rx="4" transform="rotate(-90 7 409)" fill="#4B4B4B"/>
</g>
<g id="Exit-icons_2">
<g id="streamline:interface-logout-arrow-exit-frame-leave-logout-rectangle-right_2" clip-path="url(#clip6_659_1154)">
<path id="Vector_5" d="M34.2145 402.718V404.226C34.2145 404.426 34.2898 404.618 34.4237 404.759C34.5577 404.9 34.7393 404.98 34.9288 404.98H39.9288C40.1182 404.98 40.2999 404.9 40.4339 404.759C40.5678 404.618 40.6431 404.426 40.6431 404.226L40.5 395.857C40.5 395.657 40.5678 395.54 40.4339 395.399C40.2999 395.258 40.1182 395.178 39.9288 395.178H34.9288C34.7393 395.178 34.5577 395.258 34.4237 395.399C34.2898 395.54 34.2145 395.732 34.2145 395.932V397.44M36.3574 400.079H31.3574M31.3574 400.079L32.7859 398.571M31.3574 400.079L32.7859 401.587" stroke="white" stroke-width="0.7" stroke-linecap="round" stroke-linejoin="round"/>
</g>
<g id="Frame 50_3">
<rect width="5.16129" height="4.08602" transform="matrix(-1 0 0 1 42.9678 397.457)" fill="#4B4B4B"/>
</g>
<g id="Fire Run Away_2" clip-path="url(#clip7_659_1154)">
<path id="Vector_6" d="M42.3374 396.364C41.6146 396.364 41.0269 395.744 41.0269 394.981C41.0269 394.218 41.6146 393.598 42.3374 393.598C43.0602 393.598 43.6479 394.218 43.6479 394.981C43.6479 395.744 43.0602 396.364 42.3374 396.364ZM42.3374 394.236C41.9483 394.236 41.6318 394.57 41.6318 394.981C41.6318 395.392 41.9483 395.726 42.3374 395.726C42.7265 395.726 43.0431 395.392 43.0431 394.981C43.0431 394.57 42.7265 394.236 42.3374 394.236ZM43.9312 406.204C43.535 406.204 43.1882 405.936 43.0673 405.538C42.5763 403.917 42.3072 402.541 42.2961 402.484C42.2437 402.212 42.3042 401.93 42.4634 401.71C42.4816 401.685 42.8888 401.127 43.5572 400.569C43.407 400.215 43.1832 399.725 42.9171 399.244C42.911 399.257 42.904 399.271 42.8979 399.285L42.6056 399.942C42.4564 400.276 42.1348 400.492 41.784 400.492C41.657 400.492 41.533 400.464 41.416 400.409L39.7366 399.621C39.5108 399.515 39.3384 399.321 39.2538 399.077C39.1681 398.832 39.1802 398.567 39.288 398.331C39.4987 397.869 40.041 397.668 40.4967 397.882L41.3465 398.281C41.7477 397.495 42.3929 396.887 43.1832 396.553C43.9382 396.233 44.783 396.194 45.5622 396.441C46.3777 396.706 47.0975 397.255 47.5894 397.988L48.1237 398.784C48.2638 398.994 48.3183 399.247 48.2769 399.499C48.2356 399.751 48.1035 399.971 47.906 400.118C47.7245 400.253 47.5037 400.313 47.284 400.287C47.1177 400.268 46.9977 400.111 47.0158 399.935C47.034 399.76 47.1842 399.634 47.3495 399.652C47.4231 399.661 47.4967 399.64 47.5572 399.596C47.6227 399.547 47.6671 399.473 47.6812 399.389C47.6953 399.305 47.6771 399.221 47.6298 399.151L47.0965 398.355C46.6812 397.739 46.0743 397.275 45.3878 397.053C44.7417 396.848 44.038 396.881 43.409 397.146C42.7003 397.445 42.1308 398.012 41.8052 398.741L41.7638 398.833C41.6933 398.99 41.5179 399.058 41.3677 398.988L40.2527 398.465C40.0925 398.389 39.904 398.453 39.8344 398.607C39.7981 398.686 39.7941 398.774 39.8233 398.856C39.8515 398.938 39.909 399.003 39.9846 399.038L41.664 399.826C41.8112 399.895 41.9927 399.821 42.0602 399.67L42.3525 399.014C42.4423 398.813 42.5592 398.622 42.6993 398.449C42.7608 398.372 42.8535 398.332 42.9483 398.337C43.0431 398.343 43.1298 398.397 43.1822 398.481C43.6257 399.193 43.9856 399.997 44.2094 400.546C44.2648 400.683 44.2235 400.842 44.1096 400.93C43.3959 401.48 42.9634 402.074 42.9453 402.098C42.8919 402.172 42.8717 402.266 42.8898 402.356C42.9009 402.412 43.163 403.755 43.6449 405.344C43.6852 405.477 43.8011 405.566 43.9332 405.566C43.9765 405.566 44.0199 405.556 44.0612 405.537C44.1963 405.471 44.2628 405.29 44.2134 405.124C43.8818 404.023 43.654 403.031 43.5471 402.537C43.5249 402.435 43.5521 402.328 43.6187 402.251C43.8757 401.955 44.2951 401.53 44.8344 401.188C44.9775 401.097 45.163 401.146 45.2497 401.297C45.3344 401.447 45.288 401.643 45.1449 401.735C44.7245 402.001 44.3818 402.333 44.1721 402.56C44.287 403.082 44.4967 403.963 44.789 404.929C44.9322 405.405 44.7275 405.915 44.3132 406.115C44.1902 406.174 44.0622 406.204 43.9312 406.204Z" fill="white"/>
<path id="Vector_7" d="M47.663 406.203C47.4261 406.203 47.1882 406.106 47.0108 405.912C46.7597 405.637 45.4876 404.219 45.1327 403.212C45.0874 403.084 45.0491 402.921 45.0168 402.714C44.9896 402.541 45.1005 402.376 45.2648 402.346C45.4291 402.318 45.5854 402.435 45.6136 402.608C45.6458 402.812 45.6791 402.928 45.7003 402.99C45.9593 403.726 46.919 404.894 47.4452 405.468C47.5612 405.595 47.7527 405.598 47.8726 405.476C47.9926 405.353 47.9956 405.151 47.8797 405.024C47.5097 404.62 46.4987 403.427 46.2668 402.768C46.161 402.469 46.1075 401.468 46.0995 400.908C46.0995 400.888 46.0974 400.869 46.0934 400.85C46.0833 400.795 45.8313 399.488 45.1781 398.223C45.0985 398.069 45.1519 397.874 45.2991 397.79C45.4452 397.706 45.6297 397.762 45.7093 397.918C46.4059 399.268 46.6751 400.667 46.6862 400.727C46.6962 400.783 46.7023 400.841 46.7033 400.898C46.7154 401.64 46.7839 402.407 46.8333 402.546C46.9805 402.966 47.7174 403.93 48.3142 404.582C48.662 404.962 48.6519 405.568 48.293 405.935C48.1186 406.114 47.8908 406.203 47.663 406.203Z" fill="white"/>
</g>
</g>
</g>
<g id="Frame 51">
<g clip-path="url(#clip8_659_1154)">
<rect x="7" y="382" width="35" height="69" rx="4" transform="rotate(-90 7 382)" fill="#4B4B4B"/>
<path id="Vector_8" d="M38.6765 366.875V373.5H35.9118V366.875V366.375H35.4118H34.5V361.65C34.5 360.877 35.1276 360.25 35.8824 360.25H38.7059C39.4606 360.25 40.0882 360.877 40.0882 361.65V366.375H39.1765H38.6765V366.875ZM49.3086 367.8H47.1765H46.6765V368.3V373.5H44.8529V368.3V367.8H44.3529H42.2208L44.3948 361.208L44.3953 361.207C44.5824 360.633 45.1153 360.25 45.7082 360.25H45.8212C46.4096 360.25 46.938 360.629 47.1352 361.21L49.3086 367.8ZM38.6765 356.9C38.6765 357.683 38.0583 358.3 37.2941 358.3C36.5299 358.3 35.9118 357.683 35.9118 356.9C35.9118 356.117 36.5299 355.5 37.2941 355.5C38.0583 355.5 38.6765 356.117 38.6765 356.9ZM47.1471 356.9C47.1471 357.683 46.5289 358.3 45.7647 358.3C45.0005 358.3 44.3824 357.683 44.3824 356.9C44.3824 356.117 45.0005 355.5 45.7647 355.5C46.5289 355.5 47.1471 356.117 47.1471 356.9Z" stroke="white"/>
</g>
</g>
<g id="Frame 54_2">
<g clip-path="url(#clip9_659_1154)">
<rect x="-0.5" y="-0.5" width="54" height="68" rx="3.5" transform="matrix(0 -1 -1 0 75 338)" stroke="white"/>
<text id="E. CR 603" transform="translate(7 281)" fill="white" xml:space="preserve" style="white-space: pre" font-family="Poppins" font-size="8" letter-spacing="0em"><tspan x="16.5469" y="32.8">E. CR 603</tspan></text>
</g>
</g>
<g id="Frame 49_3">
<g clip-path="url(#clip10_659_1154)">
<rect x="-0.5" y="-0.5" width="40" height="68" rx="3.5" transform="matrix(0 -1 -1 0 75 275)" stroke="white"/>
<text id="E. TR 601" transform="translate(26 249.5)" fill="white" xml:space="preserve" style="white-space: pre" font-family="Poppins" font-size="8" letter-spacing="0em"><tspan x="0.046875" y="8.8">E. TR 601</tspan></text>
</g>
</g>
<g id="Frame 55_2">
<g clip-path="url(#clip11_659_1154)">
<rect x="-0.5" y="-0.5" width="40" height="68" rx="3.5" transform="matrix(0 -1 -1 0 75 226)" stroke="white"/>
<text id="E. CL 601" transform="translate(26 200.5)" fill="white" xml:space="preserve" style="white-space: pre" font-family="Poppins" font-size="8" letter-spacing="0em"><tspan x="0.328125" y="8.8">E. CL 601</tspan></text>
</g>
</g>
<g id="Frame 56_2">
<rect x="-0.5" y="-0.5" width="57" height="68" rx="3.5" transform="matrix(0 -1 -1 0 75 177)" stroke="white"/>
<text id="E. CR 604" transform="translate(24 143.5)" fill="white" xml:space="preserve" style="white-space: pre" font-family="Poppins" font-size="8" letter-spacing="0em"><tspan x="0.386719" y="8.8">E. CR 604</tspan></text>
</g>
</g>
<g id="Frame 51_2">
<g id="Frame 50_4">
<g clip-path="url(#clip12_659_1154)">
<rect x="285" y="412" width="19" height="69" rx="4" transform="rotate(-90 285 412)" fill="#4B4B4B"/>
<g id="Exit-icons_3">
<g id="streamline:interface-logout-arrow-exit-frame-leave-logout-rectangle-right_3" clip-path="url(#clip13_659_1154)">
<path id="Vector_9" d="M326.737 405.548V406.977C326.737 407.166 326.662 407.348 326.528 407.482C326.394 407.616 326.212 407.691 326.023 407.691H321.023C320.833 407.691 320.652 407.616 320.518 407.482C320.384 407.348 320.309 407.166 320.309 406.977L320.452 399.048C320.452 398.859 320.384 398.748 320.518 398.614C320.652 398.481 320.833 398.405 321.023 398.405H326.023C326.212 398.405 326.394 398.481 326.528 398.614C326.662 398.748 326.737 398.93 326.737 399.12V400.548M324.594 403.048H329.594M329.594 403.048L328.166 401.62M329.594 403.048L328.166 404.477" stroke="white" stroke-width="0.7" stroke-linecap="round" stroke-linejoin="round"/>
</g>
<g id="Frame 50_5">
<rect width="5.16129" height="3.87097" transform="translate(317.983 400.564)" fill="#4B4B4B"/>
</g>
<g id="Fire Run Away_3" clip-path="url(#clip14_659_1154)">
<path id="Vector_10" d="M318.614 399.529C319.337 399.529 319.924 398.941 319.924 398.219C319.924 397.496 319.337 396.908 318.614 396.908C317.891 396.908 317.303 397.496 317.303 398.219C317.303 398.941 317.891 399.529 318.614 399.529ZM318.614 397.513C319.003 397.513 319.319 397.83 319.319 398.219C319.319 398.608 319.003 398.924 318.614 398.924C318.225 398.924 317.908 398.608 317.908 398.219C317.908 397.83 318.225 397.513 318.614 397.513ZM317.02 408.851C317.416 408.851 317.763 408.597 317.884 408.22C318.375 406.684 318.644 405.381 318.655 405.327C318.708 405.069 318.647 404.802 318.488 404.594C318.47 404.569 318.062 404.041 317.394 403.513C317.544 403.177 317.768 402.713 318.034 402.257C318.04 402.27 318.047 402.283 318.053 402.296L318.346 402.918C318.495 403.235 318.816 403.439 319.167 403.439C319.294 403.439 319.418 403.413 319.535 403.361L321.215 402.615C321.44 402.514 321.613 402.331 321.697 402.099C321.783 401.867 321.771 401.616 321.663 401.392C321.452 400.955 320.91 400.764 320.454 400.967L319.605 401.345C319.203 400.601 318.558 400.024 317.768 399.708C317.013 399.405 316.168 399.368 315.389 399.602C314.573 399.853 313.854 400.373 313.362 401.067L312.827 401.822C312.687 402.02 312.633 402.26 312.674 402.499C312.716 402.738 312.848 402.947 313.045 403.086C313.227 403.214 313.447 403.27 313.667 403.246C313.834 403.228 313.953 403.079 313.935 402.912C313.917 402.746 313.767 402.627 313.602 402.644C313.528 402.652 313.454 402.633 313.394 402.591C313.328 402.544 313.284 402.475 313.27 402.395C313.256 402.315 313.274 402.236 313.321 402.169L313.855 401.415C314.27 400.832 314.877 400.392 315.563 400.181C316.21 399.988 316.913 400.019 317.542 400.27C318.251 400.553 318.82 401.091 319.146 401.781L319.187 401.868C319.258 402.017 319.433 402.082 319.584 402.015L320.698 401.519C320.859 401.448 321.047 401.508 321.117 401.654C321.153 401.729 321.157 401.812 321.128 401.89C321.1 401.968 321.042 402.029 320.967 402.062L319.287 402.808C319.14 402.874 318.959 402.804 318.891 402.661L318.599 402.039C318.509 401.849 318.392 401.668 318.252 401.504C318.19 401.431 318.098 401.393 318.003 401.398C317.908 401.404 317.821 401.455 317.769 401.534C317.325 402.209 316.966 402.971 316.742 403.491C316.686 403.621 316.728 403.771 316.842 403.855C317.555 404.376 317.988 404.938 318.006 404.962C318.059 405.031 318.079 405.12 318.061 405.206C318.05 405.259 317.788 406.531 317.306 408.036C317.266 408.162 317.15 408.247 317.018 408.247C316.975 408.247 316.931 408.237 316.89 408.219C316.755 408.156 316.688 407.985 316.738 407.828C317.069 406.785 317.297 405.845 317.404 405.377C317.426 405.28 317.399 405.179 317.333 405.106C317.075 404.826 316.656 404.423 316.117 404.099C315.974 404.013 315.788 404.059 315.701 404.203C315.617 404.345 315.663 404.53 315.806 404.617C316.227 404.869 316.569 405.183 316.779 405.399C316.664 405.893 316.454 406.728 316.162 407.643C316.019 408.094 316.224 408.578 316.638 408.767C316.761 408.823 316.889 408.851 317.02 408.851Z" fill="white"/>
<path id="Vector_11" d="M313.288 408.851C313.525 408.851 313.763 408.758 313.94 408.575C314.191 408.315 315.464 406.971 315.818 406.017C315.864 405.895 315.902 405.741 315.934 405.545C315.962 405.381 315.851 405.225 315.686 405.197C315.522 405.169 315.366 405.28 315.338 405.445C315.305 405.638 315.272 405.748 315.251 405.807C314.992 406.504 314.032 407.61 313.506 408.154C313.39 408.274 313.198 408.277 313.079 408.161C312.959 408.045 312.956 407.854 313.071 407.734C313.441 407.351 314.453 406.221 314.684 405.596C314.79 405.313 314.844 404.365 314.852 403.834C314.852 403.816 314.854 403.797 314.858 403.779C314.868 403.727 315.12 402.489 315.773 401.29C315.853 401.144 315.799 400.96 315.652 400.88C315.506 400.801 315.321 400.854 315.242 401.001C314.545 402.28 314.276 403.606 314.265 403.662C314.255 403.716 314.249 403.77 314.248 403.825C314.236 404.527 314.167 405.254 314.118 405.386C313.971 405.783 313.234 406.697 312.637 407.315C312.289 407.674 312.299 408.249 312.658 408.597C312.833 408.766 313.06 408.851 313.288 408.851Z" fill="white"/>
</g>
</g>
</g>
</g>
<g id="Frame 52_2">
<rect x="285.5" y="338.5" width="68" height="48" rx="3.5" stroke="white"/>
<text id="E. CR 605" transform="translate(302 358)" fill="white" xml:space="preserve" style="white-space: pre" font-family="Poppins" font-size="8" letter-spacing="0em"><tspan x="0.390625" y="8.8">E. CR 605</tspan></text>
</g>
<g id="Frame 55_3">
<g clip-path="url(#clip15_659_1154)">
<rect x="-0.5" y="-0.5" width="40" height="68" rx="3.5" transform="matrix(0 -1 -1 0 353 331)" stroke="white"/>
<text id="E. CL 603" transform="translate(303 305.5)" fill="white" xml:space="preserve" style="white-space: pre" font-family="Poppins" font-size="8" letter-spacing="0em"><tspan x="0.253906" y="8.8">E. CL 603</tspan></text>
</g>
</g>
<g id="Frame 56_3">
<g clip-path="url(#clip16_659_1154)">
<rect x="-0.5" y="-0.5" width="40" height="68" rx="3.5" transform="matrix(0 -1 -1 0 353 284)" stroke="white"/>
<text id="E. CL 602" transform="translate(303 258.5)" fill="white" xml:space="preserve" style="white-space: pre" font-family="Poppins" font-size="8" letter-spacing="0em"><tspan x="0.308594" y="8.8">E. CL 602</tspan></text>
</g>
</g>
<g id="Group 1261153515_2">
<g id="Frame 50_6">
<rect x="285" y="238" width="19" height="69" rx="4" transform="rotate(-90 285 238)" fill="#4B4B4B"/>
</g>
<g id="Exit-icons_4">
<g id="streamline:interface-logout-arrow-exit-frame-leave-logout-rectangle-right_4" clip-path="url(#clip17_659_1154)">
<path id="Vector_12" d="M326.786 231.139V232.647C326.786 232.847 326.711 233.038 326.577 233.18C326.443 233.321 326.261 233.401 326.072 233.401H321.072C320.882 233.401 320.701 233.321 320.567 233.18C320.433 233.038 320.357 232.847 320.357 232.647L320.5 224.278C320.5 224.078 320.433 223.961 320.567 223.82C320.701 223.679 320.882 223.599 321.072 223.599H326.072C326.261 223.599 326.443 223.679 326.577 223.82C326.711 223.961 326.786 224.153 326.786 224.353V225.861M324.643 228.5H329.643M329.643 228.5L328.215 226.992M329.643 228.5L328.215 230.008" stroke="white" stroke-width="0.7" stroke-linecap="round" stroke-linejoin="round"/>
</g>
<g id="Frame 50_7">
<rect width="5.16129" height="4.08602" transform="translate(318.032 225.878)" fill="#4B4B4B"/>
</g>
<g id="Fire Run Away_4" clip-path="url(#clip18_659_1154)">
<path id="Vector_13" d="M318.663 224.785C319.385 224.785 319.973 224.165 319.973 223.402C319.973 222.639 319.385 222.019 318.663 222.019C317.94 222.019 317.352 222.639 317.352 223.402C317.352 224.165 317.94 224.785 318.663 224.785ZM318.663 222.657C319.052 222.657 319.368 222.991 319.368 223.402C319.368 223.813 319.052 224.147 318.663 224.147C318.273 224.147 317.957 223.813 317.957 223.402C317.957 222.991 318.273 222.657 318.663 222.657ZM317.069 234.625C317.465 234.625 317.812 234.356 317.933 233.958C318.424 232.338 318.693 230.962 318.704 230.905C318.756 230.633 318.696 230.351 318.537 230.131C318.518 230.105 318.111 229.548 317.443 228.99C317.593 228.636 317.817 228.145 318.083 227.665C318.089 227.678 318.096 227.692 318.102 227.706L318.394 228.363C318.544 228.697 318.865 228.913 319.216 228.913C319.343 228.913 319.467 228.885 319.584 228.83L321.263 228.042C321.489 227.936 321.662 227.742 321.746 227.497C321.832 227.253 321.82 226.988 321.712 226.752C321.501 226.29 320.959 226.089 320.503 226.302L319.654 226.702C319.252 225.916 318.607 225.308 317.817 224.973C317.062 224.654 316.217 224.615 315.438 224.862C314.622 225.127 313.903 225.676 313.411 226.409L312.876 227.205C312.736 227.414 312.682 227.668 312.723 227.92C312.764 228.172 312.896 228.392 313.094 228.539C313.275 228.674 313.496 228.734 313.716 228.708C313.882 228.689 314.002 228.532 313.984 228.356C313.966 228.181 313.816 228.055 313.65 228.073C313.577 228.082 313.503 228.061 313.443 228.017C313.377 227.968 313.333 227.894 313.319 227.81C313.305 227.726 313.323 227.642 313.37 227.572L313.904 226.776C314.319 226.16 314.926 225.696 315.612 225.474C316.258 225.269 316.962 225.302 317.591 225.567C318.3 225.866 318.869 226.433 319.195 227.162L319.236 227.254C319.307 227.411 319.482 227.479 319.632 227.409L320.747 226.886C320.908 226.81 321.096 226.874 321.166 227.028C321.202 227.107 321.206 227.195 321.177 227.277C321.148 227.359 321.091 227.424 321.015 227.459L319.336 228.247C319.189 228.316 319.007 228.242 318.94 228.091L318.647 227.435C318.558 227.234 318.441 227.043 318.301 226.87C318.239 226.793 318.146 226.753 318.052 226.758C317.957 226.764 317.87 226.818 317.818 226.902C317.374 227.613 317.014 228.418 316.791 228.967C316.735 229.104 316.776 229.263 316.89 229.351C317.604 229.901 318.037 230.495 318.055 230.519C318.108 230.593 318.128 230.686 318.11 230.777C318.099 230.833 317.837 232.176 317.355 233.765C317.315 233.898 317.199 233.987 317.067 233.987C317.023 233.987 316.98 233.977 316.939 233.957C316.804 233.891 316.737 233.711 316.787 233.545C317.118 232.444 317.346 231.452 317.453 230.958C317.475 230.856 317.448 230.749 317.381 230.672C317.124 230.376 316.705 229.951 316.166 229.609C316.022 229.518 315.837 229.567 315.75 229.718C315.666 229.868 315.712 230.064 315.855 230.155C316.275 230.422 316.618 230.753 316.828 230.981C316.713 231.503 316.503 232.384 316.211 233.35C316.068 233.825 316.272 234.336 316.687 234.536C316.81 234.595 316.938 234.625 317.069 234.625Z" fill="white"/>
<path id="Vector_14" d="M313.337 234.624C313.574 234.624 313.812 234.526 313.989 234.333C314.24 234.058 315.512 232.64 315.867 231.633C315.913 231.505 315.951 231.342 315.983 231.135C316.01 230.962 315.9 230.797 315.735 230.767C315.571 230.738 315.415 230.855 315.386 231.029C315.354 231.233 315.321 231.349 315.3 231.411C315.041 232.147 314.081 233.315 313.555 233.889C313.439 234.016 313.247 234.019 313.127 233.897C313.007 233.774 313.004 233.572 313.12 233.445C313.49 233.041 314.501 231.848 314.733 231.189C314.839 230.89 314.892 229.889 314.901 229.329C314.901 229.309 314.903 229.29 314.907 229.271C314.917 229.216 315.169 227.909 315.822 226.644C315.902 226.49 315.848 226.295 315.701 226.211C315.555 226.127 315.37 226.183 315.291 226.338C314.594 227.689 314.325 229.088 314.314 229.148C314.304 229.204 314.298 229.261 314.297 229.319C314.285 230.061 314.216 230.828 314.167 230.967C314.019 231.386 313.283 232.35 312.686 233.003C312.338 233.383 312.348 233.989 312.707 234.356C312.881 234.535 313.109 234.624 313.337 234.624Z" fill="white"/>
</g>
</g>
</g>
<g id="Frame 51_3">
<g clip-path="url(#clip19_659_1154)">
<rect x="285.5" y="167.5" width="68" height="45" rx="3.5" stroke="white"/>
<text id="Basic Communication Lab" transform="translate(282 172)" fill="white" xml:space="preserve" style="white-space: pre" font-family="Poppins" font-size="8" letter-spacing="0em"><tspan x="26.8398" y="8.8">Basic&#10;</tspan><tspan x="4.81641" y="20.8">Communication&#10;</tspan><tspan x="30.3672" y="32.8">Lab</tspan></text>
</g>
</g>
<g id="Frame 53_2">
<g clip-path="url(#clip20_659_1154)">
<rect x="285.5" y="115.5" width="68" height="45" rx="3.5" stroke="white"/>
<text id="Advance Communication Lab" transform="translate(285 120)" fill="white" xml:space="preserve" style="white-space: pre" font-family="Poppins" font-size="8" letter-spacing="0em"><tspan x="17.1875" y="8.8">Advance&#10;</tspan><tspan x="2.31641" y="20.8">Communication</tspan><tspan x="27.8672" y="32.8">Lab</tspan></text>
</g>
</g>
</g>
</g>
<defs>
<clipPath id="clip0_659_1154">
<rect width="10" height="10" fill="white" transform="translate(206 37)"/>
</clipPath>
<clipPath id="clip1_659_1154">
<rect width="12.9032" height="12.9032" fill="white" transform="matrix(-1 0 0 1 207.903 35)"/>
</clipPath>
<clipPath id="clip2_659_1154">
<rect x="285" y="458" width="68" height="69" rx="4" fill="white"/>
</clipPath>
<clipPath id="clip3_659_1154">
<rect width="22" height="120" rx="4" transform="matrix(0 -1 -1 0 240 412)" fill="white"/>
</clipPath>
<clipPath id="clip4_659_1154">
<rect width="91" height="120" rx="4" transform="matrix(0 -1 -1 0 240 312)" fill="white"/>
</clipPath>
<clipPath id="clip5_659_1154">
<rect width="22" height="120" rx="4" transform="matrix(0 -1 -1 0 240 140)" fill="white"/>
</clipPath>
<clipPath id="clip6_659_1154">
<rect width="10" height="10.5556" fill="white" transform="matrix(-1 0 0 1 41 394.801)"/>
</clipPath>
<clipPath id="clip7_659_1154">
<rect width="12.9032" height="13.6201" fill="white" transform="translate(39.0967 392.69)"/>
</clipPath>
<clipPath id="clip8_659_1154">
<rect x="7" y="382" width="35" height="69" rx="4" transform="rotate(-90 7 382)" fill="white"/>
</clipPath>
<clipPath id="clip9_659_1154">
<rect width="55" height="69" rx="4" transform="matrix(0 -1 -1 0 76 339)" fill="white"/>
</clipPath>
<clipPath id="clip10_659_1154">
<rect width="41" height="69" rx="4" transform="matrix(0 -1 -1 0 76 276)" fill="white"/>
</clipPath>
<clipPath id="clip11_659_1154">
<rect width="41" height="69" rx="4" transform="matrix(0 -1 -1 0 76 227)" fill="white"/>
</clipPath>
<clipPath id="clip12_659_1154">
<rect x="285" y="412" width="19" height="69" rx="4" transform="rotate(-90 285 412)" fill="white"/>
</clipPath>
<clipPath id="clip13_659_1154">
<rect width="10" height="10" fill="white" transform="translate(319.951 398.048)"/>
</clipPath>
<clipPath id="clip14_659_1154">
<rect width="12.9032" height="12.9032" fill="white" transform="matrix(-1 0 0 1 321.854 396.048)"/>
</clipPath>
<clipPath id="clip15_659_1154">
<rect width="41" height="69" rx="4" transform="matrix(0 -1 -1 0 354 332)" fill="white"/>
</clipPath>
<clipPath id="clip16_659_1154">
<rect width="41" height="69" rx="4" transform="matrix(0 -1 -1 0 354 285)" fill="white"/>
</clipPath>
<clipPath id="clip17_659_1154">
<rect width="10" height="10.5556" fill="white" transform="translate(320 223.222)"/>
</clipPath>
<clipPath id="clip18_659_1154">
<rect width="12.9032" height="13.6201" fill="white" transform="matrix(-1 0 0 1 321.903 221.111)"/>
</clipPath>
<clipPath id="clip19_659_1154">
<rect x="285" y="167" width="69" height="46" rx="4" fill="white"/>
</clipPath>
<clipPath id="clip20_659_1154">
<rect x="285" y="115" width="69" height="46" rx="4" fill="white"/>
</clipPath>
</defs>
</svg>
