<svg width="360" height="534" viewBox="0 0 360 534" fill="none" xmlns="http://www.w3.org/2000/svg">
<g id="Seventh Floor">
<rect x="0.5" y="0.5" width="359" height="533" rx="7.5" fill="#2B2B2B"/>
<rect x="0.5" y="0.5" width="359" height="533" rx="7.5" stroke="white"/>
<g id="Frame 45">
<g id="Frame 1000001526">
<g id="Frame 42">
<rect x="87" y="8" width="59" height="69" rx="4" fill="#4B4B4B"/>
<path id="Vector" d="M113.676 44.875V51.5H110.912V44.875V44.375H110.412H109.5V39.65C109.5 38.8767 110.128 38.25 110.882 38.25H113.706C114.461 38.25 115.088 38.8767 115.088 39.65V44.375H114.176H113.676V44.875ZM124.309 45.8H122.176H121.676V46.3V51.5H119.853V46.3V45.8H119.353H117.221L119.395 39.2081L119.395 39.2066C119.582 38.6332 120.115 38.25 120.708 38.25H120.821C121.41 38.25 121.938 38.6293 122.135 39.21L124.309 45.8ZM113.676 34.9C113.676 35.6828 113.058 36.3 112.294 36.3C111.53 36.3 110.912 35.6828 110.912 34.9C110.912 34.1172 111.53 33.5 112.294 33.5C113.058 33.5 113.676 34.1172 113.676 34.9ZM122.147 34.9C122.147 35.6828 121.529 36.3 120.765 36.3C120.001 36.3 119.382 35.6828 119.382 34.9C119.382 34.1172 120.001 33.5 120.765 33.5C121.529 33.5 122.147 34.1172 122.147 34.9Z" stroke="white"/>
</g>
<g id="Frame 43">
<rect x="153" y="8" width="59" height="69" rx="4" fill="#4B4B4B"/>
<g id="Exit-icons">
<g id="streamline:interface-logout-arrow-exit-frame-leave-logout-rectangle-right">
<path id="Vector_2" d="M189.786 45.5V46.9286C189.786 47.118 189.711 47.2997 189.577 47.4337C189.443 47.5676 189.261 47.6429 189.072 47.6429H184.072C183.882 47.6429 183.701 47.5676 183.567 47.4337C183.433 47.2997 183.357 47.118 183.357 46.9286L183.5 39C183.5 38.8106 183.433 38.7003 183.567 38.5664C183.701 38.4324 183.882 38.3572 184.072 38.3572H189.072C189.261 38.3572 189.443 38.4324 189.577 38.5664C189.711 38.7003 189.786 38.882 189.786 39.0715V40.5M187.643 43H192.643M192.643 43L191.215 41.5715M192.643 43L191.215 44.4286" stroke="white" stroke-width="0.7" stroke-linecap="round" stroke-linejoin="round"/>
</g>
<g id="Frame 50">
<rect width="5.16129" height="3.87097" transform="translate(181.032 40.5161)" fill="#4B4B4B"/>
</g>
<g id="Fire Run Away" clip-path="url(#clip0_659_1298)">
<path id="Vector_3" d="M181.663 39.4808C182.385 39.4808 182.973 38.8931 182.973 38.1703C182.973 37.4476 182.385 36.8599 181.663 36.8599C180.94 36.8599 180.352 37.4476 180.352 38.1703C180.352 38.8931 180.94 39.4808 181.663 39.4808ZM181.663 37.4647C182.052 37.4647 182.368 37.7812 182.368 38.1703C182.368 38.5595 182.052 38.876 181.663 38.876C181.273 38.876 180.957 38.5595 180.957 38.1703C180.957 37.7812 181.273 37.4647 181.663 37.4647ZM180.069 48.8024C180.465 48.8024 180.812 48.5484 180.933 48.1714C181.424 46.6361 181.693 45.3326 181.704 45.2782C181.756 45.0212 181.696 44.754 181.537 44.5453C181.518 44.5212 181.111 43.9929 180.443 43.4647C180.593 43.129 180.817 42.6643 181.083 42.2087C181.089 42.2218 181.096 42.2349 181.102 42.248L181.394 42.8699C181.544 43.1865 181.865 43.3911 182.216 43.3911C182.343 43.3911 182.467 43.3649 182.584 43.3125L184.263 42.5665C184.489 42.4657 184.662 42.2822 184.746 42.0504C184.832 41.8185 184.82 41.5675 184.712 41.3437C184.501 40.9062 183.959 40.7157 183.503 40.9183L182.654 41.2964C182.252 40.5524 181.607 39.9758 180.817 39.6593C180.062 39.3568 179.217 39.3195 178.438 39.5534C177.622 39.8044 176.903 40.3246 176.411 41.0191L175.876 41.7732C175.736 41.9718 175.682 42.2117 175.723 42.4506C175.764 42.6895 175.896 42.8982 176.094 43.0373C176.275 43.1653 176.496 43.2218 176.716 43.1976C176.882 43.1794 177.002 43.0302 176.984 42.8639C176.966 42.6976 176.816 42.5786 176.65 42.5958C176.577 42.6038 176.503 42.5847 176.443 42.5423C176.377 42.496 176.333 42.4264 176.319 42.3468C176.305 42.2671 176.323 42.1875 176.37 42.121L176.904 41.3669C177.319 40.7833 177.926 40.3437 178.612 40.133C179.258 39.9395 179.962 39.9708 180.591 40.2218C181.3 40.505 181.869 41.0423 182.195 41.7328L182.236 41.8195C182.307 41.9687 182.482 42.0333 182.632 41.9667L183.747 41.4708C183.908 41.3992 184.096 41.4597 184.166 41.6058C184.202 41.6804 184.206 41.7641 184.177 41.8417C184.148 41.9193 184.091 41.9808 184.015 42.0141L182.336 42.7601C182.189 42.8256 182.007 42.756 181.94 42.6129L181.647 41.9909C181.558 41.8004 181.441 41.6199 181.301 41.4556C181.239 41.383 181.146 41.3447 181.052 41.3498C180.957 41.3558 180.87 41.4062 180.818 41.4859C180.374 42.1603 180.014 42.9224 179.791 43.4425C179.735 43.5726 179.776 43.7228 179.89 43.8064C180.604 44.3276 181.037 44.8901 181.055 44.9133C181.108 44.9828 181.128 45.0716 181.11 45.1572C181.099 45.2107 180.837 46.4828 180.355 47.9879C180.315 48.1139 180.199 48.1986 180.067 48.1986C180.023 48.1986 179.98 48.1885 179.939 48.1703C179.804 48.1078 179.737 47.9365 179.787 47.7792C180.118 46.7369 180.346 45.7964 180.453 45.3286C180.475 45.2318 180.448 45.131 180.381 45.0574C180.124 44.7772 179.705 44.375 179.166 44.0504C179.022 43.9647 178.837 44.0111 178.75 44.1542C178.666 44.2964 178.712 44.4818 178.855 44.5685C179.275 44.8205 179.618 45.1351 179.828 45.3508C179.713 45.8447 179.503 46.6794 179.211 47.5947C179.068 48.0453 179.272 48.5292 179.687 48.7187C179.81 48.7742 179.938 48.8024 180.069 48.8024Z" fill="white"/>
<path id="Vector_4" d="M176.337 48.8023C176.574 48.8023 176.812 48.7096 176.989 48.5261C177.24 48.266 178.512 46.9223 178.867 45.9687C178.913 45.8467 178.951 45.6924 178.983 45.4969C179.01 45.3326 178.9 45.1763 178.735 45.1481C178.571 45.1209 178.415 45.2318 178.386 45.3961C178.354 45.5896 178.321 45.6995 178.3 45.758C178.041 46.4555 177.081 47.5614 176.555 48.1057C176.439 48.2257 176.247 48.2287 176.127 48.1128C176.007 47.9969 176.004 47.8053 176.12 47.6854C176.49 47.3023 177.501 46.1723 177.733 45.5473C177.839 45.264 177.892 44.3164 177.901 43.7852C177.901 43.767 177.903 43.7489 177.907 43.7307C177.917 43.6783 178.169 42.4404 178.822 41.2418C178.902 41.0957 178.848 40.9112 178.701 40.8316C178.555 40.7519 178.37 40.8053 178.291 40.9525C177.594 42.2318 177.325 43.5574 177.314 43.6138C177.304 43.6672 177.298 43.7217 177.297 43.7761C177.285 44.4787 177.216 45.2055 177.167 45.3376C177.019 45.7348 176.283 46.6481 175.686 47.266C175.338 47.6259 175.348 48.2005 175.707 48.5483C175.881 48.7176 176.109 48.8023 176.337 48.8023Z" fill="white"/>
</g>
</g>
</g>
</g>
<g id="Frame 41">
<rect x="233.5" y="8.5" width="119" height="68" rx="3.5" stroke="white"/>
<text id="Faculty Area 701" fill="white" xml:space="preserve" style="white-space: pre" font-family="Urbanist" font-size="8" letter-spacing="0em"><tspan x="265.23" y="45.8">Faculty Area 701</tspan></text>
</g>
</g>
<g id="Frame 46">
<g id="Frame 55">
<g id="Frame 43_2">
<rect x="6.5" y="458.5" width="67" height="68" rx="3.5" stroke="white"/>
<text id="E. CC 701" fill="white" xml:space="preserve" style="white-space: pre" font-family="Poppins" font-size="8" letter-spacing="0em"><tspan x="23.3203" y="495.8">E. CC 701</tspan></text>
</g>
<g id="Frame 44">
<rect x="80.5" y="458.5" width="67" height="68" rx="3.5" stroke="white"/>
<text id="E. CR 701" fill="white" xml:space="preserve" style="white-space: pre" font-family="Poppins" font-size="8" letter-spacing="0em"><tspan x="96.9766" y="495.8">E. CR 701</tspan></text>
</g>
</g>
<g id="Frame 56">
<g id="Frame 46_2">
<rect x="211.5" y="458.5" width="67" height="68" rx="3.5" stroke="white"/>
<text id="AR/VR LAB" fill="white" xml:space="preserve" style="white-space: pre" font-family="Poppins" font-size="8" letter-spacing="0em"><tspan x="225.391" y="495.8">AR/VR LAB</tspan></text>
</g>
<g id="Frame 45_2">
<g clip-path="url(#clip1_659_1298)">
<g id="Frame 44_2">
<rect x="285.5" y="458.5" width="67" height="68" rx="3.5" stroke="white"/>
<text id="E. CL 705" fill="white" xml:space="preserve" style="white-space: pre" font-family="Poppins" font-size="8" letter-spacing="0em"><tspan x="302.453" y="495.8">E. CL 705</tspan></text>
</g>
</g>
<rect x="285.5" y="458.5" width="67" height="68" rx="3.5" stroke="white"/>
</g>
</g>
</g>
<g id="Frame 47">
<g id="Frame 50_2">
<g clip-path="url(#clip2_659_1298)">
<rect x="285" y="411.5" width="18" height="69" rx="4" transform="rotate(-90 285 411.5)" fill="#4B4B4B"/>
<g id="Exit-icons_2">
<g id="streamline:interface-logout-arrow-exit-frame-leave-logout-rectangle-right_2" clip-path="url(#clip3_659_1298)">
<path id="Vector_5" d="M326.737 405.048V406.477C326.737 406.666 326.662 406.848 326.528 406.982C326.394 407.116 326.212 407.191 326.023 407.191H321.023C320.833 407.191 320.652 407.116 320.518 406.982C320.384 406.848 320.309 406.666 320.309 406.477L320.452 398.548C320.452 398.359 320.384 398.248 320.518 398.114C320.652 397.981 320.833 397.905 321.023 397.905H326.023C326.212 397.905 326.394 397.981 326.528 398.114C326.662 398.248 326.737 398.43 326.737 398.62V400.048M324.594 402.548H329.594M329.594 402.548L328.166 401.12M329.594 402.548L328.166 403.977" stroke="white" stroke-width="0.7" stroke-linecap="round" stroke-linejoin="round"/>
</g>
<g id="Frame 50_3">
<rect width="5.16129" height="3.87097" transform="translate(317.983 400.064)" fill="#4B4B4B"/>
</g>
<g id="Fire Run Away_2" clip-path="url(#clip4_659_1298)">
<path id="Vector_6" d="M318.614 399.029C319.337 399.029 319.924 398.441 319.924 397.719C319.924 396.996 319.337 396.408 318.614 396.408C317.891 396.408 317.303 396.996 317.303 397.719C317.303 398.441 317.891 399.029 318.614 399.029ZM318.614 397.013C319.003 397.013 319.319 397.33 319.319 397.719C319.319 398.108 319.003 398.424 318.614 398.424C318.225 398.424 317.908 398.108 317.908 397.719C317.908 397.33 318.225 397.013 318.614 397.013ZM317.02 408.351C317.416 408.351 317.763 408.097 317.884 407.72C318.375 406.184 318.644 404.881 318.655 404.827C318.708 404.569 318.647 404.302 318.488 404.094C318.47 404.069 318.062 403.541 317.394 403.013C317.544 402.677 317.768 402.213 318.034 401.757C318.04 401.77 318.047 401.783 318.053 401.796L318.346 402.418C318.495 402.735 318.816 402.939 319.167 402.939C319.294 402.939 319.418 402.913 319.535 402.861L321.215 402.115C321.44 402.014 321.613 401.831 321.697 401.599C321.783 401.367 321.771 401.116 321.663 400.892C321.452 400.455 320.91 400.264 320.454 400.467L319.605 400.845C319.203 400.101 318.558 399.524 317.768 399.208C317.013 398.905 316.168 398.868 315.389 399.102C314.573 399.353 313.854 399.873 313.362 400.567L312.827 401.322C312.687 401.52 312.633 401.76 312.674 401.999C312.716 402.238 312.848 402.447 313.045 402.586C313.227 402.714 313.447 402.77 313.667 402.746C313.834 402.728 313.953 402.579 313.935 402.412C313.917 402.246 313.767 402.127 313.602 402.144C313.528 402.152 313.454 402.133 313.394 402.091C313.328 402.044 313.284 401.975 313.27 401.895C313.256 401.815 313.274 401.736 313.321 401.669L313.855 400.915C314.27 400.332 314.877 399.892 315.563 399.681C316.21 399.488 316.913 399.519 317.542 399.77C318.251 400.053 318.82 400.591 319.146 401.281L319.187 401.368C319.258 401.517 319.433 401.582 319.584 401.515L320.698 401.019C320.859 400.948 321.047 401.008 321.117 401.154C321.153 401.229 321.157 401.312 321.128 401.39C321.1 401.468 321.042 401.529 320.967 401.562L319.287 402.308C319.14 402.374 318.959 402.304 318.891 402.161L318.599 401.539C318.509 401.349 318.392 401.168 318.252 401.004C318.19 400.931 318.098 400.893 318.003 400.898C317.908 400.904 317.821 400.955 317.769 401.034C317.325 401.709 316.966 402.471 316.742 402.991C316.686 403.121 316.728 403.271 316.842 403.355C317.555 403.876 317.988 404.438 318.006 404.462C318.059 404.531 318.079 404.62 318.061 404.706C318.05 404.759 317.788 406.031 317.306 407.536C317.266 407.662 317.15 407.747 317.018 407.747C316.975 407.747 316.931 407.737 316.89 407.719C316.755 407.656 316.688 407.485 316.738 407.328C317.069 406.285 317.297 405.345 317.404 404.877C317.426 404.78 317.399 404.679 317.333 404.606C317.075 404.326 316.656 403.923 316.117 403.599C315.974 403.513 315.788 403.559 315.701 403.703C315.617 403.845 315.663 404.03 315.806 404.117C316.227 404.369 316.569 404.683 316.779 404.899C316.664 405.393 316.454 406.228 316.162 407.143C316.019 407.594 316.224 408.078 316.638 408.267C316.761 408.323 316.889 408.351 317.02 408.351Z" fill="white"/>
<path id="Vector_7" d="M313.288 408.351C313.525 408.351 313.763 408.258 313.94 408.075C314.191 407.815 315.464 406.471 315.818 405.517C315.864 405.395 315.902 405.241 315.934 405.045C315.962 404.881 315.851 404.725 315.686 404.697C315.522 404.669 315.366 404.78 315.338 404.945C315.305 405.138 315.272 405.248 315.251 405.307C314.992 406.004 314.032 407.11 313.506 407.654C313.39 407.774 313.198 407.777 313.079 407.661C312.959 407.545 312.956 407.354 313.071 407.234C313.441 406.851 314.453 405.721 314.684 405.096C314.79 404.813 314.844 403.865 314.852 403.334C314.852 403.316 314.854 403.297 314.858 403.279C314.868 403.227 315.12 401.989 315.773 400.79C315.853 400.644 315.799 400.46 315.652 400.38C315.506 400.301 315.321 400.354 315.242 400.501C314.545 401.78 314.276 403.106 314.265 403.162C314.255 403.216 314.249 403.27 314.248 403.325C314.236 404.027 314.167 404.754 314.118 404.886C313.971 405.283 313.234 406.197 312.637 406.815C312.289 407.174 312.299 407.749 312.658 408.097C312.833 408.266 313.06 408.351 313.288 408.351Z" fill="white"/>
</g>
</g>
</g>
</g>
<g id="Frame 40">
<g clip-path="url(#clip5_659_1298)">
<rect x="285.5" y="387" width="37" height="68" rx="3.5" transform="rotate(-90 285.5 387)" stroke="white"/>
<text id="E. CL 704" transform="translate(302 363.5)" fill="white" xml:space="preserve" style="white-space: pre" font-family="Inter" font-size="8" letter-spacing="0em"><tspan x="0.308594" y="7.90909">E. CL 704</tspan></text>
</g>
</g>
<g id="Frame 51">
<g clip-path="url(#clip6_659_1298)">
<rect x="285.5" y="343" width="37" height="68" rx="3.5" transform="rotate(-90 285.5 343)" stroke="white"/>
<text id="E. CL 703" transform="translate(302 319.5)" fill="white" xml:space="preserve" style="white-space: pre" font-family="Inter" font-size="8" letter-spacing="0em"><tspan x="0.328125" y="7.90909">E. CL 703</tspan></text>
</g>
</g>
<g id="Frame 52">
<g clip-path="url(#clip7_659_1298)">
<rect x="285.5" y="299" width="36" height="68" rx="3.5" transform="rotate(-90 285.5 299)" stroke="white"/>
<text id="E. CL 702" transform="translate(302 275.5)" fill="white" xml:space="preserve" style="white-space: pre" font-family="Inter" font-size="8" letter-spacing="0em"><tspan x="0.453125" y="7.90909">E. CL 702</tspan></text>
</g>
</g>
<g id="Frame 53">
<g clip-path="url(#clip8_659_1298)">
<rect x="285.5" y="256" width="38" height="68" rx="3.5" transform="rotate(-90 285.5 256)" stroke="white"/>
<text id="E. CL 701" transform="translate(303 231.5)" fill="white" xml:space="preserve" style="white-space: pre" font-family="Inter" font-size="8" letter-spacing="0em"><tspan x="0.015625" y="7.90909">E. CL 701</tspan></text>
</g>
</g>
<g id="Group 1261153515">
<g id="Frame 50_4">
<rect x="285" y="211.5" width="18" height="69" rx="4" transform="rotate(-90 285 211.5)" fill="#4B4B4B"/>
</g>
<g id="Exit-icons_3">
<g id="streamline:interface-logout-arrow-exit-frame-leave-logout-rectangle-right_3" clip-path="url(#clip9_659_1298)">
<path id="Vector_8" d="M326.786 205V206.428C326.786 206.618 326.711 206.799 326.577 206.933C326.443 207.067 326.261 207.143 326.072 207.143H321.072C320.882 207.143 320.701 207.067 320.567 206.933C320.433 206.799 320.357 206.618 320.357 206.428L320.5 198.5C320.5 198.31 320.433 198.2 320.567 198.066C320.701 197.932 320.882 197.857 321.072 197.857H326.072C326.261 197.857 326.443 197.932 326.577 198.066C326.711 198.2 326.786 198.382 326.786 198.571V200M324.643 202.5H329.643M329.643 202.5L328.215 201.071M329.643 202.5L328.215 203.928" stroke="white" stroke-width="0.7" stroke-linecap="round" stroke-linejoin="round"/>
</g>
<g id="Frame 50_5">
<rect width="5.16129" height="3.87097" transform="translate(318.032 200.016)" fill="#4B4B4B"/>
</g>
<g id="Fire Run Away_3" clip-path="url(#clip10_659_1298)">
<path id="Vector_9" d="M318.663 198.981C319.385 198.981 319.973 198.393 319.973 197.67C319.973 196.948 319.385 196.36 318.663 196.36C317.94 196.36 317.352 196.948 317.352 197.67C317.352 198.393 317.94 198.981 318.663 198.981ZM318.663 196.965C319.052 196.965 319.368 197.281 319.368 197.67C319.368 198.059 319.052 198.376 318.663 198.376C318.273 198.376 317.957 198.059 317.957 197.67C317.957 197.281 318.273 196.965 318.663 196.965ZM317.069 208.302C317.465 208.302 317.812 208.048 317.933 207.671C318.424 206.136 318.693 204.833 318.704 204.778C318.756 204.521 318.696 204.254 318.537 204.045C318.518 204.021 318.111 203.493 317.443 202.965C317.593 202.629 317.817 202.164 318.083 201.709C318.089 201.722 318.096 201.735 318.102 201.748L318.394 202.37C318.544 202.686 318.865 202.891 319.216 202.891C319.343 202.891 319.467 202.865 319.584 202.812L321.263 202.067C321.489 201.966 321.662 201.782 321.746 201.55C321.832 201.319 321.82 201.068 321.712 200.844C321.501 200.406 320.959 200.216 320.503 200.418L319.654 200.796C319.252 200.052 318.607 199.476 317.817 199.159C317.062 198.857 316.217 198.82 315.438 199.053C314.622 199.304 313.903 199.825 313.411 200.519L312.876 201.273C312.736 201.472 312.682 201.712 312.723 201.951C312.764 202.19 312.896 202.398 313.094 202.537C313.275 202.665 313.496 202.722 313.716 202.698C313.882 202.679 314.002 202.53 313.984 202.364C313.966 202.198 313.816 202.079 313.65 202.096C313.577 202.104 313.503 202.085 313.443 202.042C313.377 201.996 313.333 201.926 313.319 201.847C313.305 201.767 313.323 201.687 313.37 201.621L313.904 200.867C314.319 200.283 314.926 199.844 315.612 199.633C316.258 199.44 316.962 199.471 317.591 199.722C318.3 200.005 318.869 200.542 319.195 201.233L319.236 201.32C319.307 201.469 319.482 201.533 319.632 201.467L320.747 200.971C320.908 200.899 321.096 200.96 321.166 201.106C321.202 201.18 321.206 201.264 321.177 201.342C321.148 201.419 321.091 201.481 321.015 201.514L319.336 202.26C319.189 202.326 319.007 202.256 318.94 202.113L318.647 201.491C318.558 201.3 318.441 201.12 318.301 200.956C318.239 200.883 318.146 200.845 318.052 200.85C317.957 200.856 317.87 200.906 317.818 200.986C317.374 201.66 317.014 202.422 316.791 202.943C316.735 203.073 316.776 203.223 316.89 203.306C317.604 203.828 318.037 204.39 318.055 204.413C318.108 204.483 318.128 204.572 318.11 204.657C318.099 204.711 317.837 205.983 317.355 207.488C317.315 207.614 317.199 207.699 317.067 207.699C317.023 207.699 316.98 207.688 316.939 207.67C316.804 207.608 316.737 207.436 316.787 207.279C317.118 206.237 317.346 205.296 317.453 204.829C317.475 204.732 317.448 204.631 317.381 204.557C317.124 204.277 316.705 203.875 316.166 203.55C316.022 203.465 315.837 203.511 315.75 203.654C315.666 203.796 315.712 203.982 315.855 204.069C316.275 204.321 316.618 204.635 316.828 204.851C316.713 205.345 316.503 206.179 316.211 207.095C316.068 207.545 316.272 208.029 316.687 208.219C316.81 208.274 316.938 208.302 317.069 208.302Z" fill="white"/>
<path id="Vector_10" d="M313.337 208.303C313.574 208.303 313.812 208.21 313.989 208.026C314.24 207.766 315.512 206.423 315.867 205.469C315.913 205.347 315.951 205.193 315.983 204.997C316.01 204.833 315.9 204.677 315.735 204.648C315.571 204.621 315.415 204.732 315.386 204.896C315.354 205.09 315.321 205.2 315.3 205.258C315.041 205.956 314.081 207.062 313.555 207.606C313.439 207.726 313.247 207.729 313.127 207.613C313.007 207.497 313.004 207.306 313.12 207.186C313.49 206.803 314.501 205.673 314.733 205.048C314.839 204.764 314.892 203.817 314.901 203.285C314.901 203.267 314.903 203.249 314.907 203.231C314.917 203.179 315.169 201.941 315.822 200.742C315.902 200.596 315.848 200.411 315.701 200.332C315.555 200.252 315.37 200.306 315.291 200.453C314.594 201.732 314.325 203.058 314.314 203.114C314.304 203.167 314.298 203.222 314.297 203.276C314.285 203.979 314.216 204.706 314.167 204.838C314.019 205.235 313.283 206.148 312.686 206.766C312.338 207.126 312.348 207.701 312.707 208.049C312.881 208.218 313.109 208.303 313.337 208.303Z" fill="white"/>
</g>
</g>
</g>
<g id="Frame 45_3">
<rect x="285.5" y="119" width="68" height="68" rx="3.5" stroke="white"/>
<text id="E. CR 702" transform="translate(302 147.5)" fill="white" xml:space="preserve" style="white-space: pre" font-family="Poppins" font-size="8" letter-spacing="0em"><tspan x="0.457031" y="8.8">E. CR 702</tspan></text>
</g>
</g>
<g id="Frame 48">
<g id="Group 1261153515_2">
<g id="Frame 50_6">
<rect x="9" y="410" width="18" height="69" rx="4" transform="rotate(-90 9 410)" fill="#4B4B4B"/>
</g>
<g id="Exit-icons_4">
<g id="streamline:interface-logout-arrow-exit-frame-leave-logout-rectangle-right_4" clip-path="url(#clip11_659_1298)">
<path id="Vector_11" d="M36.214 404.048V405.477C36.214 405.666 36.2893 405.848 36.4232 405.982C36.5572 406.116 36.7389 406.191 36.9283 406.191H41.9283C42.1177 406.191 42.2994 406.116 42.4334 405.982C42.5673 405.848 42.6426 405.666 42.6426 405.477L42.4995 397.548C42.4995 397.359 42.5673 397.248 42.4334 397.114C42.2994 396.981 42.1177 396.905 41.9283 396.905H36.9283C36.7389 396.905 36.5572 396.981 36.4232 397.114C36.2893 397.248 36.214 397.43 36.214 397.62V399.048M38.3569 401.548H33.3569M33.3569 401.548L34.7854 400.12M33.3569 401.548L34.7854 402.977" stroke="white" stroke-width="0.7" stroke-linecap="round" stroke-linejoin="round"/>
</g>
<g id="Frame 50_7">
<rect width="5.16129" height="3.87097" transform="matrix(-1 0 0 1 44.9678 399.064)" fill="#4B4B4B"/>
</g>
<g id="Fire Run Away_4" clip-path="url(#clip12_659_1298)">
<path id="Vector_12" d="M44.3374 398.029C43.6146 398.029 43.0269 397.441 43.0269 396.719C43.0269 395.996 43.6146 395.408 44.3374 395.408C45.0602 395.408 45.6479 395.996 45.6479 396.719C45.6479 397.441 45.0602 398.029 44.3374 398.029ZM44.3374 396.013C43.9483 396.013 43.6318 396.33 43.6318 396.719C43.6318 397.108 43.9483 397.424 44.3374 397.424C44.7265 397.424 45.0431 397.108 45.0431 396.719C45.0431 396.33 44.7265 396.013 44.3374 396.013ZM45.9312 407.351C45.535 407.351 45.1882 407.097 45.0673 406.72C44.5763 405.184 44.3072 403.881 44.2961 403.827C44.2437 403.569 44.3042 403.302 44.4634 403.094C44.4816 403.069 44.8888 402.541 45.5572 402.013C45.407 401.677 45.1832 401.213 44.9171 400.757C44.911 400.77 44.904 400.783 44.8979 400.796L44.6056 401.418C44.4564 401.735 44.1348 401.939 43.784 401.939C43.657 401.939 43.533 401.913 43.416 401.861L41.7366 401.115C41.5108 401.014 41.3384 400.831 41.2538 400.599C41.1681 400.367 41.1802 400.116 41.288 399.892C41.4987 399.455 42.041 399.264 42.4967 399.467L43.3465 399.845C43.7477 399.101 44.3929 398.524 45.1832 398.208C45.9382 397.905 46.783 397.868 47.5622 398.102C48.3777 398.353 49.0975 398.873 49.5894 399.567L50.1237 400.322C50.2638 400.52 50.3183 400.76 50.2769 400.999C50.2356 401.238 50.1035 401.447 49.906 401.586C49.7245 401.714 49.5037 401.77 49.284 401.746C49.1177 401.728 48.9977 401.579 49.0158 401.412C49.034 401.246 49.1842 401.127 49.3495 401.144C49.4231 401.152 49.4967 401.133 49.5572 401.091C49.6227 401.044 49.6671 400.975 49.6812 400.895C49.6953 400.815 49.6771 400.736 49.6298 400.669L49.0965 399.915C48.6812 399.332 48.0743 398.892 47.3878 398.681C46.7417 398.488 46.038 398.519 45.409 398.77C44.7003 399.053 44.1308 399.591 43.8052 400.281L43.7638 400.368C43.6933 400.517 43.5179 400.582 43.3677 400.515L42.2527 400.019C42.0925 399.948 41.904 400.008 41.8344 400.154C41.7981 400.229 41.7941 400.312 41.8233 400.39C41.8515 400.468 41.909 400.529 41.9846 400.562L43.664 401.308C43.8112 401.374 43.9927 401.304 44.0602 401.161L44.3525 400.539C44.4423 400.349 44.5592 400.168 44.6993 400.004C44.7608 399.931 44.8535 399.893 44.9483 399.898C45.0431 399.904 45.1298 399.955 45.1822 400.034C45.6257 400.709 45.9856 401.471 46.2094 401.991C46.2648 402.121 46.2235 402.271 46.1096 402.355C45.3959 402.876 44.9634 403.438 44.9453 403.462C44.8919 403.531 44.8717 403.62 44.8898 403.706C44.9009 403.759 45.163 405.031 45.6449 406.536C45.6852 406.662 45.8011 406.747 45.9332 406.747C45.9765 406.747 46.0199 406.737 46.0612 406.719C46.1963 406.656 46.2628 406.485 46.2134 406.328C45.8818 405.285 45.654 404.345 45.5471 403.877C45.5249 403.78 45.5521 403.679 45.6187 403.606C45.8757 403.326 46.2951 402.923 46.8344 402.599C46.9775 402.513 47.163 402.559 47.2497 402.703C47.3344 402.845 47.288 403.03 47.1449 403.117C46.7245 403.369 46.3818 403.683 46.1721 403.899C46.287 404.393 46.4967 405.228 46.789 406.143C46.9322 406.594 46.7275 407.078 46.3132 407.267C46.1902 407.323 46.0622 407.351 45.9312 407.351Z" fill="white"/>
<path id="Vector_13" d="M49.663 407.351C49.4261 407.351 49.1882 407.258 49.0108 407.075C48.7597 406.815 47.4876 405.471 47.1327 404.517C47.0874 404.395 47.0491 404.241 47.0168 404.045C46.9896 403.881 47.1005 403.725 47.2648 403.697C47.4291 403.669 47.5854 403.78 47.6136 403.945C47.6458 404.138 47.6791 404.248 47.7003 404.307C47.9593 405.004 48.919 406.11 49.4452 406.654C49.5612 406.774 49.7527 406.777 49.8726 406.661C49.9926 406.545 49.9956 406.354 49.8797 406.234C49.5097 405.851 48.4987 404.721 48.2668 404.096C48.161 403.813 48.1075 402.865 48.0995 402.334C48.0995 402.316 48.0974 402.297 48.0934 402.279C48.0833 402.227 47.8313 400.989 47.1781 399.79C47.0985 399.644 47.1519 399.46 47.2991 399.38C47.4452 399.301 47.6297 399.354 47.7093 399.501C48.4059 400.78 48.6751 402.106 48.6862 402.162C48.6962 402.216 48.7023 402.27 48.7033 402.325C48.7154 403.027 48.7839 403.754 48.8333 403.886C48.9805 404.283 49.7174 405.197 50.3142 405.815C50.662 406.174 50.6519 406.749 50.293 407.097C50.1186 407.266 49.8908 407.351 49.663 407.351Z" fill="white"/>
</g>
</g>
</g>
<g id="Frame 51_2">
<g clip-path="url(#clip13_659_1298)">
<rect x="9" y="386" width="35" height="69" rx="4" transform="rotate(-90 9 386)" fill="#4B4B4B"/>
<path id="Vector_14" d="M40.6765 370.875V377.5H37.9118V370.875V370.375H37.4118H36.5V365.65C36.5 364.877 37.1276 364.25 37.8824 364.25H40.7059C41.4606 364.25 42.0882 364.877 42.0882 365.65V370.375H41.1765H40.6765V370.875ZM51.3086 371.8H49.1765H48.6765V372.3V377.5H46.8529V372.3V371.8H46.3529H44.2208L46.3948 365.208L46.3953 365.207C46.5824 364.633 47.1153 364.25 47.7082 364.25H47.8212C48.4096 364.25 48.938 364.629 49.1352 365.21L51.3086 371.8ZM40.6765 360.9C40.6765 361.683 40.0583 362.3 39.2941 362.3C38.5299 362.3 37.9118 361.683 37.9118 360.9C37.9118 360.117 38.5299 359.5 39.2941 359.5C40.0583 359.5 40.6765 360.117 40.6765 360.9ZM49.1471 360.9C49.1471 361.683 48.5289 362.3 47.7647 362.3C47.0005 362.3 46.3824 361.683 46.3824 360.9C46.3824 360.117 47.0005 359.5 47.7647 359.5C48.5289 359.5 49.1471 360.117 49.1471 360.9Z" fill="#4B4B4B" stroke="white"/>
</g>
</g>
<g id="Frame 56_2">
<g clip-path="url(#clip14_659_1298)">
<rect x="-0.5" y="-0.5" width="336" height="68" rx="3.5" transform="matrix(0 -1 -1 0 77 344)" stroke="white"/>
<text id="Library" transform="translate(31 171)" fill="white" xml:space="preserve" style="white-space: pre" font-family="Poppins" font-size="8" letter-spacing="0em"><tspan x="0.144531" y="8.8">Library</tspan></text>
</g>
</g>
</g>
<g id="Frame 49">
<g id="Frame 45_4">
<g clip-path="url(#clip15_659_1298)">
<rect width="22" height="120" rx="4" transform="matrix(0 -1 -1 0 240 412)" fill="#2B2B2B"/>
<text id="Lift" fill="white" xml:space="preserve" style="white-space: pre" font-family="Poppins" font-size="11" letter-spacing="0em"><tspan x="172.459" y="404.85">Lift</tspan></text>
</g>
<rect x="-0.5" y="-0.5" width="21" height="119" rx="3.5" transform="matrix(0 -1 -1 0 239 411)" stroke="white"/>
</g>
<g id="Frame 53_2">
<g id="Frame 45_5">
<rect x="183.5" y="318.5" width="56" height="65" rx="3.5" stroke="white"/>
<text id="E. CR 703" transform="translate(194 345)" fill="white" xml:space="preserve" style="white-space: pre" font-family="Poppins" font-size="8" letter-spacing="0em"><tspan x="0.402344" y="8.8">E. CR 703</tspan></text>
</g>
<g id="Frame 44_3">
<rect x="120.5" y="318.5" width="56" height="65" rx="3.5" stroke="white"/>
<text id="E. CR 704" transform="translate(131 345)" fill="white" xml:space="preserve" style="white-space: pre" font-family="Poppins" font-size="8" letter-spacing="0em"><tspan x="0.242188" y="8.8">E. CR 704</tspan></text>
</g>
</g>
<g id="Frame 49_2">
<g clip-path="url(#clip16_659_1298)">
<rect width="91" height="120" rx="4" transform="matrix(0 -1 -1 0 240 312)" fill="#23A6F0"/>
<text id="Floor 7" fill="white" xml:space="preserve" style="white-space: pre" font-family="Poppins" font-size="20" letter-spacing="0em"><tspan x="147.852" y="273.5">Floor 7</tspan></text>
</g>
</g>
<g id="Frame 54">
<g id="Frame 45_6">
<rect x="183.5" y="146.5" width="56" height="68" rx="3.5" fill="#2B2B2B"/>
<rect x="183.5" y="146.5" width="56" height="68" rx="3.5" stroke="white"/>
<text id="E. CC 702" transform="translate(194 175)" fill="white" xml:space="preserve" style="white-space: pre" font-family="Poppins" font-size="8" letter-spacing="0em"><tspan x="0.300781" y="8.8">E. CC 702</tspan></text>
</g>
<g id="Frame 44_4">
<rect x="120.5" y="146.5" width="56" height="68" rx="3.5" stroke="white"/>
<text id="E. CL 706" transform="translate(132 175)" fill="white" xml:space="preserve" style="white-space: pre" font-family="Poppins" font-size="8" letter-spacing="0em"><tspan x="0.425781" y="8.8">E. CL 706</tspan></text>
</g>
</g>
<g id="Frame 48_2">
<g clip-path="url(#clip17_659_1298)">
<rect width="22" height="120" rx="4" transform="matrix(0 -1 -1 0 240 140)" fill="#2B2B2B"/>
<text id="Lift_2" fill="white" xml:space="preserve" style="white-space: pre" font-family="Poppins" font-size="11" letter-spacing="0em"><tspan x="172.459" y="132.85">Lift</tspan></text>
</g>
<rect x="-0.5" y="-0.5" width="21" height="119" rx="3.5" transform="matrix(0 -1 -1 0 239 139)" stroke="white"/>
</g>
</g>
<path id="Arrow 5" d="M179.646 114.354C179.842 114.549 180.158 114.549 180.354 114.354L183.536 111.172C183.731 110.976 183.731 110.66 183.536 110.464C183.34 110.269 183.024 110.269 182.828 110.464L180 113.293L177.172 110.464C176.976 110.269 176.66 110.269 176.464 110.464C176.269 110.66 176.269 110.976 176.464 111.172L179.646 114.354ZM179.5 105L179.5 114L180.5 114L180.5 105L179.5 105Z" fill="white"/>
<text id="Bhagubhai Lift Entrance" fill="white" xml:space="preserve" style="white-space: pre" font-family="Inter" font-size="8" letter-spacing="0em"><tspan x="134.297" y="99.4091">Bhagubhai Lift Entrance</tspan></text>
<text id="Cooper Lift Entrance" fill="white" xml:space="preserve" style="white-space: pre" font-family="Inter" font-size="8" letter-spacing="0em"><tspan x="140.391" y="441.409">Cooper Lift Entrance</tspan></text>
<path id="Arrow 6" d="M180.354 420.646C180.158 420.451 179.842 420.451 179.646 420.646L176.464 423.828C176.269 424.024 176.269 424.34 176.464 424.536C176.66 424.731 176.976 424.731 177.172 424.536L180 421.707L182.828 424.536C183.024 424.731 183.34 424.731 183.536 424.536C183.731 424.34 183.731 424.024 183.536 423.828L180.354 420.646ZM180.5 430L180.5 421L179.5 421L179.5 430L180.5 430Z" fill="white"/>
</g>
<defs>
<clipPath id="clip0_659_1298">
<rect width="12.9032" height="12.9032" fill="white" transform="matrix(-1 0 0 1 184.903 36)"/>
</clipPath>
<clipPath id="clip1_659_1298">
<rect x="285" y="458" width="68" height="69" rx="4" fill="white"/>
</clipPath>
<clipPath id="clip2_659_1298">
<rect x="285" y="411.5" width="18" height="69" rx="4" transform="rotate(-90 285 411.5)" fill="white"/>
</clipPath>
<clipPath id="clip3_659_1298">
<rect width="10" height="10" fill="white" transform="translate(319.951 397.548)"/>
</clipPath>
<clipPath id="clip4_659_1298">
<rect width="12.9032" height="12.9032" fill="white" transform="matrix(-1 0 0 1 321.854 395.548)"/>
</clipPath>
<clipPath id="clip5_659_1298">
<rect x="285" y="387.5" width="38" height="69" rx="4" transform="rotate(-90 285 387.5)" fill="white"/>
</clipPath>
<clipPath id="clip6_659_1298">
<rect x="285" y="343.5" width="38" height="69" rx="4" transform="rotate(-90 285 343.5)" fill="white"/>
</clipPath>
<clipPath id="clip7_659_1298">
<rect x="285" y="299.5" width="37" height="69" rx="4" transform="rotate(-90 285 299.5)" fill="white"/>
</clipPath>
<clipPath id="clip8_659_1298">
<rect x="285" y="256.5" width="39" height="69" rx="4" transform="rotate(-90 285 256.5)" fill="white"/>
</clipPath>
<clipPath id="clip9_659_1298">
<rect width="10" height="10" fill="white" transform="translate(320 197.5)"/>
</clipPath>
<clipPath id="clip10_659_1298">
<rect width="12.9032" height="12.9032" fill="white" transform="matrix(-1 0 0 1 321.903 195.5)"/>
</clipPath>
<clipPath id="clip11_659_1298">
<rect width="10" height="10" fill="white" transform="matrix(-1 0 0 1 43 396.548)"/>
</clipPath>
<clipPath id="clip12_659_1298">
<rect width="12.9032" height="12.9032" fill="white" transform="translate(41.0967 394.548)"/>
</clipPath>
<clipPath id="clip13_659_1298">
<rect x="9" y="386" width="35" height="69" rx="4" transform="rotate(-90 9 386)" fill="white"/>
</clipPath>
<clipPath id="clip14_659_1298">
<rect width="337" height="69" rx="4" transform="matrix(0 -1 -1 0 78 345)" fill="white"/>
</clipPath>
<clipPath id="clip15_659_1298">
<rect width="22" height="120" rx="4" transform="matrix(0 -1 -1 0 240 412)" fill="white"/>
</clipPath>
<clipPath id="clip16_659_1298">
<rect width="91" height="120" rx="4" transform="matrix(0 -1 -1 0 240 312)" fill="white"/>
</clipPath>
<clipPath id="clip17_659_1298">
<rect width="22" height="120" rx="4" transform="matrix(0 -1 -1 0 240 140)" fill="white"/>
</clipPath>
</defs>
</svg>
