<svg width="360" height="534" viewBox="0 0 360 534" fill="none" xmlns="http://www.w3.org/2000/svg">
<g id="First Floor">
<rect x="0.5" y="0.5" width="359" height="533" rx="7.5" fill="#2B2B2B"/>
<rect x="0.5" y="0.5" width="359" height="533" rx="7.5" stroke="white"/>
<g id="Frame 45">
<g id="Frame 40">
<rect x="6.5" y="7.5" width="119" height="68" rx="3.5" stroke="white"/>
<text id="Faculty Area 102" fill="white" xml:space="preserve" style="white-space: pre" font-family="Urbanist" font-size="8" letter-spacing="0em"><tspan x="38.1875" y="44.8">Faculty Area 102</tspan></text>
</g>
<g id="Frame 42">
<rect x="132" y="7" width="45" height="69" rx="4" fill="#4B4B4B"/>
<path id="Vector" d="M151.676 43.875V50.5H148.912V43.875V43.375H148.412H147.5V38.65C147.5 37.8767 148.128 37.25 148.882 37.25H151.706C152.461 37.25 153.088 37.8767 153.088 38.65V43.375H152.176H151.676V43.875ZM162.309 44.8H160.176H159.676V45.3V50.5H157.853V45.3V44.8H157.353H155.221L157.395 38.2081L157.395 38.2066C157.582 37.6332 158.115 37.25 158.708 37.25H158.821C159.41 37.25 159.938 37.6293 160.135 38.21L162.309 44.8ZM151.676 33.9C151.676 34.6828 151.058 35.3 150.294 35.3C149.53 35.3 148.912 34.6828 148.912 33.9C148.912 33.1172 149.53 32.5 150.294 32.5C151.058 32.5 151.676 33.1172 151.676 33.9ZM160.147 33.9C160.147 34.6828 159.529 35.3 158.765 35.3C158.001 35.3 157.382 34.6828 157.382 33.9C157.382 33.1172 158.001 32.5 158.765 32.5C159.529 32.5 160.147 33.1172 160.147 33.9Z" stroke="white"/>
</g>
<g id="Frame 43">
<rect x="183" y="7" width="45" height="69" rx="4" fill="#4B4B4B"/>
<g id="Exit-icons">
<g id="streamline:interface-logout-arrow-exit-frame-leave-logout-rectangle-right" clip-path="url(#clip0_659_880)">
<path id="Vector_2" d="M212.786 44.5V45.9286C212.786 46.118 212.711 46.2997 212.577 46.4337C212.443 46.5676 212.261 46.6429 212.072 46.6429H207.072C206.882 46.6429 206.701 46.5676 206.567 46.4337C206.433 46.2997 206.357 46.118 206.357 45.9286L206.5 38C206.5 37.8106 206.433 37.7003 206.567 37.5664C206.701 37.4324 206.882 37.3572 207.072 37.3572H212.072C212.261 37.3572 212.443 37.4324 212.577 37.5664C212.711 37.7003 212.786 37.882 212.786 38.0715V39.5M210.643 42H215.643M215.643 42L214.215 40.5715M215.643 42L214.215 43.4286" stroke="white" stroke-width="0.7" stroke-linecap="round" stroke-linejoin="round"/>
</g>
<g id="Frame 50">
<rect width="5.16129" height="3.87097" transform="translate(204.032 39.5161)" fill="#4B4B4B"/>
</g>
<g id="Fire Run Away" clip-path="url(#clip1_659_880)">
<path id="Vector_3" d="M204.663 38.4808C205.385 38.4808 205.973 37.8931 205.973 37.1703C205.973 36.4476 205.385 35.8599 204.663 35.8599C203.94 35.8599 203.352 36.4476 203.352 37.1703C203.352 37.8931 203.94 38.4808 204.663 38.4808ZM204.663 36.4647C205.052 36.4647 205.368 36.7812 205.368 37.1703C205.368 37.5595 205.052 37.876 204.663 37.876C204.273 37.876 203.957 37.5595 203.957 37.1703C203.957 36.7812 204.273 36.4647 204.663 36.4647ZM203.069 47.8024C203.465 47.8024 203.812 47.5484 203.933 47.1714C204.424 45.6361 204.693 44.3326 204.704 44.2782C204.756 44.0212 204.696 43.754 204.537 43.5453C204.518 43.5212 204.111 42.9929 203.443 42.4647C203.593 42.129 203.817 41.6643 204.083 41.2087C204.089 41.2218 204.096 41.2349 204.102 41.248L204.394 41.8699C204.544 42.1865 204.865 42.3911 205.216 42.3911C205.343 42.3911 205.467 42.3649 205.584 42.3125L207.263 41.5665C207.489 41.4657 207.662 41.2822 207.746 41.0504C207.832 40.8185 207.82 40.5675 207.712 40.3437C207.501 39.9062 206.959 39.7157 206.503 39.9183L205.654 40.2964C205.252 39.5524 204.607 38.9758 203.817 38.6593C203.062 38.3568 202.217 38.3195 201.438 38.5534C200.622 38.8044 199.903 39.3246 199.411 40.0191L198.876 40.7732C198.736 40.9718 198.682 41.2117 198.723 41.4506C198.764 41.6895 198.896 41.8982 199.094 42.0373C199.275 42.1653 199.496 42.2218 199.716 42.1976C199.882 42.1794 200.002 42.0302 199.984 41.8639C199.966 41.6976 199.816 41.5786 199.65 41.5958C199.577 41.6038 199.503 41.5847 199.443 41.5423C199.377 41.496 199.333 41.4264 199.319 41.3468C199.305 41.2671 199.323 41.1875 199.37 41.121L199.904 40.3669C200.319 39.7833 200.926 39.3437 201.612 39.133C202.258 38.9395 202.962 38.9708 203.591 39.2218C204.3 39.505 204.869 40.0423 205.195 40.7328L205.236 40.8195C205.307 40.9687 205.482 41.0333 205.632 40.9667L206.747 40.4708C206.908 40.3992 207.096 40.4597 207.166 40.6058C207.202 40.6804 207.206 40.7641 207.177 40.8417C207.148 40.9193 207.091 40.9808 207.015 41.0141L205.336 41.7601C205.189 41.8256 205.007 41.756 204.94 41.6129L204.647 40.9909C204.558 40.8004 204.441 40.6199 204.301 40.4556C204.239 40.383 204.146 40.3447 204.052 40.3498C203.957 40.3558 203.87 40.4062 203.818 40.4859C203.374 41.1603 203.014 41.9224 202.791 42.4425C202.735 42.5726 202.776 42.7228 202.89 42.8064C203.604 43.3276 204.037 43.8901 204.055 43.9133C204.108 43.9828 204.128 44.0716 204.11 44.1572C204.099 44.2107 203.837 45.4828 203.355 46.9879C203.315 47.1139 203.199 47.1986 203.067 47.1986C203.023 47.1986 202.98 47.1885 202.939 47.1703C202.804 47.1078 202.737 46.9365 202.787 46.7792C203.118 45.7369 203.346 44.7964 203.453 44.3286C203.475 44.2318 203.448 44.131 203.381 44.0574C203.124 43.7772 202.705 43.375 202.166 43.0504C202.022 42.9647 201.837 43.0111 201.75 43.1542C201.666 43.2964 201.712 43.4818 201.855 43.5685C202.275 43.8205 202.618 44.1351 202.828 44.3508C202.713 44.8447 202.503 45.6794 202.211 46.5947C202.068 47.0453 202.272 47.5292 202.687 47.7187C202.81 47.7742 202.938 47.8024 203.069 47.8024Z" fill="white"/>
<path id="Vector_4" d="M199.337 47.8023C199.574 47.8023 199.812 47.7096 199.989 47.5261C200.24 47.266 201.512 45.9223 201.867 44.9687C201.913 44.8467 201.951 44.6924 201.983 44.4969C202.01 44.3326 201.9 44.1763 201.735 44.1481C201.571 44.1209 201.415 44.2318 201.386 44.3961C201.354 44.5896 201.321 44.6995 201.3 44.758C201.041 45.4555 200.081 46.5614 199.555 47.1057C199.439 47.2257 199.247 47.2287 199.127 47.1128C199.007 46.9969 199.004 46.8053 199.12 46.6854C199.49 46.3023 200.501 45.1723 200.733 44.5473C200.839 44.264 200.892 43.3164 200.901 42.7852C200.901 42.767 200.903 42.7489 200.907 42.7307C200.917 42.6783 201.169 41.4404 201.822 40.2418C201.902 40.0957 201.848 39.9112 201.701 39.8316C201.555 39.7519 201.37 39.8053 201.291 39.9525C200.594 41.2318 200.325 42.5574 200.314 42.6138C200.304 42.6672 200.298 42.7217 200.297 42.7761C200.285 43.4787 200.216 44.2055 200.167 44.3376C200.019 44.7348 199.283 45.6481 198.686 46.266C198.338 46.6259 198.348 47.2005 198.707 47.5483C198.881 47.7176 199.109 47.8023 199.337 47.8023Z" fill="white"/>
</g>
</g>
</g>
<g id="Frame 41">
<rect x="234.5" y="7.5" width="119" height="68" rx="3.5" stroke="white"/>
<text id="Faculty Area 101" fill="white" xml:space="preserve" style="white-space: pre" font-family="Urbanist" font-size="8" letter-spacing="0em"><tspan x="267.309" y="44.8">Faculty Area 101</tspan></text>
</g>
</g>
<g id="Frame 46">
<g id="Frame 55">
<g id="Frame 43_2">
<rect x="6.5" y="458.5" width="67" height="68" rx="3.5" stroke="white"/>
<text id="Hardware Lab 3" fill="white" xml:space="preserve" style="white-space: pre" font-family="Poppins" font-size="8" letter-spacing="0em"><tspan x="20.875" y="489.8">Hardware</tspan><tspan x="29.9453" y="501.8">Lab 3</tspan></text>
</g>
<g id="Frame 44">
<rect x="80.5" y="458.5" width="67" height="68" rx="3.5" stroke="white"/>
<text id="Hardware Lab 2" fill="white" xml:space="preserve" style="white-space: pre" font-family="Poppins" font-size="8" letter-spacing="0em"><tspan x="93.875" y="489.8">Hardware</tspan><tspan x="103" y="501.8">Lab 2</tspan></text>
</g>
</g>
<g id="Frame 56">
<g id="Frame 46_2">
<rect x="211.5" y="458.5" width="67" height="68" rx="3.5" stroke="white"/>
<text id="Hardware Lab 1" fill="white" xml:space="preserve" style="white-space: pre" font-family="Poppins" font-size="8" letter-spacing="0em"><tspan x="225.375" y="489.8">Hardware&#10;</tspan><tspan x="235.52" y="501.8">Lab 1</tspan></text>
</g>
<g id="Frame 45_2">
<g clip-path="url(#clip2_659_880)">
<rect x="285.5" y="458.5" width="67" height="68" rx="3.5" stroke="white"/>
<text id="Dean Office" fill="white" xml:space="preserve" style="white-space: pre" font-family="Poppins" font-size="8" letter-spacing="0em"><tspan x="296.191" y="495.8">Dean Office</tspan></text>
<g id="Frame 44_2">
</g>
</g>
<rect x="285.5" y="458.5" width="67" height="68" rx="3.5" stroke="white"/>
</g>
</g>
</g>
<g id="Frame 47">
<g id="Group 1261153516">
<g id="Frame 50_2">
<rect x="285" y="412" width="18" height="69" rx="4" transform="rotate(-90 285 412)" fill="#4B4B4B"/>
</g>
<g id="Exit-icons_2">
<rect width="21" height="12.9032" transform="translate(309 396)" fill="#4B4B4B"/>
<g id="streamline:interface-logout-arrow-exit-frame-leave-logout-rectangle-right_2" clip-path="url(#clip3_659_880)">
<path id="Vector_5" d="M326.786 405.5V406.929C326.786 407.118 326.711 407.3 326.577 407.434C326.443 407.568 326.261 407.643 326.072 407.643H321.072C320.882 407.643 320.701 407.568 320.567 407.434C320.433 407.3 320.357 407.118 320.357 406.929L320.5 399C320.5 398.811 320.433 398.7 320.567 398.566C320.701 398.432 320.882 398.357 321.072 398.357H326.072C326.261 398.357 326.443 398.432 326.577 398.566C326.711 398.7 326.786 398.882 326.786 399.071V400.5M324.643 403H329.643M329.643 403L328.215 401.571M329.643 403L328.215 404.429" stroke="white" stroke-width="0.7" stroke-linecap="round" stroke-linejoin="round"/>
</g>
<g id="Fire Run Away_2" clip-path="url(#clip4_659_880)">
<path id="Vector_6" d="M318.663 399.481C319.385 399.481 319.973 398.893 319.973 398.17C319.973 397.448 319.385 396.86 318.663 396.86C317.94 396.86 317.352 397.448 317.352 398.17C317.352 398.893 317.94 399.481 318.663 399.481ZM318.663 397.465C319.052 397.465 319.368 397.781 319.368 398.17C319.368 398.559 319.052 398.876 318.663 398.876C318.273 398.876 317.957 398.559 317.957 398.17C317.957 397.781 318.273 397.465 318.663 397.465ZM317.069 408.802C317.465 408.802 317.812 408.548 317.933 408.171C318.424 406.636 318.693 405.333 318.704 405.278C318.756 405.021 318.696 404.754 318.537 404.545C318.518 404.521 318.111 403.993 317.443 403.465C317.593 403.129 317.817 402.664 318.083 402.209C318.089 402.222 318.096 402.235 318.102 402.248L318.394 402.87C318.544 403.186 318.865 403.391 319.216 403.391C319.343 403.391 319.467 403.365 319.584 403.312L321.263 402.567C321.489 402.466 321.662 402.282 321.746 402.05C321.832 401.819 321.82 401.568 321.712 401.344C321.501 400.906 320.959 400.716 320.503 400.918L319.654 401.296C319.252 400.552 318.607 399.976 317.817 399.659C317.062 399.357 316.217 399.32 315.438 399.553C314.622 399.804 313.903 400.325 313.411 401.019L312.876 401.773C312.736 401.972 312.682 402.212 312.723 402.451C312.764 402.69 312.896 402.898 313.094 403.037C313.275 403.165 313.496 403.222 313.716 403.198C313.882 403.179 314.002 403.03 313.984 402.864C313.966 402.698 313.816 402.579 313.65 402.596C313.577 402.604 313.503 402.585 313.443 402.542C313.377 402.496 313.333 402.426 313.319 402.347C313.305 402.267 313.323 402.187 313.37 402.121L313.904 401.367C314.319 400.783 314.926 400.344 315.612 400.133C316.258 399.94 316.962 399.971 317.591 400.222C318.3 400.505 318.869 401.042 319.195 401.733L319.236 401.82C319.307 401.969 319.482 402.033 319.632 401.967L320.747 401.471C320.908 401.399 321.096 401.46 321.166 401.606C321.202 401.68 321.206 401.764 321.177 401.842C321.148 401.919 321.091 401.981 321.015 402.014L319.336 402.76C319.189 402.826 319.007 402.756 318.94 402.613L318.647 401.991C318.558 401.8 318.441 401.62 318.301 401.456C318.239 401.383 318.146 401.345 318.052 401.35C317.957 401.356 317.87 401.406 317.818 401.486C317.374 402.16 317.014 402.922 316.791 403.443C316.735 403.573 316.776 403.723 316.89 403.806C317.604 404.328 318.037 404.89 318.055 404.913C318.108 404.983 318.128 405.072 318.11 405.157C318.099 405.211 317.837 406.483 317.355 407.988C317.315 408.114 317.199 408.199 317.067 408.199C317.023 408.199 316.98 408.188 316.939 408.17C316.804 408.108 316.737 407.936 316.787 407.779C317.118 406.737 317.346 405.796 317.453 405.329C317.475 405.232 317.448 405.131 317.381 405.057C317.124 404.777 316.705 404.375 316.166 404.05C316.022 403.965 315.837 404.011 315.75 404.154C315.666 404.296 315.712 404.482 315.855 404.569C316.275 404.821 316.618 405.135 316.828 405.351C316.713 405.845 316.503 406.679 316.211 407.595C316.068 408.045 316.272 408.529 316.687 408.719C316.81 408.774 316.938 408.802 317.069 408.802Z" fill="white"/>
<path id="Vector_7" d="M313.337 408.802C313.574 408.802 313.812 408.71 313.989 408.526C314.24 408.266 315.512 406.922 315.867 405.969C315.913 405.847 315.951 405.692 315.983 405.497C316.01 405.333 315.9 405.176 315.735 405.148C315.571 405.121 315.415 405.232 315.386 405.396C315.354 405.59 315.321 405.699 315.3 405.758C315.041 406.456 314.081 407.561 313.555 408.106C313.439 408.226 313.247 408.229 313.127 408.113C313.007 407.997 313.004 407.805 313.12 407.685C313.49 407.302 314.501 406.172 314.733 405.547C314.839 405.264 314.892 404.316 314.901 403.785C314.901 403.767 314.903 403.749 314.907 403.731C314.917 403.678 315.169 402.44 315.822 401.242C315.902 401.096 315.848 400.911 315.701 400.832C315.555 400.752 315.37 400.805 315.291 400.953C314.594 402.232 314.325 403.557 314.314 403.614C314.304 403.667 314.298 403.722 314.297 403.776C314.285 404.479 314.216 405.206 314.167 405.338C314.019 405.735 313.283 406.648 312.686 407.266C312.338 407.626 312.348 408.201 312.707 408.548C312.881 408.718 313.109 408.802 313.337 408.802Z" fill="white"/>
</g>
</g>
</g>
<g id="Frame 40_2">
<rect x="285.5" y="387.5" width="111" height="68" rx="3.5" transform="rotate(-90 285.5 387.5)" stroke="white"/>
<text id="NA" transform="translate(314 324.5)" fill="white" xml:space="preserve" style="white-space: pre" font-family="Inter" font-size="8" letter-spacing="0em"><tspan x="0.285156" y="7.90909">NA</tspan></text>
</g>
<g id="Group 1261153515">
<g id="Frame 50_3">
<rect x="285" y="270" width="18" height="69" rx="4" transform="rotate(-90 285 270)" fill="#4B4B4B"/>
</g>
<g id="Exit-icons_3">
<rect width="21" height="12.9032" transform="translate(309 254)" fill="#4B4B4B"/>
<g id="streamline:interface-logout-arrow-exit-frame-leave-logout-rectangle-right_3" clip-path="url(#clip5_659_880)">
<path id="Vector_8" d="M326.786 263.5V264.929C326.786 265.118 326.711 265.3 326.577 265.434C326.443 265.568 326.261 265.643 326.072 265.643H321.072C320.882 265.643 320.701 265.568 320.567 265.434C320.433 265.3 320.357 265.118 320.357 264.929L320.5 257C320.5 256.811 320.433 256.7 320.567 256.566C320.701 256.432 320.882 256.357 321.072 256.357H326.072C326.261 256.357 326.443 256.432 326.577 256.566C326.711 256.7 326.786 256.882 326.786 257.071V258.5M324.643 261H329.643M329.643 261L328.215 259.571M329.643 261L328.215 262.429" stroke="white" stroke-width="0.7" stroke-linecap="round" stroke-linejoin="round"/>
</g>
<g id="Fire Run Away_3" clip-path="url(#clip6_659_880)">
<path id="Vector_9" d="M318.663 257.481C319.385 257.481 319.973 256.893 319.973 256.17C319.973 255.448 319.385 254.86 318.663 254.86C317.94 254.86 317.352 255.448 317.352 256.17C317.352 256.893 317.94 257.481 318.663 257.481ZM318.663 255.465C319.052 255.465 319.368 255.781 319.368 256.17C319.368 256.559 319.052 256.876 318.663 256.876C318.273 256.876 317.957 256.559 317.957 256.17C317.957 255.781 318.273 255.465 318.663 255.465ZM317.069 266.802C317.465 266.802 317.812 266.548 317.933 266.171C318.424 264.636 318.693 263.333 318.704 263.278C318.756 263.021 318.696 262.754 318.537 262.545C318.518 262.521 318.111 261.993 317.443 261.465C317.593 261.129 317.817 260.664 318.083 260.209C318.089 260.222 318.096 260.235 318.102 260.248L318.394 260.87C318.544 261.186 318.865 261.391 319.216 261.391C319.343 261.391 319.467 261.365 319.584 261.312L321.263 260.567C321.489 260.466 321.662 260.282 321.746 260.05C321.832 259.819 321.82 259.568 321.712 259.344C321.501 258.906 320.959 258.716 320.503 258.918L319.654 259.296C319.252 258.552 318.607 257.976 317.817 257.659C317.062 257.357 316.217 257.32 315.438 257.553C314.622 257.804 313.903 258.325 313.411 259.019L312.876 259.773C312.736 259.972 312.682 260.212 312.723 260.451C312.764 260.69 312.896 260.898 313.094 261.037C313.275 261.165 313.496 261.222 313.716 261.198C313.882 261.179 314.002 261.03 313.984 260.864C313.966 260.698 313.816 260.579 313.65 260.596C313.577 260.604 313.503 260.585 313.443 260.542C313.377 260.496 313.333 260.426 313.319 260.347C313.305 260.267 313.323 260.187 313.37 260.121L313.904 259.367C314.319 258.783 314.926 258.344 315.612 258.133C316.258 257.94 316.962 257.971 317.591 258.222C318.3 258.505 318.869 259.042 319.195 259.733L319.236 259.82C319.307 259.969 319.482 260.033 319.632 259.967L320.747 259.471C320.908 259.399 321.096 259.46 321.166 259.606C321.202 259.68 321.206 259.764 321.177 259.842C321.148 259.919 321.091 259.981 321.015 260.014L319.336 260.76C319.189 260.826 319.007 260.756 318.94 260.613L318.647 259.991C318.558 259.8 318.441 259.62 318.301 259.456C318.239 259.383 318.146 259.345 318.052 259.35C317.957 259.356 317.87 259.406 317.818 259.486C317.374 260.16 317.014 260.922 316.791 261.443C316.735 261.573 316.776 261.723 316.89 261.806C317.604 262.328 318.037 262.89 318.055 262.913C318.108 262.983 318.128 263.072 318.11 263.157C318.099 263.211 317.837 264.483 317.355 265.988C317.315 266.114 317.199 266.199 317.067 266.199C317.023 266.199 316.98 266.188 316.939 266.17C316.804 266.108 316.737 265.936 316.787 265.779C317.118 264.737 317.346 263.796 317.453 263.329C317.475 263.232 317.448 263.131 317.381 263.057C317.124 262.777 316.705 262.375 316.166 262.05C316.022 261.965 315.837 262.011 315.75 262.154C315.666 262.296 315.712 262.482 315.855 262.569C316.275 262.821 316.618 263.135 316.828 263.351C316.713 263.845 316.503 264.679 316.211 265.595C316.068 266.045 316.272 266.529 316.687 266.719C316.81 266.774 316.938 266.802 317.069 266.802Z" fill="white"/>
<path id="Vector_10" d="M313.337 266.802C313.574 266.802 313.812 266.71 313.989 266.526C314.24 266.266 315.512 264.922 315.867 263.969C315.913 263.847 315.951 263.692 315.983 263.497C316.01 263.333 315.9 263.176 315.735 263.148C315.571 263.121 315.415 263.232 315.386 263.396C315.354 263.59 315.321 263.699 315.3 263.758C315.041 264.456 314.081 265.561 313.555 266.106C313.439 266.226 313.247 266.229 313.127 266.113C313.007 265.997 313.004 265.805 313.12 265.685C313.49 265.302 314.501 264.172 314.733 263.547C314.839 263.264 314.892 262.316 314.901 261.785C314.901 261.767 314.903 261.749 314.907 261.731C314.917 261.678 315.169 260.44 315.822 259.242C315.902 259.096 315.848 258.911 315.701 258.832C315.555 258.752 315.37 258.805 315.291 258.953C314.594 260.232 314.325 261.557 314.314 261.614C314.304 261.667 314.298 261.722 314.297 261.776C314.285 262.479 314.216 263.206 314.167 263.338C314.019 263.735 313.283 264.648 312.686 265.266C312.338 265.626 312.348 266.201 312.707 266.548C312.881 266.718 313.109 266.802 313.337 266.802Z" fill="white"/>
</g>
</g>
</g>
<g id="Frame 44_3">
<rect x="285.5" y="118.5" width="68" height="127" rx="3.5" stroke="white"/>
<text id="E. CR 104" transform="translate(303 177)" fill="white" xml:space="preserve" style="white-space: pre" font-family="Poppins" font-size="8" letter-spacing="0em"><tspan x="0.144531" y="8.8">E. CR 104</tspan></text>
</g>
</g>
<g id="Frame 48">
<g id="Group 1261153515_2">
<g id="Frame 50_4">
<rect x="6" y="412" width="18" height="69" rx="4" transform="rotate(-90 6 412)" fill="#4B4B4B"/>
</g>
<g id="Exit-icons_4">
<g id="streamline:interface-logout-arrow-exit-frame-leave-logout-rectangle-right_4" clip-path="url(#clip7_659_880)">
<path id="Vector_11" d="M33.2145 406.048V407.477C33.2145 407.666 33.2898 407.848 33.4237 407.982C33.5577 408.116 33.7393 408.191 33.9288 408.191H38.9288C39.1182 408.191 39.2999 408.116 39.4339 407.982C39.5678 407.848 39.6431 407.666 39.6431 407.477L39.5 399.548C39.5 399.359 39.5678 399.249 39.4339 399.115C39.2999 398.981 39.1182 398.906 38.9288 398.906H33.9288C33.7393 398.906 33.5577 398.981 33.4237 399.115C33.2898 399.249 33.2145 399.43 33.2145 399.62V401.048M35.3574 403.548H30.3574M30.3574 403.548L31.7859 402.12M30.3574 403.548L31.7859 404.977" stroke="white" stroke-width="0.7" stroke-linecap="round" stroke-linejoin="round"/>
</g>
<g id="Frame 50_5">
<rect width="5.16129" height="3.87097" transform="matrix(-1 0 0 1 41.9678 401.064)" fill="#4B4B4B"/>
</g>
<g id="Fire Run Away_4" clip-path="url(#clip8_659_880)">
<path id="Vector_12" d="M41.3374 400.029C40.6146 400.029 40.0269 399.441 40.0269 398.719C40.0269 397.996 40.6146 397.408 41.3374 397.408C42.0602 397.408 42.6479 397.996 42.6479 398.719C42.6479 399.441 42.0602 400.029 41.3374 400.029ZM41.3374 398.013C40.9483 398.013 40.6318 398.33 40.6318 398.719C40.6318 399.108 40.9483 399.424 41.3374 399.424C41.7265 399.424 42.0431 399.108 42.0431 398.719C42.0431 398.33 41.7265 398.013 41.3374 398.013ZM42.9312 409.351C42.535 409.351 42.1882 409.097 42.0673 408.72C41.5763 407.184 41.3072 405.881 41.2961 405.827C41.2437 405.569 41.3042 405.302 41.4634 405.094C41.4816 405.069 41.8888 404.541 42.5572 404.013C42.407 403.677 42.1832 403.213 41.9171 402.757C41.911 402.77 41.904 402.783 41.8979 402.796L41.6056 403.418C41.4564 403.735 41.1348 403.939 40.784 403.939C40.657 403.939 40.533 403.913 40.416 403.861L38.7366 403.115C38.5108 403.014 38.3384 402.831 38.2538 402.599C38.1681 402.367 38.1802 402.116 38.288 401.892C38.4987 401.455 39.041 401.264 39.4967 401.467L40.3465 401.845C40.7477 401.101 41.3929 400.524 42.1832 400.208C42.9382 399.905 43.783 399.868 44.5622 400.102C45.3777 400.353 46.0975 400.873 46.5894 401.567L47.1237 402.322C47.2638 402.52 47.3183 402.76 47.2769 402.999C47.2356 403.238 47.1035 403.447 46.906 403.586C46.7245 403.714 46.5037 403.77 46.284 403.746C46.1177 403.728 45.9977 403.579 46.0158 403.412C46.034 403.246 46.1842 403.127 46.3495 403.144C46.4231 403.152 46.4967 403.133 46.5572 403.091C46.6227 403.044 46.6671 402.975 46.6812 402.895C46.6953 402.815 46.6771 402.736 46.6298 402.669L46.0965 401.915C45.6812 401.332 45.0743 400.892 44.3878 400.681C43.7417 400.488 43.038 400.519 42.409 400.77C41.7003 401.053 41.1308 401.591 40.8052 402.281L40.7638 402.368C40.6933 402.517 40.5179 402.582 40.3677 402.515L39.2527 402.019C39.0925 401.948 38.904 402.008 38.8344 402.154C38.7981 402.229 38.7941 402.312 38.8233 402.39C38.8515 402.468 38.909 402.529 38.9846 402.562L40.664 403.308C40.8112 403.374 40.9927 403.304 41.0602 403.161L41.3525 402.539C41.4423 402.349 41.5592 402.168 41.6993 402.004C41.7608 401.931 41.8535 401.893 41.9483 401.898C42.0431 401.904 42.1298 401.955 42.1822 402.034C42.6257 402.709 42.9856 403.471 43.2094 403.991C43.2648 404.121 43.2235 404.271 43.1096 404.355C42.3959 404.876 41.9634 405.438 41.9453 405.462C41.8919 405.531 41.8717 405.62 41.8898 405.706C41.9009 405.759 42.163 407.031 42.6449 408.536C42.6852 408.662 42.8011 408.747 42.9332 408.747C42.9765 408.747 43.0199 408.737 43.0612 408.719C43.1963 408.656 43.2628 408.485 43.2134 408.328C42.8818 407.285 42.654 406.345 42.5471 405.877C42.5249 405.78 42.5521 405.679 42.6187 405.606C42.8757 405.326 43.2951 404.923 43.8344 404.599C43.9775 404.513 44.163 404.559 44.2497 404.703C44.3344 404.845 44.288 405.03 44.1449 405.117C43.7245 405.369 43.3818 405.683 43.1721 405.899C43.287 406.393 43.4967 407.228 43.789 408.143C43.9322 408.594 43.7275 409.078 43.3132 409.267C43.1902 409.323 43.0622 409.351 42.9312 409.351Z" fill="white"/>
<path id="Vector_13" d="M46.663 409.351C46.4261 409.351 46.1882 409.258 46.0108 409.074C45.7597 408.814 44.4876 407.471 44.1327 406.517C44.0874 406.395 44.0491 406.241 44.0168 406.045C43.9896 405.881 44.1005 405.725 44.2648 405.696C44.4291 405.669 44.5854 405.78 44.6136 405.944C44.6458 406.138 44.6791 406.248 44.7003 406.306C44.9593 407.004 45.919 408.11 46.4452 408.654C46.5612 408.774 46.7527 408.777 46.8726 408.661C46.9926 408.545 46.9956 408.354 46.8797 408.234C46.5097 407.851 45.4987 406.721 45.2668 406.096C45.161 405.812 45.1075 404.865 45.0995 404.334C45.0995 404.315 45.0974 404.297 45.0934 404.279C45.0833 404.227 44.8313 402.989 44.1781 401.79C44.0985 401.644 44.1519 401.46 44.2991 401.38C44.4452 401.3 44.6297 401.354 44.7093 401.501C45.4059 402.78 45.6751 404.106 45.6862 404.162C45.6962 404.216 45.7023 404.27 45.7033 404.324C45.7154 405.027 45.7839 405.754 45.8333 405.886C45.9805 406.283 46.7174 407.196 47.3142 407.814C47.662 408.174 47.6519 408.749 47.293 409.097C47.1186 409.266 46.8908 409.351 46.663 409.351Z" fill="white"/>
</g>
</g>
</g>
<g id="Frame 52">
<g clip-path="url(#clip9_659_880)">
<rect x="-0.5" y="-0.5" width="29" height="68" rx="3.5" transform="matrix(0 -1 -1 0 74 387)" stroke="white"/>
<text id="E. CL 101" transform="translate(26 367)" fill="white" xml:space="preserve" style="white-space: pre" font-family="Poppins" font-size="8" letter-spacing="0em"><tspan x="0.0859375" y="8.8">E. CL 101</tspan></text>
</g>
</g>
<g id="Frame 54">
<g clip-path="url(#clip10_659_880)">
<rect x="-0.5" y="-0.5" width="29" height="68" rx="3.5" transform="matrix(0 -1 -1 0 74 351)" stroke="white"/>
<text id="E. CL 102" transform="translate(25 331)" fill="white" xml:space="preserve" style="white-space: pre" font-family="Poppins" font-size="8" letter-spacing="0em"><tspan x="0.0664062" y="8.8">E. CL 102</tspan></text>
</g>
</g>
<g id="Frame 51">
<g clip-path="url(#clip11_659_880)">
<rect x="6" y="316" width="35" height="69" rx="4" transform="rotate(-90 6 316)" fill="#4B4B4B"/>
<path id="Vector_14" d="M37.6765 300.875V307.5H34.9118V300.875V300.375H34.4118H33.5V295.65C33.5 294.877 34.1276 294.25 34.8824 294.25H37.7059C38.4606 294.25 39.0882 294.877 39.0882 295.65V300.375H38.1765H37.6765V300.875ZM48.3086 301.8H46.1765H45.6765V302.3V307.5H43.8529V302.3V301.8H43.3529H41.2208L43.3948 295.208L43.3953 295.207C43.5824 294.633 44.1153 294.25 44.7082 294.25H44.8212C45.4096 294.25 45.938 294.629 46.1352 295.21L48.3086 301.8ZM37.6765 290.9C37.6765 291.683 37.0583 292.3 36.2941 292.3C35.5299 292.3 34.9118 291.683 34.9118 290.9C34.9118 290.117 35.5299 289.5 36.2941 289.5C37.0583 289.5 37.6765 290.117 37.6765 290.9ZM46.1471 290.9C46.1471 291.683 45.5289 292.3 44.7647 292.3C44.0005 292.3 43.3824 291.683 43.3824 290.9C43.3824 290.117 44.0005 289.5 44.7647 289.5C45.5289 289.5 46.1471 290.117 46.1471 290.9Z" stroke="white"/>
</g>
</g>
<g id="Frame 49">
<g clip-path="url(#clip12_659_880)">
<g>
<rect x="-0.5" y="-0.5" width="47" height="68" rx="3.5" transform="matrix(0 -1 -1 0 74 274)" stroke="white"/>
<text id="E. CR 101" transform="translate(25 245.5)" fill="white" xml:space="preserve" style="white-space: pre" font-family="Poppins" font-size="8" letter-spacing="0em"><tspan x="0.378906" y="8.8">E. CR 101</tspan></text>
</g>
</g>
</g>
<g id="Frame 55_2">
<g clip-path="url(#clip13_659_880)">
<rect x="-0.5" y="-0.5" width="47" height="68" rx="3.5" transform="matrix(0 -1 -1 0 74 220)" stroke="white"/>
<text id="E. CR 102" transform="translate(24 191.5)" fill="white" xml:space="preserve" style="white-space: pre" font-family="Poppins" font-size="8" letter-spacing="0em"><tspan x="0.359375" y="8.8">E. CR 102</tspan></text>
</g>
</g>
<g id="Frame 56_2">
<g clip-path="url(#clip14_659_880)">
<rect x="-0.5" y="-0.5" width="47" height="68" rx="3.5" transform="matrix(0 -1 -1 0 74 166)" stroke="white"/>
<text id="E. CR 103" transform="translate(24 137.5)" fill="white" xml:space="preserve" style="white-space: pre" font-family="Poppins" font-size="8" letter-spacing="0em"><tspan x="0.304688" y="8.8">E. CR 103</tspan></text>
</g>
</g>
</g>
<g id="Frame 49_2">
<g id="Frame 45_3">
<g clip-path="url(#clip15_659_880)">
<rect width="22" height="120" rx="4" transform="matrix(0 -1 -1 0 240 412)" fill="#2B2B2B"/>
<rect x="-0.5" y="-0.5" width="21" height="119" rx="3.5" transform="matrix(0 -1 -1 0 239 411)" stroke="white"/>
<text id="Lift" fill="white" xml:space="preserve" style="white-space: pre" font-family="Poppins" font-size="11" letter-spacing="0em"><tspan x="172.459" y="404.85">Lift</tspan></text>
</g>
</g>
<g id="Frame 53">
<g id="Frame 45_4">
<rect x="183.5" y="318.5" width="56" height="65" rx="3.5" stroke="white"/>
<text id="E. CR 105" transform="translate(195 345)" fill="white" xml:space="preserve" style="white-space: pre" font-family="Poppins" font-size="8" letter-spacing="0em"><tspan x="0.148438" y="8.8">E. CR 105</tspan></text>
</g>
<g id="Frame 44_4">
<rect x="120.5" y="318.5" width="56" height="65" rx="3.5" stroke="white"/>
<text id="E. CR 106" transform="translate(132 345)" fill="white" xml:space="preserve" style="white-space: pre" font-family="Poppins" font-size="8" letter-spacing="0em"><tspan x="0.121094" y="8.8">E. CR 106</tspan></text>
</g>
</g>
<g id="Frame 49_3">
<g clip-path="url(#clip16_659_880)">
<rect width="91" height="120" rx="4" transform="matrix(0 -1 -1 0 240 312)" fill="#23A6F0"/>
<text id="Floor 1" fill="white" xml:space="preserve" style="white-space: pre" font-family="Poppins" font-size="20" letter-spacing="0em"><tspan x="150.107" y="273.5">Floor 1</tspan></text>
</g>
</g>
<g id="Frame 54_2">
<g id="Frame 45_5">
<rect x="183.5" y="146.5" width="56" height="68" rx="3.5" stroke="white"/>
<text id="E. CR 108" transform="translate(195 175)" fill="white" xml:space="preserve" style="white-space: pre" font-family="Poppins" font-size="8" letter-spacing="0em"><tspan x="0.136719" y="8.8">E. CR 108</tspan></text>
</g>
<g id="Frame 44_5">
<rect x="120.5" y="146.5" width="56" height="68" rx="3.5" stroke="white"/>
<text id="E. CR 107" transform="translate(132 175)" fill="white" xml:space="preserve" style="white-space: pre" font-family="Poppins" font-size="8" letter-spacing="0em"><tspan x="0.476562" y="8.8">E. CR 107</tspan></text>
</g>
</g>
<g id="Frame 48_2">
<g clip-path="url(#clip17_659_880)">
<rect width="22" height="120" rx="4" transform="matrix(0 -1 -1 0 240 140)" fill="#2B2B2B"/>
<text id="Lift_2" fill="white" xml:space="preserve" style="white-space: pre" font-family="Poppins" font-size="11" letter-spacing="0em"><tspan x="172.459" y="132.85">Lift</tspan></text>
</g>
<rect x="-0.5" y="-0.5" width="21" height="119" rx="3.5" transform="matrix(0 -1 -1 0 239 139)" stroke="white"/>
</g>
</g>
<path id="Arrow 5" d="M179.646 114.354C179.842 114.549 180.158 114.549 180.354 114.354L183.536 111.172C183.731 110.976 183.731 110.66 183.536 110.464C183.34 110.269 183.024 110.269 182.828 110.464L180 113.293L177.172 110.464C176.976 110.269 176.66 110.269 176.464 110.464C176.269 110.66 176.269 110.976 176.464 111.172L179.646 114.354ZM179.5 105L179.5 114L180.5 114L180.5 105L179.5 105Z" fill="white"/>
<text id="Bhagubhai Lift Entrance" fill="white" xml:space="preserve" style="white-space: pre" font-family="Inter" font-size="8" letter-spacing="0em"><tspan x="134.297" y="99.4091">Bhagubhai Lift Entrance</tspan></text>
<text id="Cooper Lift Entrance" fill="white" xml:space="preserve" style="white-space: pre" font-family="Inter" font-size="8" letter-spacing="0em"><tspan x="140.391" y="441.409">Cooper Lift Entrance</tspan></text>
</g>
<defs>
<clipPath id="clip0_659_880">
<rect width="10" height="10" fill="white" transform="translate(206 37)"/>
</clipPath>
<clipPath id="clip1_659_880">
<rect width="12.9032" height="12.9032" fill="white" transform="matrix(-1 0 0 1 207.903 35)"/>
</clipPath>
<clipPath id="clip2_659_880">
<rect x="285" y="458" width="68" height="69" rx="4" fill="white"/>
</clipPath>
<clipPath id="clip3_659_880">
<rect width="10" height="10" fill="white" transform="translate(320 398)"/>
</clipPath>
<clipPath id="clip4_659_880">
<rect width="12.9032" height="12.9032" fill="white" transform="matrix(-1 0 0 1 321.903 396)"/>
</clipPath>
<clipPath id="clip5_659_880">
<rect width="10" height="10" fill="white" transform="translate(320 256)"/>
</clipPath>
<clipPath id="clip6_659_880">
<rect width="12.9032" height="12.9032" fill="white" transform="matrix(-1 0 0 1 321.903 254)"/>
</clipPath>
<clipPath id="clip7_659_880">
<rect width="10" height="10" fill="white" transform="matrix(-1 0 0 1 40 398.548)"/>
</clipPath>
<clipPath id="clip8_659_880">
<rect width="12.9032" height="12.9032" fill="white" transform="translate(38.0967 396.548)"/>
</clipPath>
<clipPath id="clip9_659_880">
<rect width="30" height="69" rx="4" transform="matrix(0 -1 -1 0 75 388)" fill="white"/>
</clipPath>
<clipPath id="clip10_659_880">
<rect width="30" height="69" rx="4" transform="matrix(0 -1 -1 0 75 352)" fill="white"/>
</clipPath>
<clipPath id="clip11_659_880">
<rect x="6" y="316" width="35" height="69" rx="4" transform="rotate(-90 6 316)" fill="white"/>
</clipPath>
<clipPath id="clip12_659_880">
<rect width="48" height="69" rx="4" transform="matrix(0 -1 -1 0 75 275)" fill="white"/>
</clipPath>
<clipPath id="clip13_659_880">
<rect width="48" height="69" rx="4" transform="matrix(0 -1 -1 0 75 221)" fill="white"/>
</clipPath>
<clipPath id="clip14_659_880">
<rect width="48" height="69" rx="4" transform="matrix(0 -1 -1 0 75 167)" fill="white"/>
</clipPath>
<clipPath id="clip15_659_880">
<rect width="22" height="120" rx="4" transform="matrix(0 -1 -1 0 240 412)" fill="white"/>
</clipPath>
<clipPath id="clip16_659_880">
<rect width="91" height="120" rx="4" transform="matrix(0 -1 -1 0 240 312)" fill="white"/>
</clipPath>
<clipPath id="clip17_659_880">
<rect width="22" height="120" rx="4" transform="matrix(0 -1 -1 0 240 140)" fill="white"/>
</clipPath>
</defs>
</svg>
