<svg width="360" height="534" viewBox="0 0 360 534" fill="none" xmlns="http://www.w3.org/2000/svg">
<g id="Ground Floor">
<rect x="0.5" y="0.5" width="359" height="533" rx="7.5" fill="#2B2B2B"/>
<rect x="0.5" y="0.5" width="359" height="533" rx="7.5" stroke="white"/>
<g id="Frame 40">
<rect x="6.5" y="7.5" width="67" height="68" rx="3.5" stroke="white"/>
<text id="AMU Room 1" fill="white" xml:space="preserve" style="white-space: pre" font-family="Poppins" font-size="8" letter-spacing="0em"><tspan x="15.0078" y="44.8">AMU  Room 1</tspan></text>
</g>
<g id="Frame 71">
<g id="Frame 43">
<rect x="160" y="7" width="45" height="69" rx="4" fill="#4B4B4B"/>
<g id="Exit-icons">
<g id="streamline:interface-logout-arrow-exit-frame-leave-logout-rectangle-right" clip-path="url(#clip0_659_1365)">
<path id="Vector" d="M189.786 44.5V45.9286C189.786 46.118 189.71 46.2997 189.576 46.4337C189.442 46.5676 189.261 46.6429 189.071 46.6429H184.071C183.882 46.6429 183.7 46.5676 183.566 46.4337C183.432 46.2997 183.357 46.118 183.357 45.9286L183.5 38C183.5 37.8106 183.432 37.7003 183.566 37.5664C183.7 37.4324 183.882 37.3572 184.071 37.3572H189.071C189.261 37.3572 189.442 37.4324 189.576 37.5664C189.71 37.7003 189.786 37.882 189.786 38.0715V39.5M187.643 42H192.643M192.643 42L191.214 40.5715M192.643 42L191.214 43.4286" stroke="white" stroke-width="0.7" stroke-linecap="round" stroke-linejoin="round"/>
</g>
<g id="Fire Run Away" clip-path="url(#clip1_659_1365)">
<path id="Vector_2" d="M181.663 38.4808C182.385 38.4808 182.973 37.8931 182.973 37.1703C182.973 36.4476 182.385 35.8599 181.663 35.8599C180.94 35.8599 180.352 36.4476 180.352 37.1703C180.352 37.8931 180.94 38.4808 181.663 38.4808ZM181.663 36.4647C182.052 36.4647 182.368 36.7812 182.368 37.1703C182.368 37.5595 182.052 37.876 181.663 37.876C181.273 37.876 180.957 37.5595 180.957 37.1703C180.957 36.7812 181.273 36.4647 181.663 36.4647ZM180.069 47.8024C180.465 47.8024 180.812 47.5484 180.933 47.1714C181.424 45.6361 181.693 44.3326 181.704 44.2782C181.756 44.0212 181.696 43.754 181.537 43.5453C181.518 43.5212 181.111 42.9929 180.443 42.4647C180.593 42.129 180.817 41.6643 181.083 41.2087C181.089 41.2218 181.096 41.2349 181.102 41.248L181.394 41.8699C181.544 42.1865 181.865 42.3911 182.216 42.3911C182.343 42.3911 182.467 42.3649 182.584 42.3125L184.263 41.5665C184.489 41.4657 184.662 41.2822 184.746 41.0504C184.832 40.8185 184.82 40.5675 184.712 40.3437C184.501 39.9062 183.959 39.7157 183.503 39.9183L182.654 40.2964C182.252 39.5524 181.607 38.9758 180.817 38.6593C180.062 38.3568 179.217 38.3195 178.438 38.5534C177.622 38.8044 176.903 39.3246 176.411 40.0191L175.876 40.7732C175.736 40.9718 175.682 41.2117 175.723 41.4506C175.764 41.6895 175.896 41.8982 176.094 42.0373C176.275 42.1653 176.496 42.2218 176.716 42.1976C176.882 42.1794 177.002 42.0302 176.984 41.8639C176.966 41.6976 176.816 41.5786 176.65 41.5958C176.577 41.6038 176.503 41.5847 176.443 41.5423C176.377 41.496 176.333 41.4264 176.319 41.3468C176.305 41.2671 176.323 41.1875 176.37 41.121L176.904 40.3669C177.319 39.7833 177.926 39.3437 178.612 39.133C179.258 38.9395 179.962 38.9708 180.591 39.2218C181.3 39.505 181.869 40.0423 182.195 40.7328L182.236 40.8195C182.307 40.9687 182.482 41.0333 182.632 40.9667L183.747 40.4708C183.908 40.3992 184.096 40.4597 184.166 40.6058C184.202 40.6804 184.206 40.7641 184.177 40.8417C184.148 40.9193 184.091 40.9808 184.015 41.0141L182.336 41.7601C182.189 41.8256 182.007 41.756 181.94 41.6129L181.647 40.9909C181.558 40.8004 181.441 40.6199 181.301 40.4556C181.239 40.383 181.146 40.3447 181.052 40.3498C180.957 40.3558 180.87 40.4062 180.818 40.4859C180.374 41.1603 180.014 41.9224 179.791 42.4425C179.735 42.5726 179.776 42.7228 179.89 42.8064C180.604 43.3276 181.037 43.8901 181.055 43.9133C181.108 43.9828 181.128 44.0716 181.11 44.1572C181.099 44.2107 180.837 45.4828 180.355 46.9879C180.315 47.1139 180.199 47.1986 180.067 47.1986C180.023 47.1986 179.98 47.1885 179.939 47.1703C179.804 47.1078 179.737 46.9365 179.787 46.7792C180.118 45.7369 180.346 44.7964 180.453 44.3286C180.475 44.2318 180.448 44.131 180.381 44.0574C180.124 43.7772 179.705 43.375 179.166 43.0504C179.022 42.9647 178.837 43.0111 178.75 43.1542C178.666 43.2964 178.712 43.4818 178.855 43.5685C179.275 43.8205 179.618 44.1351 179.828 44.3508C179.713 44.8447 179.503 45.6794 179.211 46.5947C179.068 47.0453 179.272 47.5292 179.687 47.7187C179.81 47.7742 179.938 47.8024 180.069 47.8024Z" fill="white"/>
<path id="Vector_3" d="M176.337 47.8023C176.574 47.8023 176.812 47.7096 176.989 47.5261C177.24 47.266 178.512 45.9223 178.867 44.9687C178.913 44.8467 178.951 44.6924 178.983 44.4969C179.01 44.3326 178.9 44.1763 178.735 44.1481C178.571 44.1209 178.415 44.2318 178.386 44.3961C178.354 44.5896 178.321 44.6995 178.3 44.758C178.041 45.4555 177.081 46.5614 176.555 47.1057C176.439 47.2257 176.247 47.2287 176.127 47.1128C176.007 46.9969 176.004 46.8053 176.12 46.6854C176.49 46.3023 177.501 45.1723 177.733 44.5473C177.839 44.264 177.892 43.3164 177.901 42.7852C177.901 42.767 177.903 42.7489 177.907 42.7307C177.917 42.6783 178.169 41.4404 178.822 40.2418C178.902 40.0957 178.848 39.9112 178.701 39.8316C178.555 39.7519 178.37 39.8053 178.291 39.9525C177.594 41.2318 177.325 42.5574 177.314 42.6138C177.304 42.6672 177.298 42.7217 177.297 42.7761C177.285 43.4787 177.216 44.2055 177.167 44.3376C177.019 44.7348 176.283 45.6481 175.686 46.266C175.338 46.6259 175.348 47.2005 175.707 47.5483C175.881 47.7176 176.109 47.8023 176.337 47.8023Z" fill="white"/>
</g>
</g>
</g>
<g id="Frame 55">
<g id="Frame 43_2">
<rect x="211.5" y="7.5" width="67" height="68" rx="3.5" stroke="white"/>
<text id="Exam 2" fill="white" xml:space="preserve" style="white-space: pre" font-family="Poppins" font-size="8" letter-spacing="0em"><tspan x="231.344" y="44.8">Exam 2</tspan></text>
</g>
<g id="Frame 44">
<rect x="285.5" y="7.5" width="67" height="68" rx="3.5" stroke="white"/>
<text id="Exam 3" fill="white" xml:space="preserve" style="white-space: pre" font-family="Poppins" font-size="8" letter-spacing="0em"><tspan x="304.289" y="44.8">Exam 3</tspan></text>
</g>
</g>
</g>
<g id="Frame 46">
<g id="Frame 55_2">
<g id="Frame 43_3">
<rect x="6.5" y="458.5" width="67" height="68" rx="3.5" stroke="white"/>
<text id="Server Room" fill="white" xml:space="preserve" style="white-space: pre" font-family="Poppins" font-size="8" letter-spacing="0em"><tspan x="26.8984" y="489.8">Server &#10;</tspan><tspan x="28.8281" y="501.8">Room</tspan></text>
</g>
<g id="Frame 44_2">
<rect x="80.5" y="458.5" width="67" height="68" rx="3.5" stroke="white"/>
<text id="IBMS Room" fill="white" xml:space="preserve" style="white-space: pre" font-family="Poppins" font-size="8" letter-spacing="0em"><tspan x="104.27" y="489.8">IBMS&#10;</tspan><tspan x="101.828" y="501.8">Room</tspan></text>
</g>
</g>
</g>
<g id="Frame 47">
<g id="Frame 44_3">
<rect x="284.5" y="119.5" width="68" height="98" rx="3.5" stroke="white"/>
<text id="E. CR G3" transform="translate(302 164)" fill="white" xml:space="preserve" style="white-space: pre" font-family="Poppins" font-size="8" letter-spacing="0em"><tspan x="0.417969" y="8.8">E. CR  G3</tspan></text>
</g>
</g>
<g id="Frame 73">
<g id="Frame 52">
<g clip-path="url(#clip2_659_1365)">
<rect x="285" y="389" width="35" height="69" rx="4" transform="rotate(-90 285 389)" fill="#2B2B2B"/>
<text id="Staircase" transform="translate(301 365.5)" fill="white" xml:space="preserve" style="white-space: pre" font-family="Poppins" font-size="8" letter-spacing="0em"><tspan x="0.3125" y="8.8">Staircase</tspan></text>
</g>
<rect x="285.5" y="388.5" width="34" height="68" rx="3.5" transform="rotate(-90 285.5 388.5)" stroke="white"/>
</g>
<g id="Frame 72">
<g clip-path="url(#clip3_659_1365)">
<rect x="285" y="454" width="35" height="69" rx="4" transform="rotate(-90 285 454)" fill="#2B2B2B"/>
<text id="Staircase to Lower Ground" transform="translate(292 424.5)" fill="white" xml:space="preserve" style="white-space: pre" font-family="Poppins" font-size="8" letter-spacing="0em"><tspan x="4.23047" y="8.8">Staircase to&#10;</tspan><tspan x="0.410156" y="20.8">Lower Ground</tspan></text>
</g>
<rect x="285.5" y="453.5" width="34" height="68" rx="3.5" transform="rotate(-90 285.5 453.5)" stroke="white"/>
</g>
</g>
<g id="Frame 48">
<g id="Frame 50">
<g clip-path="url(#clip4_659_1365)">
<rect x="6" y="411" width="18" height="69" rx="4" transform="rotate(-90 6 411)" fill="#4B4B4B"/>
<g id="Exit-icons_2">
<g id="streamline:interface-logout-arrow-exit-frame-leave-logout-rectangle-right_2" clip-path="url(#clip5_659_1365)">
<path id="Vector_4" d="M33.2145 405.5V406.929C33.2145 407.118 33.2898 407.3 33.4237 407.434C33.5577 407.568 33.7393 407.643 33.9288 407.643H38.9288C39.1182 407.643 39.2999 407.568 39.4339 407.434C39.5678 407.3 39.6431 407.118 39.6431 406.929L39.5 399C39.5 398.811 39.5678 398.7 39.4339 398.566C39.2999 398.432 39.1182 398.357 38.9288 398.357H33.9288C33.7393 398.357 33.5577 398.432 33.4237 398.566C33.2898 398.7 33.2145 398.882 33.2145 399.071V400.5M35.3574 403H30.3574M30.3574 403L31.7859 401.571M30.3574 403L31.7859 404.429" stroke="white" stroke-width="0.7" stroke-linecap="round" stroke-linejoin="round"/>
</g>
<g id="Frame 50_2">
<rect width="5.16129" height="3.87097" transform="matrix(-1 0 0 1 41.9678 400.516)" fill="#4B4B4B"/>
</g>
<g id="Fire Run Away_2" clip-path="url(#clip6_659_1365)">
<path id="Vector_5" d="M41.3374 399.481C40.6146 399.481 40.0269 398.893 40.0269 398.17C40.0269 397.448 40.6146 396.86 41.3374 396.86C42.0602 396.86 42.6479 397.448 42.6479 398.17C42.6479 398.893 42.0602 399.481 41.3374 399.481ZM41.3374 397.465C40.9483 397.465 40.6318 397.781 40.6318 398.17C40.6318 398.559 40.9483 398.876 41.3374 398.876C41.7265 398.876 42.0431 398.559 42.0431 398.17C42.0431 397.781 41.7265 397.465 41.3374 397.465ZM42.9312 408.802C42.535 408.802 42.1882 408.548 42.0673 408.171C41.5763 406.636 41.3072 405.333 41.2961 405.278C41.2437 405.021 41.3042 404.754 41.4634 404.545C41.4816 404.521 41.8888 403.993 42.5572 403.465C42.407 403.129 42.1832 402.664 41.9171 402.209C41.911 402.222 41.904 402.235 41.8979 402.248L41.6056 402.87C41.4564 403.186 41.1348 403.391 40.784 403.391C40.657 403.391 40.533 403.365 40.416 403.312L38.7366 402.567C38.5108 402.466 38.3384 402.282 38.2538 402.05C38.1681 401.819 38.1802 401.568 38.288 401.344C38.4987 400.906 39.041 400.716 39.4967 400.918L40.3465 401.296C40.7477 400.552 41.3929 399.976 42.1832 399.659C42.9382 399.357 43.783 399.32 44.5622 399.553C45.3777 399.804 46.0975 400.325 46.5894 401.019L47.1237 401.773C47.2638 401.972 47.3183 402.212 47.2769 402.451C47.2356 402.69 47.1035 402.898 46.906 403.037C46.7245 403.165 46.5037 403.222 46.284 403.198C46.1177 403.179 45.9977 403.03 46.0158 402.864C46.034 402.698 46.1842 402.579 46.3495 402.596C46.4231 402.604 46.4967 402.585 46.5572 402.542C46.6227 402.496 46.6671 402.426 46.6812 402.347C46.6953 402.267 46.6771 402.187 46.6298 402.121L46.0965 401.367C45.6812 400.783 45.0743 400.344 44.3878 400.133C43.7417 399.94 43.038 399.971 42.409 400.222C41.7003 400.505 41.1308 401.042 40.8052 401.733L40.7638 401.82C40.6933 401.969 40.5179 402.033 40.3677 401.967L39.2527 401.471C39.0925 401.399 38.904 401.46 38.8344 401.606C38.7981 401.68 38.7941 401.764 38.8233 401.842C38.8515 401.919 38.909 401.981 38.9846 402.014L40.664 402.76C40.8112 402.826 40.9927 402.756 41.0602 402.613L41.3525 401.991C41.4423 401.8 41.5592 401.62 41.6993 401.456C41.7608 401.383 41.8535 401.345 41.9483 401.35C42.0431 401.356 42.1298 401.406 42.1822 401.486C42.6257 402.16 42.9856 402.922 43.2094 403.443C43.2648 403.573 43.2235 403.723 43.1096 403.806C42.3959 404.328 41.9634 404.89 41.9453 404.913C41.8919 404.983 41.8717 405.072 41.8898 405.157C41.9009 405.211 42.163 406.483 42.6449 407.988C42.6852 408.114 42.8011 408.199 42.9332 408.199C42.9765 408.199 43.0199 408.188 43.0612 408.17C43.1963 408.108 43.2628 407.936 43.2134 407.779C42.8818 406.737 42.654 405.796 42.5471 405.329C42.5249 405.232 42.5521 405.131 42.6187 405.057C42.8757 404.777 43.2951 404.375 43.8344 404.05C43.9775 403.965 44.163 404.011 44.2497 404.154C44.3344 404.296 44.288 404.482 44.1449 404.569C43.7245 404.821 43.3818 405.135 43.1721 405.351C43.287 405.845 43.4967 406.679 43.789 407.595C43.9322 408.045 43.7275 408.529 43.3132 408.719C43.1902 408.774 43.0622 408.802 42.9312 408.802Z" fill="white"/>
<path id="Vector_6" d="M46.663 408.802C46.4261 408.802 46.1882 408.71 46.0108 408.526C45.7597 408.266 44.4876 406.922 44.1327 405.969C44.0874 405.847 44.0491 405.692 44.0168 405.497C43.9896 405.333 44.1005 405.176 44.2648 405.148C44.4291 405.121 44.5854 405.232 44.6136 405.396C44.6458 405.59 44.6791 405.699 44.7003 405.758C44.9593 406.456 45.919 407.561 46.4452 408.106C46.5612 408.226 46.7527 408.229 46.8726 408.113C46.9926 407.997 46.9956 407.805 46.8797 407.685C46.5097 407.302 45.4987 406.172 45.2668 405.547C45.161 405.264 45.1075 404.316 45.0995 403.785C45.0995 403.767 45.0974 403.749 45.0934 403.731C45.0833 403.678 44.8313 402.44 44.1781 401.242C44.0985 401.096 44.1519 400.911 44.2991 400.832C44.4452 400.752 44.6297 400.805 44.7093 400.953C45.4059 402.232 45.6751 403.557 45.6862 403.614C45.6962 403.667 45.7023 403.722 45.7033 403.776C45.7154 404.479 45.7839 405.206 45.8333 405.338C45.9805 405.735 46.7174 406.648 47.3142 407.266C47.662 407.626 47.6519 408.201 47.293 408.548C47.1186 408.718 46.8908 408.802 46.663 408.802Z" fill="white"/>
</g>
</g>
</g>
</g>
<g id="Frame 51">
<g clip-path="url(#clip7_659_1365)">
<rect x="6" y="387" width="35" height="69" rx="4" transform="rotate(-90 6 387)" fill="#4B4B4B"/>
<path id="Vector_7" d="M37.6765 371.875V378.5H34.9118V371.875V371.375H34.4118H33.5V366.65C33.5 365.877 34.1276 365.25 34.8824 365.25H37.7059C38.4606 365.25 39.0882 365.877 39.0882 366.65V371.375H38.1765H37.6765V371.875ZM48.3086 372.8H46.1765H45.6765V373.3V378.5H43.8529V373.3V372.8H43.3529H41.2208L43.3948 366.208L43.3953 366.207C43.5824 365.633 44.1153 365.25 44.7082 365.25H44.8212C45.4096 365.25 45.938 365.629 46.1352 366.21L48.3086 372.8ZM37.6765 361.9C37.6765 362.683 37.0583 363.3 36.2941 363.3C35.5299 363.3 34.9118 362.683 34.9118 361.9C34.9118 361.117 35.5299 360.5 36.2941 360.5C37.0583 360.5 37.6765 361.117 37.6765 361.9ZM46.1471 361.9C46.1471 362.683 45.5289 363.3 44.7647 363.3C44.0005 363.3 43.3824 362.683 43.3824 361.9C43.3824 361.117 44.0005 360.5 44.7647 360.5C45.5289 360.5 46.1471 361.117 46.1471 361.9Z" stroke="white"/>
</g>
</g>
<g id="Frame 49">
<g clip-path="url(#clip8_659_1365)">
<rect x="-0.5" y="-0.5" width="47" height="68" rx="3.5" transform="matrix(0 -1 -1 0 74 345)" stroke="white"/>
<text id="E. CR G1" transform="translate(26 316.5)" fill="white" xml:space="preserve" style="white-space: pre" font-family="Poppins" font-size="8" letter-spacing="0em"><tspan x="0.0585938" y="8.8">E. CR G1</tspan></text>
</g>
</g>
<g id="Frame 55_3">
<g clip-path="url(#clip9_659_1365)">
<rect x="-0.5" y="-0.5" width="47" height="68" rx="3.5" transform="matrix(0 -1 -1 0 74 291)" stroke="white"/>
<text id="E. CR G2" transform="translate(25 262.5)" fill="white" xml:space="preserve" style="white-space: pre" font-family="Poppins" font-size="8" letter-spacing="0em"><tspan x="0.0390625" y="8.8">E. CR G2</tspan></text>
</g>
</g>
<g id="Frame 56">
<rect x="-0.5" y="-0.5" width="47" height="68" rx="3.5" transform="matrix(0 -1 -1 0 74 237)" stroke="white"/>
<text id="Exam 1" transform="translate(28 208.5)" fill="white" xml:space="preserve" style="white-space: pre" font-family="Poppins" font-size="8" letter-spacing="0em"><tspan x="0.363281" y="8.8">Exam 1</tspan></text>
</g>
</g>
<g id="Frame 49_2">
<g id="Frame 45">
<g clip-path="url(#clip10_659_1365)">
<rect width="22" height="120" rx="4" transform="matrix(0 -1 -1 0 240 412)" fill="#2B2B2B"/>
<text id="Lift" fill="white" xml:space="preserve" style="white-space: pre" font-family="Poppins" font-size="11" letter-spacing="0em"><tspan x="172.459" y="404.85">Lift</tspan></text>
</g>
<rect x="-0.5" y="-0.5" width="21" height="119" rx="3.5" transform="matrix(0 -1 -1 0 239 411)" stroke="white"/>
</g>
<g id="Frame 53">
<g id="Frame 45_2">
<rect x="183.5" y="318.5" width="56" height="65" rx="3.5" stroke="white"/>
<text id="Conference Room" transform="translate(189 339)" fill="white" xml:space="preserve" style="white-space: pre" font-family="Poppins" font-size="8" letter-spacing="0em"><tspan x="0.0546875" y="8.8">Conference&#10;</tspan><tspan x="11.8281" y="20.8">Room</tspan></text>
</g>
<g id="Frame 44_4">
<rect x="120.5" y="318.5" width="56" height="65" rx="3.5" stroke="white"/>
<text id="Admin Department" transform="translate(124 339)" fill="white" xml:space="preserve" style="white-space: pre" font-family="Poppins" font-size="8" letter-spacing="0em"><tspan x="11.4375" y="8.8">Admin&#10;</tspan><tspan x="0.21875" y="20.8">Department</tspan></text>
</g>
</g>
<g id="Frame 49_3">
<g clip-path="url(#clip11_659_1365)">
<rect width="91" height="120" rx="4" transform="matrix(0 -1 -1 0 240 312)" fill="#23A6F0"/>
<text id="Ground Floor_2" fill="white" xml:space="preserve" style="white-space: pre" font-family="Poppins" font-size="20" letter-spacing="0em"><tspan x="142.539" y="258.5">Ground&#10;</tspan><tspan x="155.977" y="288.5">Floor</tspan></text>
</g>
</g>
<g id="Frame 54">
<g id="Frame 45_3">
<rect x="183.5" y="146.5" width="56" height="68" rx="3.5" stroke="white"/>
<text id="E. CR G5" transform="translate(196 175)" fill="white" xml:space="preserve" style="white-space: pre" font-family="Poppins" font-size="8" letter-spacing="0em"><tspan x="0.328125" y="8.8">E. CR G5</tspan></text>
</g>
<g id="Frame 44_5">
<rect x="120.5" y="146.5" width="56" height="68" rx="3.5" stroke="white"/>
<text id="E. CR G4" transform="translate(133 175)" fill="white" xml:space="preserve" style="white-space: pre" font-family="Poppins" font-size="8" letter-spacing="0em"><tspan x="0.324219" y="8.8">E. CR G4</tspan></text>
</g>
</g>
<g id="Frame 48_2">
<g clip-path="url(#clip12_659_1365)">
<rect width="22" height="120" rx="4" transform="matrix(0 -1 -1 0 240 140)" fill="#2B2B2B"/>
<text id="Lift_2" fill="white" xml:space="preserve" style="white-space: pre" font-family="Poppins" font-size="11" letter-spacing="0em"><tspan x="172.459" y="132.85">Lift</tspan></text>
</g>
<rect x="-0.5" y="-0.5" width="21" height="119" rx="3.5" transform="matrix(0 -1 -1 0 239 139)" stroke="white"/>
</g>
</g>
<path id="Arrow 5" d="M179.646 114.354C179.842 114.549 180.158 114.549 180.354 114.354L183.536 111.172C183.731 110.976 183.731 110.66 183.536 110.464C183.34 110.269 183.024 110.269 182.828 110.464L180 113.293L177.172 110.464C176.976 110.269 176.66 110.269 176.464 110.464C176.269 110.66 176.269 110.976 176.464 111.172L179.646 114.354ZM179.5 105L179.5 114L180.5 114L180.5 105L179.5 105Z" fill="white"/>
<path id="Arrow 7" d="M347.853 96.861C348.049 96.6661 348.049 96.3495 347.854 96.1539L344.677 92.9671C344.482 92.7715 344.165 92.771 343.97 92.966C343.774 93.161 343.774 93.4775 343.969 93.6731L346.793 96.5058L343.96 99.3299C343.765 99.5249 343.764 99.8415 343.959 100.037C344.154 100.233 344.471 100.233 344.666 100.038L347.853 96.861ZM338.499 96.9932L347.499 97.0069L347.501 96.0069L338.501 95.9932L338.499 96.9932Z" fill="white"/>
<text id="Bhagubhai Lift Entrance" fill="white" xml:space="preserve" style="white-space: pre" font-family="Poppins" font-size="8" letter-spacing="0em"><tspan x="132.227" y="99.3">Bhagubhai Lift Entrance</tspan></text>
<text id="Exit and Bhagubhai Entrance" fill="white" xml:space="preserve" style="white-space: pre" font-family="Poppins" font-size="8" letter-spacing="0em"><tspan x="259.07" y="96.3">Exit and Bhagubhai&#10;</tspan><tspan x="279.77" y="108.3">Entrance</tspan></text>
<text id="Cooper Lift Entrance" fill="white" xml:space="preserve" style="white-space: pre" font-family="Poppins" font-size="8" letter-spacing="0em"><tspan x="139.27" y="441.3">Cooper Lift Entrance</tspan></text>
<path id="Arrow 6" d="M180.354 420.646C180.158 420.451 179.842 420.451 179.646 420.646L176.464 423.828C176.269 424.024 176.269 424.34 176.464 424.536C176.66 424.731 176.976 424.731 177.172 424.536L180 421.707L182.828 424.536C183.024 424.731 183.34 424.731 183.536 424.536C183.731 424.34 183.731 424.024 183.536 423.828L180.354 420.646ZM180.5 430L180.5 421L179.5 421L179.5 430L180.5 430Z" fill="white"/>
<g id="Group 1261153516">
<g id="Frame 50_3">
<rect x="285" y="278" width="18" height="69" rx="4" transform="rotate(-90 285 278)" fill="#4B4B4B"/>
</g>
<g id="Exit-icons_3">
<rect width="21" height="12.9032" transform="translate(309 262)" fill="#4B4B4B"/>
<g id="streamline:interface-logout-arrow-exit-frame-leave-logout-rectangle-right_3" clip-path="url(#clip13_659_1365)">
<path id="Vector_8" d="M326.786 271.5V272.929C326.786 273.118 326.71 273.3 326.576 273.434C326.442 273.568 326.261 273.643 326.071 273.643H321.071C320.882 273.643 320.7 273.568 320.566 273.434C320.432 273.3 320.357 273.118 320.357 272.929L320.5 265C320.5 264.811 320.432 264.7 320.566 264.566C320.7 264.432 320.882 264.357 321.071 264.357H326.071C326.261 264.357 326.442 264.432 326.576 264.566C326.71 264.7 326.786 264.882 326.786 265.071V266.5M324.643 269H329.643M329.643 269L328.214 267.571M329.643 269L328.214 270.429" stroke="white" stroke-width="0.7" stroke-linecap="round" stroke-linejoin="round"/>
</g>
<g id="Fire Run Away_3" clip-path="url(#clip14_659_1365)">
<path id="Vector_9" d="M318.663 265.481C319.385 265.481 319.973 264.893 319.973 264.17C319.973 263.448 319.385 262.86 318.663 262.86C317.94 262.86 317.352 263.448 317.352 264.17C317.352 264.893 317.94 265.481 318.663 265.481ZM318.663 263.465C319.052 263.465 319.368 263.781 319.368 264.17C319.368 264.559 319.052 264.876 318.663 264.876C318.273 264.876 317.957 264.559 317.957 264.17C317.957 263.781 318.273 263.465 318.663 263.465ZM317.069 274.802C317.465 274.802 317.812 274.548 317.933 274.171C318.424 272.636 318.693 271.333 318.704 271.278C318.756 271.021 318.696 270.754 318.537 270.545C318.518 270.521 318.111 269.993 317.443 269.465C317.593 269.129 317.817 268.664 318.083 268.209C318.089 268.222 318.096 268.235 318.102 268.248L318.394 268.87C318.544 269.186 318.865 269.391 319.216 269.391C319.343 269.391 319.467 269.365 319.584 269.312L321.263 268.567C321.489 268.466 321.662 268.282 321.746 268.05C321.832 267.819 321.82 267.568 321.712 267.344C321.501 266.906 320.959 266.716 320.503 266.918L319.654 267.296C319.252 266.552 318.607 265.976 317.817 265.659C317.062 265.357 316.217 265.32 315.438 265.553C314.622 265.804 313.903 266.325 313.411 267.019L312.876 267.773C312.736 267.972 312.682 268.212 312.723 268.451C312.764 268.69 312.896 268.898 313.094 269.037C313.275 269.165 313.496 269.222 313.716 269.198C313.882 269.179 314.002 269.03 313.984 268.864C313.966 268.698 313.816 268.579 313.65 268.596C313.577 268.604 313.503 268.585 313.443 268.542C313.377 268.496 313.333 268.426 313.319 268.347C313.305 268.267 313.323 268.187 313.37 268.121L313.904 267.367C314.319 266.783 314.926 266.344 315.612 266.133C316.258 265.94 316.962 265.971 317.591 266.222C318.3 266.505 318.869 267.042 319.195 267.733L319.236 267.82C319.307 267.969 319.482 268.033 319.632 267.967L320.747 267.471C320.908 267.399 321.096 267.46 321.166 267.606C321.202 267.68 321.206 267.764 321.177 267.842C321.148 267.919 321.091 267.981 321.015 268.014L319.336 268.76C319.189 268.826 319.007 268.756 318.94 268.613L318.647 267.991C318.558 267.8 318.441 267.62 318.301 267.456C318.239 267.383 318.146 267.345 318.052 267.35C317.957 267.356 317.87 267.406 317.818 267.486C317.374 268.16 317.014 268.922 316.791 269.443C316.735 269.573 316.776 269.723 316.89 269.806C317.604 270.328 318.037 270.89 318.055 270.913C318.108 270.983 318.128 271.072 318.11 271.157C318.099 271.211 317.837 272.483 317.355 273.988C317.315 274.114 317.199 274.199 317.067 274.199C317.023 274.199 316.98 274.188 316.939 274.17C316.804 274.108 316.737 273.936 316.787 273.779C317.118 272.737 317.346 271.796 317.453 271.329C317.475 271.232 317.448 271.131 317.381 271.057C317.124 270.777 316.705 270.375 316.166 270.05C316.022 269.965 315.837 270.011 315.75 270.154C315.666 270.296 315.712 270.482 315.855 270.569C316.275 270.821 316.618 271.135 316.828 271.351C316.713 271.845 316.503 272.679 316.211 273.595C316.068 274.045 316.272 274.529 316.687 274.719C316.81 274.774 316.938 274.802 317.069 274.802Z" fill="white"/>
<path id="Vector_10" d="M313.337 274.802C313.574 274.802 313.812 274.71 313.989 274.526C314.24 274.266 315.512 272.922 315.867 271.969C315.913 271.847 315.951 271.692 315.983 271.497C316.01 271.333 315.9 271.176 315.735 271.148C315.571 271.121 315.415 271.232 315.386 271.396C315.354 271.59 315.321 271.699 315.3 271.758C315.041 272.456 314.081 273.561 313.555 274.106C313.439 274.226 313.247 274.229 313.127 274.113C313.007 273.997 313.004 273.805 313.12 273.685C313.49 273.302 314.501 272.172 314.733 271.547C314.839 271.264 314.892 270.316 314.901 269.785C314.901 269.767 314.903 269.749 314.907 269.731C314.917 269.678 315.169 268.44 315.822 267.242C315.902 267.096 315.848 266.911 315.701 266.832C315.555 266.752 315.37 266.805 315.291 266.953C314.594 268.232 314.325 269.557 314.314 269.614C314.304 269.667 314.298 269.722 314.297 269.776C314.285 270.479 314.216 271.206 314.167 271.338C314.019 271.735 313.283 272.648 312.686 273.266C312.338 273.626 312.348 274.201 312.707 274.548C312.881 274.718 313.109 274.802 313.337 274.802Z" fill="white"/>
</g>
</g>
</g>
</g>
<defs>
<clipPath id="clip0_659_1365">
<rect width="10" height="10" fill="white" transform="translate(183 37)"/>
</clipPath>
<clipPath id="clip1_659_1365">
<rect width="12.9032" height="12.9032" fill="white" transform="matrix(-1 0 0 1 184.903 35)"/>
</clipPath>
<clipPath id="clip2_659_1365">
<rect x="285" y="389" width="35" height="69" rx="4" transform="rotate(-90 285 389)" fill="white"/>
</clipPath>
<clipPath id="clip3_659_1365">
<rect x="285" y="454" width="35" height="69" rx="4" transform="rotate(-90 285 454)" fill="white"/>
</clipPath>
<clipPath id="clip4_659_1365">
<rect x="6" y="411" width="18" height="69" rx="4" transform="rotate(-90 6 411)" fill="white"/>
</clipPath>
<clipPath id="clip5_659_1365">
<rect width="10" height="10" fill="white" transform="matrix(-1 0 0 1 40 398)"/>
</clipPath>
<clipPath id="clip6_659_1365">
<rect width="12.9032" height="12.9032" fill="white" transform="translate(38.0967 396)"/>
</clipPath>
<clipPath id="clip7_659_1365">
<rect x="6" y="387" width="35" height="69" rx="4" transform="rotate(-90 6 387)" fill="white"/>
</clipPath>
<clipPath id="clip8_659_1365">
<rect width="48" height="69" rx="4" transform="matrix(0 -1 -1 0 75 346)" fill="white"/>
</clipPath>
<clipPath id="clip9_659_1365">
<rect width="48" height="69" rx="4" transform="matrix(0 -1 -1 0 75 292)" fill="white"/>
</clipPath>
<clipPath id="clip10_659_1365">
<rect width="22" height="120" rx="4" transform="matrix(0 -1 -1 0 240 412)" fill="white"/>
</clipPath>
<clipPath id="clip11_659_1365">
<rect width="91" height="120" rx="4" transform="matrix(0 -1 -1 0 240 312)" fill="white"/>
</clipPath>
<clipPath id="clip12_659_1365">
<rect width="22" height="120" rx="4" transform="matrix(0 -1 -1 0 240 140)" fill="white"/>
</clipPath>
<clipPath id="clip13_659_1365">
<rect width="10" height="10" fill="white" transform="translate(320 264)"/>
</clipPath>
<clipPath id="clip14_659_1365">
<rect width="12.9032" height="12.9032" fill="white" transform="matrix(-1 0 0 1 321.903 262)"/>
</clipPath>
</defs>
</svg>
